<?xml version="1.0" encoding="UTF-8" standalone="no"?>
<svg
   viewBox="0 0 900 600"
   version="1.1"
   id="svg6"
   sodipodi:docname="Raccoon_Pride_flag.svg"
   inkscape:version="1.4.3 (0d15f75042, 2025-12-25)"
   inkscape:export-filename="Raccoon_Pride_flag-6.png"
   inkscape:export-xdpi="200"
   inkscape:export-ydpi="200"
   width="900"
   height="600"
   xml:space="preserve"
   xmlns:inkscape="http://www.inkscape.org/namespaces/inkscape"
   xmlns:sodipodi="http://sodipodi.sourceforge.net/DTD/sodipodi-0.dtd"
   xmlns:xlink="http://www.w3.org/1999/xlink"
   xmlns="http://www.w3.org/2000/svg"
   xmlns:svg="http://www.w3.org/2000/svg"><defs
     id="defs6"><inkscape:path-effect
       effect="spiro"
       id="path-effect15"
       is_visible="true"
       lpeversion="1" /><inkscape:path-effect
       effect="spiro"
       id="path-effect15-7"
       is_visible="true"
       lpeversion="1" /><inkscape:path-effect
       effect="spiro"
       id="path-effect15-7-0"
       is_visible="true"
       lpeversion="1" /><inkscape:path-effect
       effect="spiro"
       id="path-effect15-7-0-5"
       is_visible="true"
       lpeversion="1" /><inkscape:path-effect
       effect="spiro"
       id="path-effect32"
       is_visible="true"
       lpeversion="1" /><inkscape:path-effect
       effect="spiro"
       id="path-effect34"
       is_visible="true"
       lpeversion="1" /><inkscape:path-effect
       effect="spiro"
       id="path-effect41-2"
       is_visible="true"
       lpeversion="1" /><inkscape:path-effect
       effect="spiro"
       id="path-effect28"
       is_visible="true"
       lpeversion="1" /><inkscape:path-effect
       effect="spiro"
       id="path-effect15-3"
       is_visible="true"
       lpeversion="1" /><inkscape:path-effect
       effect="spiro"
       id="path-effect15-7-6"
       is_visible="true"
       lpeversion="1" /><inkscape:path-effect
       effect="spiro"
       id="path-effect15-7-0-7"
       is_visible="true"
       lpeversion="1" /><inkscape:path-effect
       effect="spiro"
       id="path-effect15-7-0-5-5"
       is_visible="true"
       lpeversion="1" /><inkscape:path-effect
       effect="spiro"
       id="path-effect32-3"
       is_visible="true"
       lpeversion="1" /><inkscape:path-effect
       effect="spiro"
       id="path-effect34-5"
       is_visible="true"
       lpeversion="1" /><inkscape:path-effect
       effect="spiro"
       id="path-effect41-2-6"
       is_visible="true"
       lpeversion="1" /><inkscape:path-effect
       effect="spiro"
       id="path-effect28-2"
       is_visible="true"
       lpeversion="1" /></defs><sodipodi:namedview
     id="namedview6"
     pagecolor="#ffffff"
     bordercolor="#000000"
     borderopacity="0.25"
     inkscape:showpageshadow="2"
     inkscape:pageopacity="0.0"
     inkscape:pagecheckerboard="0"
     inkscape:deskcolor="#d1d1d1"
     inkscape:zoom="1.4142136"
     inkscape:cx="397.74756"
     inkscape:cy="225.56706"
     inkscape:window-width="1800"
     inkscape:window-height="1049"
     inkscape:window-x="0"
     inkscape:window-y="0"
     inkscape:window-maximized="1"
     inkscape:current-layer="svg6" /><path
     fill="#770088"
     d="M 0,0 H 900 V 600 H 0 Z"
     id="path1"
     style="fill:#2d2d2d;fill-opacity:1;stroke-width:1.20328" /><path
     fill="#028121"
     d="M 0,0 H 900 V 400 H 0 Z"
     id="path3"
     style="fill:#fff8e7;fill-opacity:1;stroke-width:1.20327" /><path
     fill="#FF8D00"
     d="M 0,0 H 900 V 200 H 0 Z"
     id="path5"
     style="fill:#b59c70;fill-opacity:1;stroke-width:1.20328" /><g
     id="g57"
     transform="matrix(0.70389392,0,0,0.70389392,300.07151,236.57862)"
     inkscape:label="sun"><g
       id="sun"
       style="fill:none;fill-opacity:1;stroke:none;stroke-width:1.70249;stroke-dasharray:none"
       transform="matrix(0.89079596,0.59931841,-0.59933281,0.89081737,68.448593,-210.56224)"
       inkscape:label="lights"><path
         id="path1-0"
         d="m 161.07119,117.31343 1.58064,-86.247538 -7.64012,-0.0299 1.47133,86.277388 z"
         style="fill:#ffb81c;fill-opacity:1;stroke:#000000;stroke-width:1.70249;stroke-dasharray:none;stroke-opacity:1"
         transform="translate(82.691896,2.9184796)" /><path
         id="path2-8"
         d="m 168.96801,51.483322 -12.4375,65.363288 4.49219,0.93359 14.79101,-65.103518 z"
         style="fill:#ffb81c;fill-opacity:1;stroke:#000000;stroke-width:1.70249;stroke-dasharray:none;stroke-opacity:1"
         transform="translate(82.691896,2.9184796)" /><path
         id="path3-5"
         d="m 160.88092,118.22819 35.84067,-78.463898 -6.99455,-3.07387 -33.05373,79.708248 z"
         style="fill:#ffb81c;fill-opacity:1;stroke:#000000;stroke-width:1.70249;stroke-dasharray:none;stroke-opacity:1"
         transform="translate(82.691896,2.9184796)" /><path
         id="path4-8"
         d="m 195.218,59.767 -38.314,56.22218 3.74565,2.64844 L 200.958,63.786 Z"
         style="fill:#ffb81c;fill-opacity:1;stroke:#000000;stroke-width:1.70249;stroke-dasharray:none;stroke-opacity:1"
         transform="translate(82.691896,2.9184796)" /><path
         id="path5-0"
         d="m 160.34167,118.99121 64.15545,-57.664678 -5.18872,-5.60799 -62.09584,59.917108 z"
         style="fill:#ffb81c;fill-opacity:1;stroke:#000000;stroke-width:1.70249;stroke-dasharray:none;stroke-opacity:1"
         transform="translate(82.691896,2.9184796)" /><path
         id="path6-2"
         d="m 214.97919,79.172522 -57.39204,36.179948 2.38086,3.92187 58.61313,-34.113348 z"
         style="fill:#ffb81c;fill-opacity:1;stroke:#000000;stroke-width:1.70249;stroke-dasharray:none;stroke-opacity:1"
         transform="translate(82.691896,2.9184796)" /><path
         id="path7-1"
         d="m 159.54289,119.47592 84.16991,-28.081338 -2.55101,-7.29428 -83.15045,31.050638 z"
         style="fill:#ffb81c;fill-opacity:1;stroke:#000000;stroke-width:1.70249;stroke-dasharray:none;stroke-opacity:1"
         transform="translate(82.691896,2.9184796)" /><path
         id="path8-0"
         d="m 230.23559,104.02434 -71.76758,11.01563 0.61914,4.54687 72.28516,-8.49219 z"
         style="fill:#ffb81c;fill-opacity:1;stroke:#000000;stroke-width:1.70249;stroke-dasharray:none;stroke-opacity:1"
         transform="translate(82.691896,2.9184796)" /><path
         id="path9"
         d="M 148.66527,51.450122 141.816,52.624 l 14.715,65.1562 4.492,-0.9332 z"
         style="fill:#ffb81c;fill-opacity:1;stroke:#000000;stroke-width:1.70249;stroke-dasharray:none;stroke-opacity:1"
         transform="translate(82.691896,2.9184796)" /><path
         id="path10"
         d="m 160.88092,116.39867 -32.94158,-79.724458 -7.01836,3.01912 35.75233,78.534858 z"
         style="fill:#ffb81c;fill-opacity:1;stroke:#000000;stroke-width:1.70249;stroke-dasharray:none;stroke-opacity:1"
         transform="translate(82.691896,2.9184796)" /></g><use
       x="0"
       y="0"
       xlink:href="#sun"
       id="use56"
       inkscape:transform-center-x="62.094899"
       inkscape:transform-center-y="-45.402088"
       transform="rotate(-120.27614,212.84905,40.985025)"
       inkscape:label="lights-clone" /><circle
       style="fill:#ffb81c;fill-opacity:1;stroke:#000000;stroke-width:1.828;stroke-linecap:round;stroke-linejoin:round;stroke-dasharray:none;stroke-opacity:1;paint-order:fill markers stroke"
       id="path57"
       cx="214.40361"
       cy="46.397987"
       r="37.417732"
       inkscape:label="circle" /></g><text
     xml:space="preserve"
     style="font-size:16.7108px;line-height:16.694px;font-family:'Linux Libertine';-inkscape-font-specification:'Linux Libertine';text-align:center;letter-spacing:0px;word-spacing:0px;writing-mode:lr-tb;direction:ltr;text-anchor:middle;display:none;fill:#ffb81c;fill-opacity:1;stroke:#000000;stroke-width:0.626652;stroke-linecap:round;stroke-linejoin:round;stroke-dasharray:none;stroke-opacity:1;paint-order:fill markers stroke"
     x="346.58536"
     y="286.81189"
     id="text6"><tspan
       sodipodi:role="line"
       x="0"
       y="99.000298"
       style="font-style:normal;font-variant:normal;font-weight:500;font-stretch:normal;font-size:16.7108px;line-height:16.694px;font-family:Gamaliel;-inkscape-font-specification:'Gamaliel Medium';fill:#ffb81c;fill-opacity:1;stroke:#000000;stroke-width:0.626652;stroke-dasharray:none;stroke-opacity:1"
       id="tspan7">Sapere</tspan><tspan
       sodipodi:role="line"
       x="0"
       y="99.000298"
       style="font-style:normal;font-variant:normal;font-weight:500;font-stretch:normal;font-size:16.7108px;line-height:16.694px;font-family:Gamaliel;-inkscape-font-specification:'Gamaliel Medium';fill:#ffb81c;fill-opacity:1;stroke:#000000;stroke-width:0.626652;stroke-dasharray:none;stroke-opacity:1"
       id="tspan1">aude</tspan></text><g
     id="g58"
     inkscape:label="raccoon"
     transform="matrix(1.1846785,0,0,1.1846785,308.6639,138.06047)"><g
       id="g56"
       inkscape:label="tail"
       transform="translate(-80.757751,24.548951)"><path
         style="fill:#9e958c;fill-opacity:1;stroke:none;stroke-width:2;stroke-linecap:round;stroke-linejoin:round;stroke-dasharray:none;stroke-opacity:1;paint-order:fill markers stroke"
         d="m 296.90972,29.185833 4.95785,0.09354 10.00924,5.425572 5.70621,8.699622 0.74835,11.693043 -6.36101,-3.648231 c -2.18016,-1.278878 -4.37427,-2.041824 -6.64165,-0.09354 l -6.64165,2.619242 z"
         id="path56"
         sodipodi:nodetypes="ccccccccc" /><path
         style="fill:#484742;fill-opacity:1;stroke:none;stroke-width:2;stroke-linecap:round;stroke-linejoin:round;stroke-dasharray:none;stroke-opacity:1;paint-order:fill markers stroke"
         d="m 279.13629,32.553428 10.85114,-3.835318 7.85773,-0.280633 c 5.90387,4.179407 9.72538,16.327409 5.76215,23.140304 l -7.91366,6.980971 z"
         id="path55"
         sodipodi:nodetypes="cccccc" /><path
         style="fill:#9e978b;fill-opacity:1;stroke:none;stroke-width:2;stroke-linecap:round;stroke-linejoin:round;stroke-dasharray:none;stroke-opacity:1;paint-order:fill markers stroke"
         d="m 264.73046,55.845966 4.2095,-13.751015 11.13176,-10.383422 c 10.67001,-0.558388 17.25475,18.964946 16.46381,25.537602 l -1.30961,4.30304 z"
         id="path54"
         sodipodi:nodetypes="cccccc" /><path
         style="fill:#484742;fill-opacity:1;stroke:none;stroke-width:2;stroke-linecap:round;stroke-linejoin:round;stroke-dasharray:none;stroke-opacity:1;paint-order:fill markers stroke"
         d="m 270.34312,76.893443 -4.95784,-10.383422 -0.37417,-10.383422 c 13.15652,-4.974146 22.35674,-1.282115 30.30836,5.144939 l 0.46771,7.015824 z"
         id="path53"
         sodipodi:nodetypes="cccccc" /><path
         style="fill:#9e978b;fill-opacity:1;stroke:none;stroke-width:2;stroke-linecap:round;stroke-linejoin:round;stroke-dasharray:none;stroke-opacity:1;paint-order:fill markers stroke"
         d="M 279.32337,86.247876 298.49998,73.151668 295.413,67.071287 c -9.39032,-1.956797 -17.92177,0.380796 -25.06988,9.635066 z"
         id="path52"
         sodipodi:nodetypes="ccccc" /><path
         style="fill:#484742;fill-opacity:1;stroke:none;stroke-width:2;stroke-linecap:round;stroke-linejoin:round;stroke-dasharray:none;stroke-opacity:1;paint-order:fill markers stroke"
         d="m 285.40376,95.508764 -5.8933,-9.541523 c 5.415,-10.043703 12.08014,-11.586499 18.70887,-13.376839 l 10.5705,11.973674 z"
         id="path51"
         sodipodi:nodetypes="ccccc" /><path
         style="fill:#9e978b;fill-opacity:1;stroke:none;stroke-width:2;stroke-linecap:round;stroke-linejoin:round;stroke-dasharray:none;stroke-opacity:1;paint-order:fill markers stroke"
         d="m 287.83592,100.93434 -2.15151,-6.454564 c 8.70773,-11.551441 15.8457,-10.283232 23.10542,-10.009243 l 4.02241,9.635066 0.18709,10.289881 z"
         id="path50"
         sodipodi:nodetypes="cccccc" /><path
         style="fill:#484742;fill-opacity:1;stroke:none;stroke-width:2;stroke-linecap:round;stroke-linejoin:round;stroke-dasharray:none;stroke-opacity:1;paint-order:fill markers stroke"
         d="m 305.79642,121.79472 6.08039,-9.35443 2.15151,-9.9157 C 307.27631,97.036526 299.68,93.107149 286.52628,99.437625 l -0.37417,8.606075 z"
         id="path49"
         sodipodi:nodetypes="cccccc" /><path
         style="fill:#9e978b;fill-opacity:1;stroke:none;stroke-width:2;stroke-linecap:round;stroke-linejoin:round;stroke-dasharray:none;stroke-opacity:1;paint-order:fill markers stroke"
         d="m 281.84739,113.96927 4.7625,-6.87917 c 16.18335,0.787 16.3658,9.18212 19.05,14.81667 l -13.89062,10.18646 z"
         id="path48"
         sodipodi:nodetypes="ccccc" /><path
         style="fill:#484742;fill-opacity:1;stroke:none;stroke-width:2;stroke-linecap:round;stroke-linejoin:round;stroke-dasharray:none;stroke-opacity:1;paint-order:fill markers stroke"
         d="m 275.23281,116.35052 7.87135,-4.16719 c 10.16751,5.67573 9.69556,12.06242 8.7974,19.31459 l -9.12813,2.57968 -7.73906,-0.79375 z"
         id="path47"
         sodipodi:nodetypes="cccccc" /><path
         style="fill:#9e958c;fill-opacity:1;stroke:none;stroke-width:2;stroke-linecap:round;stroke-linejoin:round;stroke-dasharray:none;stroke-opacity:1;paint-order:fill markers stroke"
         d="m 267.72388,116.74333 -1.49672,13.37684 10.28988,2.99342 c 4.7896,-5.78382 3.41217,-11.39633 -0.74834,-16.93153 z"
         id="path44"
         sodipodi:nodetypes="ccccc" /><path
         style="fill:#484742;fill-opacity:1;stroke:none;stroke-width:2;stroke-linecap:round;stroke-linejoin:round;stroke-dasharray:none;stroke-opacity:1;paint-order:fill markers stroke"
         d="m 256.21793,112.62738 1.49671,13.0962 10.28988,5.14494 c 4.30704,-4.43945 3.33034,-9.28534 1.21608,-14.21874 z"
         id="path43"
         sodipodi:nodetypes="ccccc" /><path
         style="fill:none;fill-opacity:1;stroke:#000000;stroke-width:2;stroke-linecap:round;stroke-linejoin:round;stroke-dasharray:none;stroke-opacity:1;paint-order:fill markers stroke"
         d="m 251.07299,109.44687 c 0,0 15.27612,9.01195 23.19898,7.29646 5.56789,-1.20559 11.53569,-5.84039 12.72205,-11.41241 3.46224,-16.26138 -17.32299,-23.444012 -20.76685,-37.230645 -6.35201,-25.428705 13.46431,-36.247538 17.77343,-37.604824 9.46062,-2.979903 19.92299,-2.947521 29.18581,5.799752 6.8799,6.496978 4.86432,19.45722 4.86432,19.45722 0,0 -6.14025,-7.228358 -11.97367,-5.425572 -5.53861,1.711676 -10.51915,6.548541 -11.22533,11.973675 -1.64594,12.644821 15.70221,16.139126 18.1476,33.67596 1.99242,14.288464 -5.37967,24.746494 -14.59291,31.992164 -6.48934,5.10348 -16.14483,5.81676 -24.32153,4.67722 -8.16211,-1.1375 -22.07646,-11.12903 -22.07646,-11.12903 z"
         id="path42"
         sodipodi:nodetypes="casaascsasaacc"
         inkscape:label="tail-stroke" /></g><g
       id="g14"
       inkscape:label="jian"
       style="display:inline"
       transform="translate(-80.757751,24.548951)"><path
         id="path13"
         style="fill:#9e978b;fill-opacity:1;stroke:#000000;stroke-width:2.19147;stroke-linecap:round;stroke-linejoin:round;stroke-dasharray:none;stroke-opacity:1;paint-order:fill markers stroke"
         d="m 94.102266,113.96927 c -1.269677,0 -2.291849,1.02217 -2.291849,2.29185 v 21.14703 c 0,0.27657 -0.68266,2.11817 -0.682646,2.95331 -8.1e-5,2.32176 2.011899,4.20395 4.493783,4.20388 2.481886,7e-5 4.493866,-1.88212 4.493786,-4.20388 1e-5,-0.76123 -0.499715,-2.67454 -0.499715,-2.95331 v -21.14703 c 0,-1.26968 -1.022173,-2.29185 -2.29185,-2.29185 z"
         sodipodi:nodetypes="ssscccssss" /><path
         id="path12"
         style="fill:#eaeaec;fill-opacity:1;stroke:#000000;stroke-width:1.85043;stroke-linecap:round;stroke-linejoin:round;stroke-dasharray:none;stroke-opacity:1;paint-order:fill markers stroke"
         d="m 90.855906,112.12631 4.829859,-0.0683 4.829865,0.0683 C 100.34557,87.720679 102.50855,56.23558 95.685765,32.6447 88.53694,56.399141 91.156172,87.07731 90.855906,112.12631 Z"
         sodipodi:nodetypes="ccccc" /><path
         style="fill:#000000;fill-opacity:1;stroke:none;stroke-width:2.34702;stroke-linecap:square;stroke-linejoin:miter;stroke-dasharray:none;stroke-opacity:1;paint-order:fill markers stroke"
         d="m 94.996764,111.32344 c 0,0 0.0064,-53.556738 0.693524,-54.570315 0.649246,1.032715 0.672841,54.702605 0.672841,54.702605 z"
         id="path14"
         sodipodi:nodetypes="cccc" /><rect
         style="fill:#7b776e;fill-opacity:1;stroke:#000000;stroke-width:2;stroke-linecap:round;stroke-linejoin:round;stroke-dasharray:none;stroke-opacity:1;paint-order:fill markers stroke"
         id="rect13"
         width="27.969755"
         height="4.583672"
         x="81.757751"
         y="111.87902"
         ry="2.291836" /></g><g
       id="g40"
       inkscape:label="right-leg"
       transform="translate(-80.757751,24.548951)"><path
         style="fill:#9e978b;fill-opacity:1;stroke:none;stroke-width:2;stroke-linecap:round;stroke-linejoin:round;stroke-dasharray:none;stroke-opacity:1;paint-order:fill markers stroke"
         d="m 198.17292,155.60807 c 0.86746,4.7583 2.31696,9.45096 4.82864,13.52682 2.15724,3.50068 5.35527,5.79739 8.51344,8.92734 1.95962,1.94211 7.34513,3.33091 7.71637,6.72183 0.12281,1.12177 -1.08674,2.076 -2.01109,2.72332 -2.18369,1.52924 -5.01214,2.06168 -7.67028,2.26501 -2.29611,0.17563 -4.83286,-1.30517 -6.8461,-0.92604 -5.75984,1.08471 -5.72161,6.28386 -5.72161,6.28386 l 19.64531,0.33073 c 0,0 4.32255,-0.30576 8.40052,-2.71198 2.32331,-1.37088 5.16649,-2.9349 5.9862,-5.52318 1.05891,-3.34355 -2.40979,-6.89641 -2.21588,-10.28568 0.45682,-7.98498 3.62171,-15.34047 3.96874,-23.48177 z"
         id="path38"
         sodipodi:nodetypes="casaaasccsascc"
         inkscape:label="right-leg-fill" /><path
         style="fill:#494941;fill-opacity:1;stroke:none;stroke-width:2;stroke-linecap:round;stroke-linejoin:round;stroke-dasharray:none;stroke-opacity:1;paint-order:fill markers stroke"
         d="m 218.56869,182.23377 0.23151,3.21787 -3.27406,3.08696 -6.8755,1.49671 -5.75298,-0.88867 -4.2095,1.63703 -2.10474,4.16272 21.60874,0.56127 10.43019,-4.77077 2.5257,-3.83531 -0.27731,-3.29343 c 0,0 -2.37381,-0.76361 -3.58305,-0.65481 -1.10889,0.0998 -2.01251,1.15882 -3.12572,1.17733 -1.96845,0.0327 -5.59328,-1.8969 -5.59328,-1.8969 z"
         id="path40"
         sodipodi:nodetypes="cccccccccccaac"
         inkscape:label="right-feet" /><path
         style="fill:none;fill-opacity:1;stroke:#000000;stroke-width:2;stroke-linecap:round;stroke-linejoin:round;stroke-dasharray:none;stroke-opacity:1;paint-order:fill markers stroke"
         d="m 198.17292,155.60807 c 0.86746,4.7583 2.31696,9.45096 4.82864,13.52682 2.15724,3.50068 5.35527,5.79739 8.51344,8.92734 1.95962,1.94211 7.34513,3.33091 7.71637,6.72183 0.12281,1.12177 -1.08674,2.076 -2.01109,2.72332 -2.18369,1.52924 -5.01214,2.06168 -7.67028,2.26501 -2.29611,0.17563 -4.83286,-1.30517 -6.8461,-0.92604 -5.75984,1.08471 -5.72161,6.71071 -5.72161,6.71071 h 19.64531 c 0,0 4.32255,-0.40188 8.40052,-2.8081 2.32331,-1.37088 5.16649,-2.9349 5.9862,-5.52318 1.05891,-3.34355 -2.40979,-6.89641 -2.21588,-10.28568 0.45682,-7.98498 3.62171,-15.34047 3.96874,-23.48177 z"
         id="path39"
         sodipodi:nodetypes="casaaasccsascc"
         inkscape:label="right-leg-stroke" /></g><g
       id="g23"
       inkscape:label="right-arm"
       transform="translate(-80.757751,24.548951)"><g
         id="g16"
         inkscape:label="right-hand-fingures"><path
           style="fill:#4c4b46;fill-opacity:1;stroke:#000000;stroke-width:2;stroke-linecap:square;stroke-linejoin:miter;stroke-dasharray:none;stroke-opacity:1;paint-order:fill markers stroke"
           d="m 92.174218,119.69088 c -0.990256,-0.30415 -1.991378,-0.69265 -3.024824,-0.62118 -0.516722,0.0357 -1.033326,0.19317 -1.4463,0.50579 -0.412974,0.31262 -0.712838,0.78973 -0.754397,1.30602 -0.03294,0.40922 0.09621,0.82301 0.324027,1.16455 0.227818,0.34153 0.549893,0.61375 0.905907,0.8182 0.712027,0.40891 1.540797,0.54934 2.341941,0.72922 0.911062,0.20456 1.841109,0.4702 2.763635,0.3259 0.461263,-0.0722 0.912846,-0.2518 1.263026,-0.56057 0.35018,-0.30878 0.590626,-0.75384 0.603547,-1.22053 0.0096,-0.3469 -0.105239,-0.69143 -0.29586,-0.98142 -0.190621,-0.28999 -0.454278,-0.5275 -0.746543,-0.71461 -0.58453,-0.37423 -1.270686,-0.54759 -1.934159,-0.75137 z"
           id="path15"
           inkscape:path-effect="#path-effect15-3"
           inkscape:original-d="m 92.174218,119.69088 c -1.738595,-0.41086 -4.848416,-0.5556 -5.225521,1.19063 -0.31556,1.46124 2.099127,2.45545 3.571875,2.71197 1.593838,0.27761 4.321779,0.13296 4.630208,-1.4552 0.244883,-1.26095 -1.726485,-2.15198 -2.976562,-2.4474 z"
           sodipodi:nodetypes="aaaaa" /><path
           style="fill:#4c4b46;fill-opacity:1;stroke:#000000;stroke-width:2;stroke-linecap:square;stroke-linejoin:miter;stroke-dasharray:none;stroke-opacity:1;paint-order:fill markers stroke"
           d="m 92.275762,120.09265 c -0.89581,-0.31724 -1.78062,-0.73025 -2.729515,-0.78234 -0.474448,-0.026 -0.960515,0.0429 -1.38748,0.25145 -0.426965,0.20852 -0.79053,0.56443 -0.959283,1.00862 -0.174204,0.45853 -0.130037,0.98463 0.07028,1.43237 0.200315,0.44775 0.54722,0.82017 0.950241,1.09976 0.806043,0.55919 1.801492,0.7504 2.754444,0.98338 0.83326,0.20372 1.683023,0.45096 2.534333,0.34563 0.425656,-0.0527 0.845572,-0.19729 1.186709,-0.45726 0.341138,-0.25996 0.59809,-0.64108 0.66662,-1.06447 0.06086,-0.37602 -0.02871,-0.76818 -0.214357,-1.10079 -0.185647,-0.33261 -0.463018,-0.60821 -0.775947,-0.82539 -0.625856,-0.43437 -1.377925,-0.63665 -2.096042,-0.89096 z"
           id="path15-6"
           inkscape:path-effect="#path-effect15-7-6"
           inkscape:original-d="m 92.275762,120.09265 c -1.611682,-0.53946 -4.528769,-1.13124 -5.076278,0.47773 -0.55392,1.6278 2.106412,3.10016 3.774962,3.51551 1.469345,0.36575 4.029253,0.29505 4.387662,-1.1761 0.329704,-1.35333 -1.765465,-2.37502 -3.086346,-2.81714 z"
           sodipodi:nodetypes="aaaaa"
           transform="rotate(-14.426451,106.04801,127.07459)" /><path
           style="fill:#4c4b46;fill-opacity:1;stroke:#000000;stroke-width:2;stroke-linecap:square;stroke-linejoin:miter;stroke-dasharray:none;stroke-opacity:1;paint-order:fill markers stroke"
           d="m 92.431607,120.43365 c -0.898262,-0.38451 -1.774895,-0.87453 -2.74428,-0.99708 -0.484692,-0.0613 -0.988509,-0.0253 -1.44068,0.15967 -0.452172,0.18499 -0.848614,0.52775 -1.047163,0.97414 -0.214846,0.48302 -0.182606,1.05601 0.02913,1.5404 0.211737,0.4844 0.590414,0.88384 1.029541,1.17818 0.878252,0.58869 1.958358,0.76398 2.985016,1.01668 0.731143,0.17996 1.469502,0.40764 2.220512,0.35343 0.375506,-0.0271 0.750097,-0.12753 1.069548,-0.32675 0.319451,-0.19923 0.580599,-0.50198 0.694863,-0.8607 0.115527,-0.36269 0.07541,-0.76528 -0.07331,-1.11567 -0.148711,-0.35039 -0.400472,-0.65084 -0.694753,-0.89227 -0.588562,-0.48286 -1.328566,-0.73044 -2.028429,-1.03003 z"
           id="path15-6-0"
           inkscape:path-effect="#path-effect15-7-0-7"
           inkscape:original-d="m 92.431607,120.43365 c -1.6067,-0.6799 -4.617824,-1.49618 -5.232123,0.13673 -0.646102,1.71745 2.275077,3.2463 4.043688,3.73526 1.308022,0.36162 3.369208,0.74996 3.984923,-0.83402 0.462525,-1.18989 -1.528936,-2.50158 -2.796488,-3.03797 z"
           sodipodi:nodetypes="aaasa"
           transform="rotate(-26.656592,107.63101,126.81173)" /><path
           style="fill:#4c4b46;fill-opacity:1;stroke:#000000;stroke-width:2;stroke-linecap:square;stroke-linejoin:miter;stroke-dasharray:none;stroke-opacity:1;paint-order:fill markers stroke"
           d="m 92.214228,120.23379 c -0.84682,-0.41712 -1.720978,-0.84719 -2.663415,-0.9011 -0.471218,-0.0269 -0.953411,0.0449 -1.378003,0.25103 -0.424591,0.20614 -0.787887,0.55263 -0.973326,0.98666 -0.203902,0.47725 -0.18091,1.03564 0.01318,1.51696 0.194088,0.48132 0.549213,0.8878 0.970036,1.19153 0.841644,0.60746 1.902421,0.80428 2.924581,0.98472 0.616645,0.10886 1.247447,0.21773 1.865443,0.11684 0.308998,-0.0504 0.611738,-0.15451 0.873264,-0.32664 0.261525,-0.17214 0.480443,-0.41457 0.602489,-0.70289 0.138157,-0.32638 0.146729,-0.70028 0.05393,-1.04233 -0.0928,-0.34206 -0.282772,-0.65318 -0.521479,-0.91516 -0.477413,-0.52396 -1.130816,-0.8464 -1.766699,-1.15962 z"
           id="path15-6-0-0"
           inkscape:path-effect="#path-effect15-7-0-5-5"
           inkscape:original-d="m 92.214228,120.23379 c -1.515095,-0.71502 -4.448027,-1.23999 -5.014744,0.33659 -0.606276,1.68663 2.169141,3.25803 3.907794,3.69321 1.119987,0.28033 2.725481,0.67129 3.341196,-0.91269 0.462525,-1.18989 -1.078146,-2.57151 -2.234246,-3.11711 z"
           sodipodi:nodetypes="aaasa"
           transform="rotate(-41.825937,107.34474,126.08198)" /></g><path
         style="display:inline;fill:#7b776e;fill-opacity:1;stroke:none;stroke-width:2;stroke-linecap:square;stroke-linejoin:miter;stroke-dasharray:none;stroke-opacity:1;paint-order:fill markers stroke"
         d="m 98.486132,119.24965 c -1.969296,0.32523 -2.917861,3.05722 -3.258001,5.024 -0.264862,1.5315 -0.300828,3.81534 1.075759,4.5369 0.948792,0.49732 2.993418,-1.16931 2.993418,-1.16931 l 0.205733,7.0626 c 0,0 2.843819,-0.0913 4.018099,0.58145 9.34054,5.35088 29.72428,19.24502 41.45477,13.73045 7.06367,-3.32067 -11.49363,-26.75321 -16.78529,-25.32303 -1.86153,0.9166 -4.0635,2.77306 -9.9308,3.52559 -3.00237,0.38508 -10.2809,-1.12776 -12.86843,-2.51879 -1.45688,-3.86962 -4.01218,-5.92764 -6.905258,-5.44986 z"
         id="path17"
         sodipodi:nodetypes="aaaccsscsca"
         inkscape:label="right-arm-fill" /><path
         style="fill:#4c4b46;fill-opacity:1;stroke:none;stroke-width:2;stroke-linecap:square;stroke-linejoin:round;stroke-dasharray:none;stroke-opacity:1;paint-order:fill markers stroke"
         d="m 104.90997,123.89947 -2.80633,-3.88209 -3.788547,-0.65481 -2.525696,2.38538 -0.09354,6.12715 1.637025,1.02899 h 1.824114 l 0.280633,6.03361 2.946641,0.0468 c 0,0 3.63031,-0.7045 4.77076,-3.64823 1.4143,-3.65058 -0.70825,-6.2987 -2.24506,-7.43677 z"
         id="path22"
         inkscape:label="right-hand-fill"
         sodipodi:nodetypes="cccccccccsc" /><path
         style="display:inline;fill:none;fill-opacity:1;stroke:#000000;stroke-width:2;stroke-linecap:square;stroke-linejoin:round;stroke-dasharray:none;stroke-opacity:1;paint-order:fill markers stroke"
         d="m 98.486132,119.24965 c -1.969296,0.32523 -2.917861,3.05722 -3.258001,5.024 -0.264862,1.5315 -0.300828,3.81534 1.075759,4.5369 0.948792,0.49732 2.993418,-1.16931 2.993418,-1.16931 l 0.205733,7.0626 c 0,0 2.843819,-0.0913 4.018099,0.58145 9.34054,5.35088 29.72428,19.24502 41.45477,13.73045 7.06367,-3.32067 -11.49363,-26.75321 -16.78529,-25.32303 -1.86153,0.9166 -4.0635,2.77306 -9.9308,3.52559 -3.00237,0.38508 -10.2809,-1.12776 -12.86843,-2.51879 -1.45688,-3.86962 -4.01218,-5.92764 -6.905258,-5.44986 z"
         id="path18"
         sodipodi:nodetypes="aaaccsscsca"
         inkscape:label="right-arm-stroke" /></g><path
       style="display:inline;fill:#eaeaec;fill-opacity:1;stroke:#000000;stroke-width:2;stroke-linecap:square;stroke-linejoin:round;stroke-dasharray:none;stroke-opacity:1;paint-order:fill markers stroke"
       d="m 47.678619,128.75734 c 0,0 -4.39659,22.26355 4.30304,36.01457 8.69962,13.75101 21.79583,18.9895 21.79583,18.9895 l 24.13444,-60.61674 z"
       id="path23"
       inkscape:label="front-white" /><g
       id="g34"
       inkscape:label="body"
       transform="translate(-80.757751,24.548951)"><path
         style="fill:#9e978b;fill-opacity:1;stroke:none;stroke-width:2;stroke-linecap:round;stroke-linejoin:round;stroke-dasharray:none;stroke-opacity:1;paint-order:fill markers stroke"
         d="m 265.24479,135.73125 c -0.16139,-7.97256 -2.41794,-15.8935 -6.48229,-22.75417 -4.26366,-7.1971 -10.50844,-13.205335 -17.85938,-17.197915 -5.53492,-3.006226 -11.64535,-4.869491 -17.85938,-5.898327 -7.39261,-1.22397 -15.12517,-1.260266 -22.225,1.135828 -2.3546,0.794645 -4.61554,1.847534 -6.96931,2.644633 -2.35377,0.7971 -4.84884,1.338649 -7.31819,1.059533 -2.08552,-0.235731 -4.06928,-1.046312 -6.14832,-1.333589 -1.03953,-0.143638 -2.10974,-0.153282 -3.1267,0.105597 -1.01697,0.258879 -1.98039,0.801667 -2.63122,1.624867 -0.6436,0.814052 -0.94782,1.849431 -1.08242,2.878405 -0.13459,1.028974 -0.11361,2.071408 -0.18295,3.106828 -0.26786,3.99959 -1.88874,7.82073 -4.11681,11.15302 -2.22807,3.33229 -5.05112,6.22115 -7.94718,8.99267 -1.6416,1.571 -3.31878,3.11818 -4.74179,4.8896 -1.42301,1.77142 -2.59443,3.7949 -3.06892,6.01701 -0.6656,3.11713 0.1144,6.4523 1.81985,9.14506 1.70546,2.69276 4.28036,4.7691 7.13522,6.1866 5.70971,2.83501 12.30356,3.08232 18.66729,3.45789 16.42026,0.96907 33.01735,3.14228 49.2125,0.26458 12.65984,-2.24952 24.75523,-7.60997 34.925,-15.47812 z"
         id="path31"
         inkscape:path-effect="#path-effect32-3"
         inkscape:original-d="m 265.24479,135.73125 c 0,0 -0.52917,-16.97743 -6.48229,-22.75417 -5.95313,-5.77673 -12.03854,-15.169441 -17.85938,-17.197915 -5.82083,-2.028473 -10.45104,-6.16291 -17.85938,-5.898327 -7.40833,0.264583 -17.4184,-0.363479 -22.225,1.135828 -4.80659,1.499306 -10.36284,4.982984 -14.2875,3.704166 -3.92465,-1.278819 -8.06978,1.5875 -11.90624,0.396875 -3.83646,-1.190625 -0.0747,2.898419 -1.26537,5.985233 -1.19062,3.0868 -6.40716,15.90519 -12.06399,20.14569 -3.64211,2.73021 -6.35551,6.49689 -7.81071,10.90661 -1.45521,4.40973 19.42028,13.36559 27.62236,18.78955 8.20208,5.42396 32.76424,0.22049 49.2125,0.26458 16.44826,0.0441 34.925,-15.47812 34.925,-15.47812 z"
         sodipodi:nodetypes="cssssscsssssc"
         inkscape:label="back-fill" /><path
         style="fill:none;fill-opacity:1;stroke:#000000;stroke-width:2;stroke-linecap:round;stroke-linejoin:round;stroke-dasharray:none;stroke-opacity:1;paint-order:fill markers stroke"
         d="m 175.02187,91.148957 c 3.28654,2.442104 7.41767,3.724177 11.50937,3.571875 4.93302,-0.183618 9.54149,-2.346317 14.2875,-3.704166 7.18746,-2.056354 14.83574,-2.270245 22.225,-1.135828 6.22837,0.956193 12.33308,2.870632 17.85938,5.898327 7.33473,4.018485 13.58788,10.007585 17.85938,17.197915 4.07314,6.85643 6.3306,14.78058 6.48229,22.75417"
         id="path32"
         inkscape:path-effect="#path-effect34-5"
         inkscape:original-d="m 175.02187,91.148957 c 3.92465,1.278819 7.58472,2.293056 11.50937,3.571875 3.92466,1.278818 9.48091,-2.20486 14.2875,-3.704166 4.8066,-1.499307 14.81667,-0.871245 22.225,-1.135828 7.40834,-0.264583 12.03855,3.869854 17.85938,5.898327 5.82084,2.028474 11.90625,11.421185 17.85938,17.197915 5.95312,5.77674 4.32152,15.21354 6.48229,22.75417"
         sodipodi:nodetypes="csssssc"
         inkscape:label="back-stroke" /><path
         style="fill:#e9e9e7;fill-opacity:1;stroke:none;stroke-width:2;stroke-linecap:round;stroke-linejoin:round;stroke-dasharray:none;stroke-opacity:1;paint-order:fill markers stroke"
         d="m 177.93229,148.9712 c 0,0 7.69253,-2.80614 11.71389,-2.89907 3.86793,-0.0894 7.52347,2.00586 11.38374,2.26501 2.97141,0.19949 6.16922,0.59194 8.91696,-0.55656 2.01949,-0.84411 4.89536,-4.37641 4.89536,-4.37641 l 6.68016,18.33318 -2.97657,0.92604 -5.29166,0.92604 -23.8125,-4.43177 -12.96459,0.52917 z"
         id="path41"
         sodipodi:nodetypes="caaaccccccc"
         inkscape:label="bottom-fill" /><path
         style="fill:none;fill-opacity:1;stroke:#000000;stroke-width:2;stroke-linecap:round;stroke-linejoin:round;stroke-dasharray:none;stroke-opacity:1;paint-order:fill markers stroke"
         d="m 173.71183,161.79685 c 3.94688,-2.74337 8.75753,-4.22397 13.56393,-4.17465 5.59354,0.0574 10.94334,2.10483 16.37025,3.46114 4.49011,1.12218 9.16968,1.77961 13.75102,1.12253 6.33383,-0.90844 12.25452,-4.41954 16.08963,-9.54152"
         id="path41-7"
         inkscape:path-effect="#path-effect41-2-6"
         inkscape:original-d="m 173.71183,161.79685 c 2.30743,-1.46553 8.83813,-3.96134 13.56393,-4.17465 5.57171,-0.2515 10.9135,2.30743 16.37025,3.46114 5.45676,1.15372 9.10499,0.68599 13.75102,1.12253 4.64604,0.43654 10.7576,-6.29865 16.08963,-9.54152"
         sodipodi:nodetypes="cassc"
         inkscape:label="bottom-stroke"
         transform="translate(-1.5264134,1.0002333)" /></g><g
       id="g12"
       inkscape:label="raccoon-head"
       style="display:inline"
       transform="translate(-80.757751,24.548951)"><path
         id="path25"
         style="display:inline;fill:#9e978b;fill-opacity:1;stroke:none;stroke-width:2;stroke-dasharray:none;stroke-opacity:1;paint-order:fill markers stroke"
         d="m 120.95437,59.999955 c -0.96645,0.0055 -1.83046,0.206168 -2.52749,0.663526 -5.35445,3.513351 -0.67727,16.926762 2.84427,20.644218 -4.06949,8.716483 -7.20203,10.954839 -9.38341,11.90935 1.06134,1.214606 4.12264,2.662232 5.74591,2.990515 -0.79439,0.9981 -3.17922,1.80598 -4.75165,2.117184 0.99305,1.200811 5.6857,4.446522 9.16946,5.980512 4.78683,2.10777 11.50776,3.93706 13.68702,5.05086 2.35067,1.20141 6.64984,5.74987 11.25617,5.33094 4.60632,0.41893 8.90549,-4.12953 11.25616,-5.33094 2.17926,-1.1138 8.90019,-2.94309 13.68702,-5.05086 3.48376,-1.53399 8.17641,-4.779701 9.16946,-5.980512 -1.57243,-0.311204 -3.95726,-1.119084 -4.75165,-2.117184 1.62327,-0.328283 4.68457,-1.775909 5.74591,-2.990515 -2.18138,-0.954511 -5.31392,-3.192867 -9.38341,-11.90935 3.52154,-3.717456 8.19872,-17.130867 2.84427,-20.644218 -4.46097,-2.927092 -15.75343,4.659443 -17.06821,6.645072 -2.55443,-0.878199 -6.95073,-2.279914 -11.49955,-1.021126 -4.54883,-1.258788 -8.94513,0.142927 -11.49956,1.021126 -1.10935,-1.675374 -9.32184,-7.338156 -14.54072,-7.308598 z"
         inkscape:label="head-fill (base)" /><g
         id="g7"
         inkscape:label="face-white"><path
           style="fill:#eaeaec;fill-opacity:1;stroke:none;stroke-width:2;stroke-linecap:round;stroke-linejoin:round;stroke-dasharray:none;stroke-opacity:1;paint-order:fill markers stroke"
           d="m 114.76302,91.810416 c 0,0 1.1301,0.895555 5.58933,-2.678906 4.16718,-3.340366 5.40502,-6.310578 10.6164,-8.202084 4.02251,-1.459997 7.16057,0.185661 7.60476,0.38501 -0.0935,-0.628742 0.0551,-2.489442 1.57712,-3.032849 1.8625,-0.664968 5.1564,2.100961 4.4288,7.326482 -0.72761,5.225521 -2.03378,4.864413 -2.69524,6.253475 -0.66146,1.389063 2.52913,3.142685 2.77307,6.380722 0.28029,3.720564 -1.8812,6.076014 -1.8812,6.076014 l 4.59686,3.96245 -0.19844,6.28385 -4.69636,-0.33073 -6.41614,-4.63021 -17.79323,-6.74687 -4.43177,-3.770313 2.64583,-2.645833 -4.03489,-3.108854 z"
           id="path7"
           sodipodi:nodetypes="csscsssscccccccccc"
           inkscape:label="face-white-left" /><use
           x="0"
           y="0"
           xlink:href="#path7"
           id="use7"
           transform="matrix(-1,0,0,1,293.85308,-0.01653646)"
           inkscape:label="face-white-right" /></g><g
         id="g10"
         inkscape:label="face-dark"><use
           x="0"
           y="0"
           xlink:href="#path8"
           id="use8"
           transform="matrix(-1,0,0,1,294.20773,0)"
           inkscape:label="face-dark-right" /><path
           style="fill:#484742;fill-opacity:1;stroke:none;stroke-width:2;stroke-linecap:round;stroke-linejoin:round;stroke-dasharray:none;stroke-opacity:1;paint-order:fill markers stroke"
           d="m 118.94162,102.66491 c 0,0 4.26132,-9.964385 11.88013,-15.621908 2.362,-1.753956 9.62452,-5.031327 13.09621,0.608039 2.53161,4.112316 -1.90113,8.832143 -5.82313,11.809973 -5.07748,3.855136 -2.1719,10.266116 -2.22169,10.079396 z"
           id="path8"
           sodipodi:nodetypes="cssscc"
           inkscape:label="face-dark-left" /></g><g
         id="g9"
         inkscape:label="eyes"><g
           id="g20"
           inkscape:label="eye-left (human left)"><circle
             style="fill:#000000;stroke:#eaeaec;stroke-width:0.5;stroke-linecap:round;stroke-linejoin:round;stroke-dasharray:none;stroke-opacity:1;paint-order:fill markers stroke"
             id="path19"
             cx="137.14725"
             cy="90.951286"
             r="3.2013826" /><circle
             style="fill:#ffffff;stroke:none;stroke-width:8.73125;stroke-linecap:round;stroke-linejoin:round;paint-order:fill markers stroke"
             id="path20"
             cx="136.18681"
             cy="89.958855"
             r="1.0884702" /></g><use
           x="0"
           y="0"
           xlink:href="#g20"
           id="use20"
           inkscape:label="eye-right (human right)"
           transform="translate(19.611183)" /></g><path
         style="fill:#000000;stroke:none;stroke-width:8.73125;stroke-linecap:round;stroke-linejoin:round;paint-order:fill markers stroke"
         d="m 147.03952,101.13168 c -2.76518,-0.0244 -4.90885,0.91559 -5.12222,3.0093 -0.21337,2.09371 1.0977,4.55733 4.99416,4.60999 3.89646,0.0527 5.1883,-2.31565 5.02617,-4.4179 -0.16213,-2.10225 -2.13294,-3.17699 -4.89811,-3.20139 z"
         id="path21"
         sodipodi:nodetypes="zzzzz"
         inkscape:label="nose" /><path
         id="path24"
         style="fill:#1a1a1a;stroke:none;stroke-width:8.73125;stroke-linecap:round;stroke-linejoin:round;paint-order:fill markers stroke"
         d="m 146.99154,109.47135 c -1.32857,0.86437 -3.24137,1.1923 -4.16977,0.69609 -0.9284,-0.49621 -1.80082,0.96835 -0.3762,1.5446 1.42461,0.57625 3.21147,0.36597 4.54339,-0.56017 0.001,-0.001 0.002,-0.003 0.004,-0.004 10e-4,0.001 0.002,0.003 0.004,0.004 1.33192,0.92614 3.11878,1.13642 4.54339,0.56017 1.42462,-0.57625 0.55219,-2.04081 -0.37621,-1.5446 -0.9284,0.49621 -2.8412,0.16828 -4.16977,-0.69609 0,0 -5.1e-4,0.001 -0.001,0.003 -5.2e-4,-0.002 -5.2e-4,-0.003 -5.2e-4,-0.003 z"
         inkscape:label="mouth" /><path
         id="path6"
         style="display:inline;fill:none;fill-opacity:1;stroke:#000000;stroke-width:2;stroke-linecap:round;stroke-linejoin:round;stroke-dasharray:none;stroke-opacity:1;paint-order:fill markers stroke"
         d="m 120.95437,59.999955 c -0.96645,0.0055 -1.83046,0.206168 -2.52749,0.663526 -5.35445,3.513351 -0.67727,16.926762 2.84427,20.644218 -4.06949,8.716483 -7.20203,10.954839 -9.38341,11.90935 1.06134,1.214606 4.12264,2.662232 5.74591,2.990515 -0.79439,0.9981 -3.17922,1.80598 -4.75165,2.117184 0.99305,1.200811 5.6857,4.446522 9.16946,5.980512 4.78683,2.10777 11.50776,3.93706 13.68702,5.05086 2.35067,1.20141 6.64984,5.74987 11.25617,5.33094 4.60632,0.41893 8.90549,-4.12953 11.25616,-5.33094 2.17926,-1.1138 8.90019,-2.94309 13.68702,-5.05086 3.48376,-1.53399 8.17641,-4.779701 9.16946,-5.980512 -1.57243,-0.311204 -3.95726,-1.119084 -4.75165,-2.117184 1.62327,-0.328283 4.68457,-1.775909 5.74591,-2.990515 -2.18138,-0.954511 -5.31392,-3.192867 -9.38341,-11.90935 3.52154,-3.717456 8.19872,-17.130867 2.84427,-20.644218 -4.46097,-2.927092 -15.75343,4.659443 -17.06821,6.645072 -2.55443,-0.878199 -6.95073,-2.279914 -11.49955,-1.021126 -4.54883,-1.258788 -8.94513,0.142927 -11.49956,1.021126 -1.10935,-1.675374 -9.32184,-7.338156 -14.54072,-7.308598 z"
         inkscape:label="head-stroke (duplicate)" /><g
         id="g11"
         inkscape:label="ears"><g
           id="g5"
           inkscape:label="ear-left"><path
             style="fill:#494844;fill-opacity:1;stroke:none;stroke-width:2;stroke-linecap:round;stroke-linejoin:round;stroke-dasharray:none;stroke-opacity:1;paint-order:fill markers stroke"
             d="m 129.57969,70.742968 c 0,0 -6.14939,-9.595459 -9.98802,-6.58151 -3.17501,2.492899 1.45521,13.036897 2.97656,14.651301 2.08516,-2.773928 3.69652,-5.705789 7.01146,-8.069791 z"
             id="path5-9"
             sodipodi:nodetypes="cscc"
             inkscape:label="ear-fill" /><path
             style="fill:none;fill-opacity:1;stroke:#000000;stroke-width:2;stroke-linecap:round;stroke-linejoin:round;stroke-dasharray:none;stroke-opacity:1;paint-order:fill markers stroke"
             d="m 120.11093,83.72218 c 3.0756,-6.476115 6.29492,-10.509201 9.63506,-12.488169 -1.77711,-3.87263 -4.368,-6.50149 -8.26165,-7.585117"
             id="path4-1"
             sodipodi:nodetypes="ccc"
             inkscape:label="ear-stroke" /></g><use
           x="0"
           y="0"
           xlink:href="#g5"
           id="use5"
           inkscape:label="ear-right"
           transform="matrix(-1,0,0,1,293.95635,0)" /></g></g><g
       id="g28"
       inkscape:label="left-arm"
       transform="translate(-80.757751,24.548951)"><path
         style="display:inline;fill:#9e958c;fill-opacity:1;stroke:none;stroke-width:2;stroke-linecap:round;stroke-linejoin:round;stroke-dasharray:none;stroke-opacity:1;paint-order:fill markers stroke"
         d="m 184.28234,139.19397 c 0,0 1.02899,13.65747 -8.32545,25.81824 -9.35443,12.16076 -21.98292,22.07646 -21.98292,22.07646 0,0 -4.45348,5.20179 -6.12715,6.8755 -1.6838,1.68386 -4.16272,1.59026 -4.16272,1.59026 h -18.38146 c 0,0 0.28063,-6.08039 6.12715,-6.54811 2.75708,-0.22056 5.61266,1.07576 8.04481,-0.23386 2.43215,-1.30962 3.42592,-2.95307 4.30304,-4.95785 2.8166,-6.43774 5.41338,-11.06536 5.98684,-20.60909 0.49377,-8.21761 -2.33943,-13.80432 -1.40317,-21.76649 1.47436,-12.53829 12.45178,-19.76622 12.45178,-19.76622"
         id="path26"
         sodipodi:nodetypes="cssccscssssc"
         inkscape:label="left-arm-fill" /><path
         style="fill:#4a4943;fill-opacity:1;stroke:none;stroke-width:2;stroke-linecap:round;stroke-linejoin:round;stroke-dasharray:none;stroke-opacity:1;paint-order:fill markers stroke"
         d="m 151.0741,190.2224 c -0.64339,2.17538 -2.38928,3.99326 -4.5369,4.72399 l -20.95393,0.37418 c 0.0542,-1.80062 1.0017,-3.55268 2.47892,-4.58368 0.8462,-0.59059 1.8405,-0.94681 2.85536,-1.13366 1.01487,-0.18684 2.05334,-0.20966 3.08471,-0.17596 0.89829,0.0293 1.79728,0.10112 2.69472,0.0521 0.89743,-0.049 1.80404,-0.22512 2.59053,-0.66013 0.80504,-0.44527 1.44329,-1.13712 2.02515,-1.84972 0.58186,-0.71259 1.12708,-1.46291 1.81017,-2.07915 0.74384,-0.67104 1.65057,-1.17208 2.62994,-1.38284 0.97937,-0.21076 2.03071,-0.12203 2.93595,0.30708 1.12143,0.53159 1.96943,1.56819 2.36884,2.74321 0.39941,1.17502 0.36852,2.47449 0.0165,3.66458 z"
         id="path28"
         inkscape:path-effect="#path-effect28-2"
         inkscape:original-d="m 151.0741,190.2224 c 0.79513,2.13593 -4.5369,4.72399 -4.5369,4.72399 l -20.95393,0.37418 c 0,0 1.6682,-3.07137 2.47892,-4.58368 0.81072,-1.5123 3.91327,-0.84189 5.94007,-1.30962 2.02679,-0.46772 3.55468,-0.42095 5.28525,-0.60803 1.73057,-0.18709 2.57247,-2.61925 3.83532,-3.92887 1.26285,-1.30962 3.695,-0.71717 5.56589,-1.07576 1.87088,-0.35858 1.59025,4.27186 2.38538,6.40779 z"
         sodipodi:nodetypes="sccssssss"
         inkscape:label="left-hand-fill" /><path
         style="display:inline;fill:none;fill-opacity:1;stroke:#000000;stroke-width:2;stroke-linecap:round;stroke-linejoin:round;stroke-dasharray:none;stroke-opacity:1;paint-order:fill markers stroke"
         d="m 184.28234,139.19397 c 0,0 1.02899,13.65747 -8.32545,25.81824 -9.35443,12.16076 -21.98292,22.07646 -21.98292,22.07646 0,0 -4.45348,5.20179 -6.12715,6.8755 -1.6838,1.68386 -4.16272,1.59026 -4.16272,1.59026 h -18.38146 c 0,0 0.28063,-6.08039 6.12715,-6.54811 2.75708,-0.22056 5.61266,1.07576 8.04481,-0.23386 2.43215,-1.30962 3.42592,-2.95307 4.30304,-4.95785 2.8166,-6.43774 5.41338,-11.06536 5.98684,-20.60909 0.49377,-8.21761 -2.33943,-13.80432 -1.40317,-21.76649 1.47436,-12.53829 12.45178,-19.76622 12.45178,-19.76622"
         id="path27"
         sodipodi:nodetypes="cssccscssssc"
         inkscape:label="left-arm-stroke" /></g><g
       id="g37"
       inkscape:label="left-leg"
       transform="translate(-80.757751,24.548951)"><path
         style="fill:#9e978b;fill-opacity:1;stroke:none;stroke-width:2;stroke-linecap:round;stroke-linejoin:round;stroke-dasharray:none;stroke-opacity:1;paint-order:fill markers stroke"
         d="m 213.67864,134.46998 c -0.56927,4.29898 -0.41156,10.11344 0.95883,14.89694 1.46771,5.12322 4.16085,9.98808 7.57709,14.07842 3.60621,4.31778 8.27137,7.80309 13.19846,10.5182 4.08869,2.2531 8.69979,3.51119 13.22916,4.59714 3.58274,0.85898 8.622,0.29747 10.64948,1.91823 0.87075,0.69606 1.57615,1.82878 1.5875,2.94348 0.0189,1.8587 -1.08671,3.81037 -2.54661,4.96094 -2.51116,1.9791 -7.24399,-0.26769 -9.12879,0.45196 -5.35295,2.04386 -5.35707,6.39173 -5.35707,6.39173 h 17.81424 c 0,0 4.21809,0.0818 7.84029,-6.68842 1.6481,-3.08044 3.9812,-5.63367 4.30306,-8.91881 0.1874,-1.91279 -0.4571,-3.93492 -1.44996,-5.58056 -1.48228,-2.45685 -4.6161,-3.5219 -6.361,-5.79975 -1.73853,-2.26953 -3.35304,-4.82356 -3.92887,-7.62386 -0.62645,-3.04648 -0.32797,-6.35679 0.65481,-9.30766 1.07643,-3.23207 2.01777,-6.66136 2.35328,-10.10279 0.3648,-3.74186 -0.38885,-11.27209 -0.38885,-11.27209"
         id="path35"
         sodipodi:nodetypes="caaassaasccsaaaasac"
         inkscape:label="left-leg" /><path
         style="fill:#494941;fill-opacity:1;stroke:none;stroke-width:2;stroke-linecap:round;stroke-linejoin:round;stroke-dasharray:none;stroke-opacity:1;paint-order:fill markers stroke"
         d="m 260.21771,180.51198 c 0,0 1.19062,0.26458 2.84427,-0.26459 1.65364,-0.52916 1.71979,-3.70416 4.69635,-4.7625 2.97656,-1.05833 5.82083,1.65365 5.82083,1.65365 l -0.0661,4.0349 -6.28386,10.9802 -5.09323,2.97657 -18.12395,0.46302 0.46302,-3.24115 5.02708,-3.50573 6.87917,0.66146 3.37343,-2.11667 1.12448,-4.03489 z"
         id="path37"
         inkscape:label="left-feet" /><path
         style="fill:none;fill-opacity:1;stroke:#000000;stroke-width:2;stroke-linecap:round;stroke-linejoin:round;stroke-dasharray:none;stroke-opacity:1;paint-order:fill markers stroke"
         d="m 213.67864,134.46998 c -0.56927,4.29898 -0.41156,10.11344 0.95883,14.89694 1.46771,5.12322 4.16085,9.98808 7.57709,14.07842 3.60621,4.31778 8.27137,7.80309 13.19846,10.5182 4.08869,2.2531 8.69979,3.51119 13.22916,4.59714 3.58274,0.85898 8.622,0.29747 10.64948,1.91823 0.87075,0.69606 1.57615,1.82878 1.5875,2.94348 0.0189,1.8587 -1.08671,3.81037 -2.54661,4.96094 -2.51116,1.9791 -7.24399,-0.26769 -9.12879,0.45196 -5.35295,2.04386 -5.35707,6.72143 -5.35707,6.72143 h 17.81424 c 0,0 4.21809,-0.2479 7.84029,-7.01812 1.6481,-3.08044 3.9812,-5.63367 4.30306,-8.91881 0.1874,-1.91279 -0.4571,-3.93492 -1.44996,-5.58056 -1.48228,-2.45685 -4.6161,-3.5219 -6.361,-5.79975 -1.73853,-2.26953 -3.35304,-4.82356 -3.92887,-7.62386 -0.62645,-3.04648 -0.32797,-6.35679 0.65481,-9.30766 1.07643,-3.23207 2.01777,-6.66136 2.35328,-10.10279 0.3648,-3.74186 -0.38885,-11.27209 -0.38885,-11.27209"
         id="path36"
         sodipodi:nodetypes="caaassaasccsaaaasac"
         inkscape:label="left-leg-stroke" /></g></g></svg>
