<?xml version="1.0" encoding="UTF-8" standalone="no"?>
<svg
   width="598.08051"
   height="552.87476"
   viewBox="0 0 2.9904025 2.7643738"
   version="1.1"
   id="svg3"
   sodipodi:docname="Gazella fighting on watermelon.svg"
   xml:space="preserve"
   inkscape:version="1.4.3 (0d15f75042, 2025-12-25)"
   inkscape:export-filename="Gazella fighting on watermelon.png"
   inkscape:export-xdpi="160"
   inkscape:export-ydpi="160"
   xmlns:inkscape="http://www.inkscape.org/namespaces/inkscape"
   xmlns:sodipodi="http://sodipodi.sourceforge.net/DTD/sodipodi-0.dtd"
   xmlns:xlink="http://www.w3.org/1999/xlink"
   xmlns="http://www.w3.org/2000/svg"
   xmlns:svg="http://www.w3.org/2000/svg"><defs
     id="defs3"><filter
       id="mask-powermask-path-effect150_inverse"
       inkscape:label="filtermask-powermask-path-effect150"
       style="color-interpolation-filters:sRGB"
       height="100"
       width="100"
       x="-50"
       y="-50"><feColorMatrix
         id="mask-powermask-path-effect150_primitive1"
         values="1"
         type="saturate"
         result="fbSourceGraphic" /><feColorMatrix
         id="mask-powermask-path-effect150_primitive2"
         values="-1 0 0 0 1 0 -1 0 0 1 0 0 -1 0 1 0 0 0 1 0 "
         in="fbSourceGraphic" /></filter><mask
       maskUnits="userSpaceOnUse"
       id="mask150"><path
         style="display:inline;fill:#ffffff;fill-opacity:1;stroke:none;stroke-width:3.72808;stroke-linecap:round;stroke-linejoin:round;stroke-dasharray:none;stroke-opacity:1;paint-order:fill markers stroke"
         d="m 1652.8439,700.39184 c -2.7308,10.60857 -18.7763,60.44167 -18.7763,60.44167 0,0 -13.5825,-39.9534 -42.5497,-56.96222 -39.2991,-23.07542 -67.264,-27.94609 -166.5892,-15.53545 -29.667,3.7069 -39.1725,-6.63087 -53.2172,-6.59037 -17.8138,0.0514 -33.4462,-6.26085 -31.469,-38.71843 1.9771,-32.45758 -5.7358,-47.26855 -5.7358,-47.26855 0,0 14.653,-7.0921 21.9009,-17.87547 7.2478,-10.78338 12.5511,-30.4056 10.6066,-45.60839 C 1365.0696,517.07183 1397,505 1397,505 l 181,13.5 40,60 c 0,0 41.4883,96.07936 34.8439,121.89184 z"
         id="path150"
         sodipodi:nodetypes="scsssscsscccs"
         inkscape:label="back-stroke" /></mask><filter
       id="mask-powermask-path-effect150_inverse-3"
       inkscape:label="filtermask-powermask-path-effect150"
       style="color-interpolation-filters:sRGB"
       height="100"
       width="100"
       x="-50"
       y="-50"><feColorMatrix
         id="mask-powermask-path-effect150_primitive1-6"
         values="1"
         type="saturate"
         result="fbSourceGraphic" /><feColorMatrix
         id="mask-powermask-path-effect150_primitive2-7"
         values="-1 0 0 0 1 0 -1 0 0 1 0 0 -1 0 1 0 0 0 1 0 "
         in="fbSourceGraphic" /></filter><mask
       maskUnits="userSpaceOnUse"
       id="mask4"><rect
         style="fill:#ffffff;stroke-width:9.81939"
         id="rect5"
         width="439.46365"
         height="182.89816"
         x="1173.434"
         y="603.5611"
         transform="rotate(-3.8509776)" /></mask></defs><sodipodi:namedview
     id="namedview3"
     pagecolor="#ffffff"
     bordercolor="#000000"
     borderopacity="0.25"
     inkscape:showpageshadow="2"
     inkscape:pageopacity="0.0"
     inkscape:pagecheckerboard="0"
     inkscape:deskcolor="#d1d1d1"
     inkscape:zoom="0.68333334"
     inkscape:cx="-13.902439"
     inkscape:cy="317.56097"
     inkscape:window-width="1800"
     inkscape:window-height="1049"
     inkscape:window-x="0"
     inkscape:window-y="0"
     inkscape:window-maximized="1"
     inkscape:current-layer="svg3" /><g
     id="g138"
     inkscape:label="watermelon"
     style="display:inline"
     mask="url(#mask4)"
     transform="matrix(0.00604643,4.070073e-4,-4.070073e-4,0.00604643,-6.5766121,-2.0016585)"><circle
       style="display:inline;opacity:1;fill:#10261f;fill-opacity:1;stroke:none;stroke-width:5.12997;stroke-linecap:round;stroke-linejoin:round;stroke-dasharray:none;stroke-opacity:1;paint-order:fill markers stroke"
       id="circle120"
       r="188.62677"
       cy="714.88495"
       cx="1441.3263" /><circle
       style="display:inline;opacity:1;fill:#299041;fill-opacity:1;stroke:none;stroke-width:4.97789;stroke-linecap:round;stroke-linejoin:round;stroke-dasharray:none;stroke-opacity:1;paint-order:fill markers stroke"
       id="circle119"
       r="183.03488"
       cy="714.88495"
       cx="1441.3263" /><circle
       style="display:inline;opacity:1;fill:#dacfa2;fill-opacity:1;stroke:none;stroke-width:4.61074;stroke-linecap:round;stroke-linejoin:round;stroke-dasharray:none;stroke-opacity:1;paint-order:fill markers stroke"
       id="circle121"
       r="169.53488"
       cy="714.88495"
       cx="1441.3263" /><circle
       style="display:inline;opacity:1;fill:#cd1c23;fill-opacity:1;stroke:none;stroke-width:4.34151;stroke-linecap:round;stroke-linejoin:round;stroke-dasharray:none;stroke-opacity:1;paint-order:fill markers stroke"
       id="path119"
       r="159.63539"
       cy="714.88495"
       cx="1441.3263" /><path
       style="opacity:1;fill:#000000;fill-opacity:1;stroke:none;stroke-width:4;stroke-linecap:round;stroke-linejoin:round;stroke-dasharray:none;stroke-opacity:1;paint-order:fill markers stroke"
       d="m 1385.399,620.22103 c 0,0 -12.1132,-5.39425 -13.4576,-11.03813 -0.3928,-1.6488 0.6307,-3.73274 2.0555,-4.6508 1.5541,-1.00138 4.0319,-1.00619 5.546,0.0546 4.5578,3.19316 5.8561,15.63432 5.8561,15.63432 z"
       id="path121"
       sodipodi:nodetypes="caaac" /><use
       x="0"
       y="0"
       xlink:href="#path121"
       id="use122"
       transform="rotate(-16.232025,1518.2492,636.3862)" /><use
       x="0"
       y="0"
       xlink:href="#path121"
       id="use130"
       transform="rotate(29.884447,1432.1971,683.00568)" /><use
       x="0"
       y="0"
       xlink:href="#path121"
       id="use131"
       transform="rotate(13.885014,1323.5825,759.69558)" /><use
       x="0"
       y="0"
       xlink:href="#path121"
       id="use132"
       transform="rotate(51.027917,1436.2111,685.49127)" /><use
       x="0"
       y="0"
       xlink:href="#path121"
       id="use133"
       transform="rotate(75.205224,1441.2378,688.93195)" /><use
       x="0"
       y="0"
       xlink:href="#path121"
       id="use134"
       transform="rotate(62.646593,1409.8126,692.38495)" /><use
       x="0"
       y="0"
       xlink:href="#path121"
       id="use135"
       transform="rotate(93.72263,1445.6805,698.78051)" /><use
       x="0"
       y="0"
       xlink:href="#path121"
       id="use136"
       transform="rotate(79.757169,1418.631,701.54067)" /><use
       x="0"
       y="0"
       xlink:href="#path121"
       id="use137"
       transform="rotate(108.57552,1445.1975,707.45019)" /><use
       x="0"
       y="0"
       xlink:href="#path121"
       id="use138"
       transform="rotate(99.227542,1425.5467,701.46881)" /><use
       x="0"
       y="0"
       xlink:href="#path121"
       id="use42"
       transform="rotate(-20.990291,1403.5741,706.44191)" /><use
       x="0"
       y="0"
       xlink:href="#path121"
       id="use43"
       transform="rotate(-20.153049,1494.5486,758.707)" /><use
       x="0"
       y="0"
       xlink:href="#path121"
       id="use44"
       transform="rotate(-35.483997,1467.7425,744.66749)" /><use
       x="0"
       y="0"
       xlink:href="#path121"
       id="use45"
       transform="rotate(-36.893791,1469.4215,673.50227)" /></g><g
     id="g49"
     inkscape:label="gazelle"
     style="display:inline"
     transform="matrix(0.00470852,5.7769833e-4,-5.7769833e-4,0.00470852,-4.3983271,-3.637651)"><g
       id="g41"
       inkscape:label="right-front-leg"><path
         style="opacity:1;fill:#c58e18;fill-opacity:1;stroke:none;stroke-width:4;stroke-linecap:round;stroke-linejoin:round;stroke-dasharray:none;stroke-opacity:1;paint-order:fill markers stroke"
         d="m 1300,787.75 c 0,0 -43.5,18.375 -50.75,23.875 -7.25,5.5 -3.125,20.5 4.375,25.25 7.5,4.75 31.4634,44.31434 33.9634,46.81434 2.5,2.5 18.7777,17.64645 27.2777,20.89645 8.5,3.25 14.8839,7.16421 14.8839,7.16421 0,0 1.125,-13.5 -5.125,-20.5 -6.25,-7 -19.125,-6 -19.125,-6 0,0 -2.625,-9.625 -4,-11.125 -1.6638,-1.81503 -9.625,-6.375 -14.625,-13.125 -5,-6.75 -23.375,-28.875 -20.875,-38 1.5548,-5.67516 77.75,-14.5 77.75,-14.5"
         id="path39"
         sodipodi:nodetypes="csssscscsssc"
         inkscape:label="right-front-leg-fill" /><path
         style="opacity:1;fill:#000000;fill-opacity:1;stroke:none;stroke-width:4;stroke-linecap:round;stroke-linejoin:round;stroke-dasharray:none;stroke-opacity:1;paint-order:fill markers stroke"
         d="m 1316.9864,886.97707 -0.5304,17.85444 14.0538,6.98268 -3.3588,-17.32411 z"
         id="path41"
         inkscape:label="right-front-foot" /><path
         style="fill:#dacfa2;fill-opacity:1;stroke:none;stroke-width:4;stroke-linecap:round;stroke-linejoin:round;stroke-dasharray:none;stroke-opacity:1;paint-order:fill markers stroke"
         d="m 1267.75,819.99721 c 19.2002,-9.65297 65.1607,-13.97333 56.4901,-23.37221 l 16.6369,11.21383 z"
         id="path42-1"
         sodipodi:nodetypes="cccc" /><path
         style="opacity:1;fill:none;fill-opacity:1;stroke:#000000;stroke-width:4;stroke-linecap:round;stroke-linejoin:round;stroke-dasharray:none;stroke-opacity:1;paint-order:fill markers stroke"
         d="m 1300,787.75 c 0,0 -43.5,18.375 -50.75,23.875 -7.25,5.5 -3.125,20.5 4.375,25.25 7.5,4.75 31.4634,44.31434 33.9634,46.81434 2.5,2.5 18.7777,17.64645 27.2777,20.89645 8.5,3.25 14.8839,7.16421 14.8839,7.16421 0,0 1.125,-13.5 -5.125,-20.5 -6.25,-7 -19.125,-6 -19.125,-6 0,0 -2.625,-9.625 -4,-11.125 -1.6638,-1.81503 -9.625,-6.375 -14.625,-13.125 -5,-6.75 -23.375,-28.875 -20.875,-38 1.5548,-5.67516 77.75,-14.5 77.75,-14.5"
         id="path40"
         sodipodi:nodetypes="csssscscsssc"
         inkscape:label="right-front-leg-stroke" /></g><g
       id="g47"
       inkscape:label="left-back-leg"
       transform="matrix(0.8551611,0,0,0.8551611,206.51221,115.66539)"><path
         style="opacity:1;fill:#c58e18;fill-opacity:1;stroke:none;stroke-width:0.5;stroke-linecap:round;stroke-linejoin:round;stroke-dasharray:none;stroke-opacity:1;paint-order:fill markers stroke"
         d="m 1481.5,800.75 c 0,0 6.875,21.25 17.625,36 10.75,14.75 25.7183,27.60737 28.75,41.25 2.5,11.25 2.125,19.25 -15.125,51 -9.2732,17.0681 -28.2197,47.76256 -35.3536,52.36612 -6.3506,4.09811 -8.8964,15.13388 -8.8964,15.13388 0,0 14.5,1.25 20.75,-2 6.25,-3.25 5.8839,-15.35095 10.3839,-18.10095 4.5,-2.75 4.2411,0.35095 7.9911,-2.89905 3.75,-3.25 7.25,-25.5 26.625,-53.875 14.8192,-21.70293 25.2544,-39.63971 24.75,-43.5 -0.6063,-4.64058 -17.125,-28.25 -22.375,-51.75 -5.25,-23.5 -4.875,-50 -4.875,-50 z"
         id="path44"
         sodipodi:nodetypes="csssscsssssscc"
         inkscape:label="right-back-leg-fill" /><path
         style="opacity:1;fill:#000000;fill-opacity:1;stroke:none;stroke-width:4;stroke-linecap:round;stroke-linejoin:round;stroke-dasharray:none;stroke-opacity:1;paint-order:fill markers stroke"
         d="m 1478.25,980.4375 -10.5625,16.125 22.1875,-1.625 3.5,-6.0625 c -5.9267,-1.63252 -10.6869,-4.82026 -15.125,-8.4375 z"
         id="path46"
         sodipodi:nodetypes="ccccc"
         inkscape:label="right-back-feet" /><path
         style="opacity:1;fill:#3d2e0f;fill-opacity:1;stroke:none;stroke-width:3.37979;stroke-linecap:round;stroke-linejoin:round;stroke-dasharray:none;stroke-opacity:1;paint-order:fill markers stroke"
         d="m 1485.0126,807.07145 c 26.9944,13.82248 44.0849,32.152 58.2219,59.08597 -9.8997,-20.21319 -13.479,-75.11161 -11.3375,-80.8222 z"
         id="path47"
         sodipodi:nodetypes="cccc"
         inkscape:label="right-back-leg-light-fill" /><path
         style="fill:#000000;fill-opacity:1;stroke:none;stroke-width:4;stroke-linecap:round;stroke-linejoin:round;stroke-dasharray:none;stroke-opacity:1;paint-order:fill markers stroke"
         d="m 1545.4023,877.56931 c -0.8966,-7.55769 -6.1298,-16.31002 -6.7642,-21.80705 4.563,6.537 11.9066,18.73879 12.0661,20.54476 0.1826,2.06798 -3.783,10.19383 -6.184,14.89328 0.4955,-4.52067 1.4184,-9.10955 0.8821,-13.63099 z"
         id="use46"
         sodipodi:nodetypes="acsca"
         inkscape:label="left-back-leg-shadow" /><path
         style="display:inline;opacity:1;fill:none;fill-opacity:1;stroke:#000000;stroke-width:4;stroke-linecap:round;stroke-linejoin:round;stroke-dasharray:none;stroke-opacity:1;paint-order:fill markers stroke"
         d="m 1481.5,800.75 c 0,0 6.875,21.25 17.625,36 10.75,14.75 25.7183,27.60737 28.75,41.25 2.5,11.25 2.125,19.25 -15.125,51 -9.2732,17.0681 -28.2197,47.76256 -35.3536,52.36612 -6.3506,4.09811 -8.8964,15.13388 -8.8964,15.13388 0,0 14.5,1.25 20.75,-2 6.25,-3.25 5.8839,-15.35095 10.3839,-18.10095 4.5,-2.75 4.2411,0.35095 7.9911,-2.89905 3.75,-3.25 7.25,-25.5 26.625,-53.875 14.8192,-21.70293 25.2544,-39.63971 24.75,-43.5 -0.6063,-4.64058 -17.125,-28.25 -22.375,-51.75 -5.25,-23.5 -4.875,-50 -4.875,-50 z"
         id="path45"
         sodipodi:nodetypes="csssscsssssscc"
         inkscape:label="right-back-leg-stroke" /></g><g
       id="g43"
       inkscape:label="body"><path
         style="opacity:1;fill:#c58e18;fill-opacity:1;stroke:none;stroke-width:4;stroke-linecap:round;stroke-linejoin:round;stroke-dasharray:none;stroke-opacity:1;paint-order:fill markers stroke"
         d="m 1176.2556,728.30149 38.7208,48.57584 17.0652,-1.68546 53.7649,-2.08895 33.3012,19.21023 32.5269,7.77817 c 46.8679,2.80735 161.2236,-9.97341 161.2236,-9.97341 l 14.8376,23.37021 c 0,0 33.2481,-1.36885 63.648,-9.15416 l 7.7782,-30.75914 15.2027,15.64473 2.3628,-34.09455 -4.4375,-17.4375 -11.5625,-13.3125 -20.125,-14.5 -23.3366,-12.49094 -24.2184,-6.01041 -31.1127,-0.53033 -71.4178,7.07107 -22.4506,1.76777 -22.981,-4.24264 -13.9654,-4.41942 -14.8492,0.88388 -7.0711,-1.06066 -21.0364,0.53033 -71.0586,21.98258 -19.3075,4.0092 -29.516,1.36597 -21.9697,4.4259 z"
         id="path26"
         inkscape:label="body-fill"
         sodipodi:nodetypes="cccccccccccccccccccccccccccccc" /><path
         style="opacity:1;fill:#dacfa2;fill-opacity:1;stroke:none;stroke-width:4;stroke-linecap:round;stroke-linejoin:round;stroke-dasharray:none;stroke-opacity:1;paint-order:fill markers stroke"
         d="m 1261.1595,779.36257 c -12.0058,-0.36314 -36.5795,-0.16342 -35.2475,-12.56552 1.9735,-18.37422 32.0043,-6.15968 54.9829,-7.10236 37.4868,-1.53793 33.4398,15.29434 41.218,24.48673 7.7782,9.19239 15.026,17.32411 15.026,17.32411 l 2.9446,11.4764 -22.3471,-10.20127 -11.676,-10.13639 -11.8851,-4.01142 -13.8224,-5.73346 z"
         id="path27"
         sodipodi:nodetypes="cassccccccc"
         inkscape:label="front-light-fill" /><path
         style="opacity:1;fill:none;fill-opacity:1;stroke:#000000;stroke-width:4;stroke-linecap:round;stroke-linejoin:round;stroke-dasharray:none;stroke-opacity:1;paint-order:fill markers stroke"
         d="m 1210.8518,778.36156 c 0,0 8.5163,-5.9123 39.4421,-0.97554 31.2746,4.99244 47.4594,10.54892 67.0811,25.23898 C 1334.9914,815.81376 1356,817.5 1356,817.5"
         id="path20"
         sodipodi:nodetypes="cssc"
         inkscape:label="front-stroke" /><path
         id="path31"
         style="opacity:1;fill:#dacfa2;fill-opacity:1;stroke:none;stroke-width:4;stroke-linecap:round;stroke-linejoin:round;stroke-dasharray:none;stroke-opacity:1;paint-order:fill markers stroke"
         d="m 1496.9453,766.50391 c -16.6171,1.59099 -18.9156,9.72209 -40.4824,15.02539 -28.2014,6.93478 -30.5817,3.8894 -51.7949,6.1875 -21.2132,2.2981 -26.6936,9.90039 -26.6936,9.90039 l -2.1209,16.08593 91.0391,4.06641 46.9648,-19.58203 h 9.7149 c -8.724,-14.13974 -4.7645,-32.05581 -26.627,-31.68359 z"
         sodipodi:nodetypes="ssscccccs"
         inkscape:label="belly" /><path
         style="opacity:1;fill:none;fill-opacity:1;stroke:#000000;stroke-width:4;stroke-linecap:round;stroke-linejoin:round;stroke-dasharray:none;stroke-opacity:1;paint-order:fill markers stroke"
         d="m 1361.5948,818.14767 c 0,0 13.9742,-5.20343 27.7628,-4.14277 13.7886,1.06066 34.4843,4.62407 72.5967,2.26409 29.9338,-1.85355 51.7569,-18.95371 51.7569,-18.95371"
         id="path38"
         sodipodi:nodetypes="cssc"
         inkscape:label="belly-stroke" /><path
         style="opacity:1;fill:none;fill-opacity:1;stroke:#000000;stroke-width:4;stroke-linecap:round;stroke-linejoin:round;stroke-dasharray:none;stroke-opacity:1;paint-order:fill markers stroke"
         d="m 1181.0218,725.51544 c 0,0 13.1526,-7.31572 48.0291,-8.26799 34.8766,-0.95222 76.4238,-30.94518 135.4884,-25.69702 15.01,1.33371 25.2679,11.04834 57.0989,7.07107 106.5698,-13.31587 125.306,-11.98865 165.463,15.9099 33.5875,23.33452 32.5003,34.09621 29.6985,74.77654"
         id="path21"
         sodipodi:nodetypes="cssssc"
         inkscape:label="back-stroke" /></g><g
       id="g48"
       inkscape:label="head"
       transform="rotate(-91.909425,1314.6629,732.15816)"><g
         id="g12"
         inkscape:label="horn1"
         transform="translate(1.5)"><path
           style="opacity:1;fill:#c58e18;fill-opacity:1;stroke:#000000;stroke-width:4;stroke-linecap:square;stroke-linejoin:round;stroke-dasharray:none;stroke-opacity:1;paint-order:fill markers stroke"
           d="m 1269.5269,573.93027 c 0,0 -0.8757,-25.55258 11.3604,-46.78329 10.1729,-17.65074 26.8327,-31.03827 48.8539,-43.49548 28.5818,-16.16851 32.8708,-43.57583 32.8708,-43.57583 0,0 2.7827,29.5997 -28.3437,51.62 -28.8656,20.4209 -36.3941,30.41225 -43.9811,51.4902 -0.5579,1.55022 -1.1163,3.16041 -1.6834,4.83913 -8.2784,24.50381 -7.7948,24.83497 -7.7948,24.83497 z"
           id="path1"
           sodipodi:nodetypes="csscssscc" /><path
           style="opacity:1;fill:#c58e18;fill-opacity:1;stroke:#000000;stroke-width:3;stroke-linecap:square;stroke-linejoin:round;stroke-dasharray:none;stroke-opacity:1;paint-order:fill markers stroke"
           d="m 1349.9122,467.00488 c 1.1551,1.13901 2.1981,2.52331 4.5659,2.45854"
           id="path2"
           sodipodi:nodetypes="cc" /><path
           style="opacity:1;fill:#c58e18;fill-opacity:1;stroke:#000000;stroke-width:3;stroke-linecap:square;stroke-linejoin:round;stroke-dasharray:none;stroke-opacity:1;paint-order:fill markers stroke"
           d="m 1343.122,473.15122 c 1.7856,1.53171 3.0376,3.72965 5.9707,3.98049"
           id="path3-5"
           sodipodi:nodetypes="cc" /><path
           style="opacity:1;fill:#c58e18;fill-opacity:1;stroke:#000000;stroke-width:3;stroke-linecap:square;stroke-linejoin:round;stroke-dasharray:none;stroke-opacity:1;paint-order:fill markers stroke"
           d="m 1337.4439,479.53171 c 1.1051,1.85622 2.2716,3.64227 4.4488,4.27317"
           id="path4"
           sodipodi:nodetypes="cc" /><path
           style="opacity:1;fill:#c58e18;fill-opacity:1;stroke:#000000;stroke-width:4;stroke-linecap:square;stroke-linejoin:round;stroke-dasharray:none;stroke-opacity:1;paint-order:fill markers stroke"
           d="m 1328.0195,485.73659 c 1.2421,1.72937 1.0363,3.23012 4.9756,5.38536"
           id="path5"
           sodipodi:nodetypes="cc" /><path
           style="opacity:1;fill:#c58e18;fill-opacity:1;stroke:#000000;stroke-width:4;stroke-linecap:square;stroke-linejoin:round;stroke-dasharray:none;stroke-opacity:1;paint-order:fill markers stroke"
           d="m 1316.9561,492.6439 c 0.6486,2.73494 2.2062,4.98867 5.5024,6.32195"
           id="path6"
           sodipodi:nodetypes="cc" /><path
           style="opacity:1;fill:#c58e18;fill-opacity:1;stroke:#000000;stroke-width:4;stroke-linecap:square;stroke-linejoin:round;stroke-dasharray:none;stroke-opacity:1;paint-order:fill markers stroke"
           d="m 1304.8293,501.04552 c 3.1543,2.64588 6.1898,3.98527 9.189,4.9256 -6.9756,-2.4244 -7.3727,-3.53308 -9.189,-4.9256 z"
           id="path7"
           sodipodi:nodetypes="ccc" /><path
           style="opacity:1;fill:#c58e18;fill-opacity:1;stroke:#000000;stroke-width:4;stroke-linecap:square;stroke-linejoin:round;stroke-dasharray:none;stroke-opacity:1;paint-order:fill markers stroke"
           d="m 1295.4334,510.23446 c 1.565,1.474 3.797,3.14254 9.3959,3.72524"
           id="path8"
           sodipodi:nodetypes="cc" /><path
           style="opacity:1;fill:#c58e18;fill-opacity:1;stroke:#000000;stroke-width:4;stroke-linecap:square;stroke-linejoin:round;stroke-dasharray:none;stroke-opacity:1;paint-order:fill markers stroke"
           d="m 1285.2097,521.3688 c 4.0199,1.86148 8.5658,2.88564 12.9142,1.86263"
           id="path9"
           sodipodi:nodetypes="cc" /><path
           style="opacity:1;fill:#c58e18;fill-opacity:1;stroke:#000000;stroke-width:4;stroke-linecap:square;stroke-linejoin:round;stroke-dasharray:none;stroke-opacity:1;paint-order:fill markers stroke"
           d="m 1278.0878,533.26829 c 2.7295,2.22241 8.0076,2.97185 13.2293,2.45854"
           id="path10"
           sodipodi:nodetypes="cc" /><path
           style="opacity:1;fill:#c58e18;fill-opacity:1;stroke:#000000;stroke-width:4;stroke-linecap:square;stroke-linejoin:round;stroke-dasharray:none;stroke-opacity:1;paint-order:fill markers stroke"
           d="m 1275.4536,544.62439 c 3.7522,1.06948 8.4112,2.31634 12.9367,0.29269"
           id="path11"
           sodipodi:nodetypes="cc" /><path
           style="opacity:1;fill:#c58e18;fill-opacity:1;stroke:#000000;stroke-width:4;stroke-linecap:square;stroke-linejoin:round;stroke-dasharray:none;stroke-opacity:1;paint-order:fill markers stroke"
           d="m 1272.3513,557.26829 c 4.1742,0.19116 9.5635,-0.22998 13.4345,-2.91922"
           id="path12"
           sodipodi:nodetypes="cc" /></g><g
         id="use12"
         inkscape:label="horn1"
         transform="matrix(1.1221057,0.13859978,-0.14005074,1.1104805,-60.042061,-232.355)"><path
           style="opacity:1;fill:#c58e18;fill-opacity:1;stroke:#000000;stroke-width:4;stroke-linecap:square;stroke-linejoin:round;stroke-dasharray:none;stroke-opacity:1;paint-order:fill markers stroke"
           d="m 1269.5269,573.93027 c 0,0 -0.8757,-25.55258 11.3604,-46.78329 10.1729,-17.65074 26.8327,-31.03827 48.8539,-43.49548 28.5818,-16.16851 32.8708,-43.57583 32.8708,-43.57583 0,0 2.7827,29.5997 -28.3437,51.62 -28.8656,20.4209 -36.3941,30.41225 -43.9811,51.4902 -0.5579,1.55022 -1.1163,3.16041 -1.6834,4.83913 -8.2784,24.50381 -7.7948,24.83497 -7.7948,24.83497 z"
           id="path49"
           sodipodi:nodetypes="csscssscc" /><path
           style="opacity:1;fill:#c58e18;fill-opacity:1;stroke:#000000;stroke-width:3;stroke-linecap:square;stroke-linejoin:round;stroke-dasharray:none;stroke-opacity:1;paint-order:fill markers stroke"
           d="m 1349.9122,467.00488 c 1.1551,1.13901 2.1981,2.52331 4.5659,2.45854"
           id="path50"
           sodipodi:nodetypes="cc" /><path
           style="opacity:1;fill:#c58e18;fill-opacity:1;stroke:#000000;stroke-width:3;stroke-linecap:square;stroke-linejoin:round;stroke-dasharray:none;stroke-opacity:1;paint-order:fill markers stroke"
           d="m 1343.122,473.15122 c 1.7856,1.53171 3.0376,3.72965 5.9707,3.98049"
           id="path51"
           sodipodi:nodetypes="cc" /><path
           style="opacity:1;fill:#c58e18;fill-opacity:1;stroke:#000000;stroke-width:3;stroke-linecap:square;stroke-linejoin:round;stroke-dasharray:none;stroke-opacity:1;paint-order:fill markers stroke"
           d="m 1337.4439,479.53171 c 1.1051,1.85622 2.2716,3.64227 4.4488,4.27317"
           id="path52"
           sodipodi:nodetypes="cc" /><path
           style="opacity:1;fill:#c58e18;fill-opacity:1;stroke:#000000;stroke-width:4;stroke-linecap:square;stroke-linejoin:round;stroke-dasharray:none;stroke-opacity:1;paint-order:fill markers stroke"
           d="m 1328.0195,485.73659 c 1.2421,1.72937 1.0363,3.23012 4.9756,5.38536"
           id="path53"
           sodipodi:nodetypes="cc" /><path
           style="opacity:1;fill:#c58e18;fill-opacity:1;stroke:#000000;stroke-width:4;stroke-linecap:square;stroke-linejoin:round;stroke-dasharray:none;stroke-opacity:1;paint-order:fill markers stroke"
           d="m 1316.9561,492.6439 c 0.6486,2.73494 2.2062,4.98867 5.5024,6.32195"
           id="path54"
           sodipodi:nodetypes="cc" /><path
           style="opacity:1;fill:#c58e18;fill-opacity:1;stroke:#000000;stroke-width:4;stroke-linecap:square;stroke-linejoin:round;stroke-dasharray:none;stroke-opacity:1;paint-order:fill markers stroke"
           d="m 1304.8293,501.04552 c 3.1543,2.64588 6.1898,3.98527 9.189,4.9256 -6.9756,-2.4244 -7.3727,-3.53308 -9.189,-4.9256 z"
           id="path55"
           sodipodi:nodetypes="ccc" /><path
           style="opacity:1;fill:#c58e18;fill-opacity:1;stroke:#000000;stroke-width:4;stroke-linecap:square;stroke-linejoin:round;stroke-dasharray:none;stroke-opacity:1;paint-order:fill markers stroke"
           d="m 1295.4334,510.23446 c 1.565,1.474 3.797,3.14254 9.3959,3.72524"
           id="path56"
           sodipodi:nodetypes="cc" /><path
           style="opacity:1;fill:#c58e18;fill-opacity:1;stroke:#000000;stroke-width:4;stroke-linecap:square;stroke-linejoin:round;stroke-dasharray:none;stroke-opacity:1;paint-order:fill markers stroke"
           d="m 1285.2097,521.3688 c 4.0199,1.86148 8.5658,2.88564 12.9142,1.86263"
           id="path57"
           sodipodi:nodetypes="cc" /><path
           style="opacity:1;fill:#c58e18;fill-opacity:1;stroke:#000000;stroke-width:4;stroke-linecap:square;stroke-linejoin:round;stroke-dasharray:none;stroke-opacity:1;paint-order:fill markers stroke"
           d="m 1278.0878,533.26829 c 2.7295,2.22241 8.0076,2.97185 13.2293,2.45854"
           id="path58"
           sodipodi:nodetypes="cc" /><path
           style="opacity:1;fill:#c58e18;fill-opacity:1;stroke:#000000;stroke-width:4;stroke-linecap:square;stroke-linejoin:round;stroke-dasharray:none;stroke-opacity:1;paint-order:fill markers stroke"
           d="m 1275.4536,544.62439 c 3.7522,1.06948 8.4112,2.31634 12.9367,0.29269"
           id="path59"
           sodipodi:nodetypes="cc" /><path
           style="opacity:1;fill:#c58e18;fill-opacity:1;stroke:#000000;stroke-width:4;stroke-linecap:square;stroke-linejoin:round;stroke-dasharray:none;stroke-opacity:1;paint-order:fill markers stroke"
           d="m 1272.3513,557.26829 c 4.1742,0.19116 9.5635,-0.22998 13.4345,-2.91922"
           id="path60"
           sodipodi:nodetypes="cc" /></g><g
         id="g14"
         inkscape:label="ear"><path
           style="opacity:1;fill:#c58e18;fill-opacity:1;stroke:#000000;stroke-width:4;stroke-linecap:round;stroke-linejoin:round;stroke-dasharray:none;stroke-opacity:1;paint-order:fill markers stroke"
           d="m 1308.247,579.92592 c 0,0 13.8645,-20.44082 21.7756,-24 9.4589,-4.25551 30.0164,-13.64299 30.0164,-13.64299 0,0 -4.5518,22.35305 -13.9177,31.60183 -10.4341,10.3036 -33.717,18.14634 -33.717,18.14634"
           id="path13"
           sodipodi:nodetypes="cscsc" /><path
           style="opacity:1;fill:#000000;fill-opacity:1;stroke:none;stroke-width:4;stroke-linecap:round;stroke-linejoin:round;stroke-dasharray:none;stroke-opacity:1;paint-order:fill markers stroke"
           d="m 1316.722,582.79025 c 0,0 12.4097,-5.15122 16.2731,-7.96098 3.8634,-2.80976 15.5667,-14.62468 12.9881,-17.06799 -1.9681,-1.86481 -12.1756,3.74635 -15.8048,7.37562 -3.6293,3.62926 -13.4564,17.65335 -13.4564,17.65335 z"
           id="path14"
           sodipodi:nodetypes="csssc" /></g><path
         style="opacity:1;fill:#c58e18;fill-opacity:1;stroke:#000000;stroke-width:4;stroke-linecap:round;stroke-linejoin:round;stroke-dasharray:none;stroke-opacity:1;paint-order:fill markers stroke"
         d="m 1326.8497,601.66854 c 0,0 -12.4101,-35.5253 -23.2702,-32.28762 -4.3113,1.28529 -8.19,1.46812 -10.8287,0.17548 -8.0184,-3.9279 -7.7895,-8.28608 -7.7895,-8.28608 -7.3298,6.41797 -16.1323,4.44351 -24.5038,11.09295 -8.1989,6.51239 -1.1306,13.1601 -16.8594,25.57759 -15.7288,12.41748 -22.4749,16.09368 -20.6556,26.97557 1.7268,10.3282 16.8137,13.4674 25.7564,11.03613 10.5311,-2.86313 25.1745,1.01126 37.9181,-1.17073 14.6218,-2.50358 20.1991,-23.1793 20.1991,-23.1793"
         id="path15"
         sodipodi:nodetypes="csscsssssc"
         inkscape:label="head" /><g
         id="g18"
         inkscape:label="face"><path
           style="opacity:1;fill:#dacfa2;fill-opacity:1;stroke:none;stroke-width:4;stroke-linecap:round;stroke-linejoin:round;stroke-dasharray:none;stroke-opacity:1;paint-order:fill markers stroke"
           d="m 1224.7515,619.46944 c 0,0 13.2973,-4.367 24.3022,-12.91334 11.0048,-8.54634 19.317,-21.54146 25.0536,-25.63903 5.7366,-4.09756 19.7854,-4.8 23.4147,0.35122 3.6292,5.15122 1.1707,11.70732 -3.6293,17.20976 -4.8,5.50244 -8.6634,6.67317 -17.561,6.67317 -8.8976,0 -9.3658,-1.7561 -9.3658,-1.7561 0,0 -5.2212,6.47726 -10.8407,7.99921 -5.6195,1.52195 -11.8715,2.53738 -12.574,5.58128 -0.7024,3.0439 11.2976,8.9561 25.1708,12.05854 13.8731,3.10244 18.8252,3.49849 18.8252,3.49849 0,0 -3.728,1.28629 -14.1587,0.95516 -10.4307,-0.33113 -19.9467,-0.86952 -22.5449,-0.0447 -9.3387,2.96457 -20.291,0.79043 -24.648,-5.44949 -2.1708,-3.10893 -1.4441,-8.52417 -1.4441,-8.52417 z"
           id="path18"
           sodipodi:nodetypes="cssssscssscsssc" /><path
           style="opacity:1;fill:#c58e18;fill-opacity:1;stroke:#000000;stroke-width:4;stroke-linecap:round;stroke-linejoin:round;stroke-dasharray:none;stroke-opacity:1;paint-order:fill markers stroke"
           d="m 1222.8293,620.60488 c 0,0 6.9073,-1.17073 10.6536,-3.98049"
           id="path16" /><path
           style="opacity:1;fill:#c58e18;fill-opacity:1;stroke:#000000;stroke-width:4;stroke-linecap:round;stroke-linejoin:round;stroke-dasharray:none;stroke-opacity:1;paint-order:fill markers stroke"
           d="m 1246.2439,626.80976 c 0,0 -12.6439,4.33171 -20.4878,2.92683"
           id="path17"
           sodipodi:nodetypes="cc" /><path
           style="opacity:1;fill:#000000;fill-opacity:1;stroke:none;stroke-width:4;stroke-linecap:round;stroke-linejoin:round;stroke-dasharray:none;stroke-opacity:1;paint-order:fill markers stroke"
           d="m 1251.0487,612.70802 c 0,0 7.8665,-4.33103 13.7001,-13.70019 5.8337,-9.36917 9.1924,-14.23052 17.4125,-13.43503 8.2201,0.7955 10.9602,3.09359 10.9602,3.09359 0,0 -0.442,5.12653 -7.6898,8.48529 -7.2479,3.35875 -9.9878,0.61871 -13.2582,1.41421 -3.2704,0.79549 -3.6239,8.39689 -10.5182,12.72792 -6.8943,4.33103 -10.6066,1.41421 -10.6066,1.41421 z"
           id="path19"
           sodipodi:nodetypes="csscsssc"
           inkscape:label="eye-strip" /><path
           id="path43"
           style="opacity:1;fill:#ffffff;stroke-width:0.666209;stroke-linecap:round;stroke-linejoin:round;paint-order:fill markers stroke"
           inkscape:label="eye-reflection"
           d="m 1280.6641,591.42853 a 3.0325847,3.0325847 0 0 1 -3.0326,3.03258 3.0325847,3.0325847 0 0 1 -3.0326,-3.03258 3.0325847,3.0325847 0 0 1 3.0326,-3.03259 3.0325847,3.0325847 0 0 1 3.0326,3.03259 z" /></g></g><g
       id="g29"
       inkscape:label="left-back-leg"><path
         style="opacity:1;fill:#c58e18;fill-opacity:1;stroke:none;stroke-width:4;stroke-linecap:round;stroke-linejoin:round;stroke-dasharray:none;stroke-opacity:1;paint-order:fill markers stroke"
         d="m 1586.0405,792.31315 3.7123,33.23401 13.0815,20.68288 19.2687,15.73312 -0.5304,69.11969 3.0052,44.37095 -8.1317,6.36396 -15.5414,17.32151 -10.7821,-14.95185 13.7724,-7.14263 4.2426,-32.35013 -1.4142,-36.23923 -6.364,-22.27386 -10.4298,-14.84924 -14.1421,-10.42983 -25.1023,-16.44023 -20.6829,-18.208 -12.0208,-18.03122 5.7485,-4.43135 z"
         id="path29"
         inkscape:label="left-back-leg-fill"
         sodipodi:nodetypes="cccccccccccccccccccc" /><path
         style="opacity:1;fill:#000000;fill-opacity:1;stroke:none;stroke-width:4;stroke-linecap:round;stroke-linejoin:round;stroke-dasharray:none;stroke-opacity:1;paint-order:fill markers stroke"
         d="m 1593.7907,982.51916 -13.6156,9.91318 13.1857,8.79206 11.572,-3.08729 c -3.7785,-4.65384 -7.6403,-8.59178 -11.1421,-15.61795 z"
         id="path28"
         sodipodi:nodetypes="ccccc"
         inkscape:label="left-back-foot" /><path
         style="opacity:1;fill:#dacfa2;fill-opacity:1;stroke:none;stroke-width:4;stroke-linecap:round;stroke-linejoin:round;stroke-dasharray:none;stroke-opacity:1;paint-order:fill markers stroke"
         d="m 1594.6172,732.99609 c 0,0 0.6328,26.00391 -6.8672,45.75391 -7.5,19.75 -9.3185,36.54616 -1.5607,52.98744 8.6417,18.31447 27.0528,24.24847 27.0528,24.24847 L 1591,830.75 1589.75,810 l 13.5,-41.5 0.25,-19 -8.6016,-16.17188 z"
         id="path23"
         sodipodi:nodetypes="cssccccccc"
         inkscape:label="back-light-fill" /><path
         id="path30"
         style="opacity:1;fill:#dacfa2;fill-opacity:1;stroke:none;stroke-width:4;stroke-linecap:round;stroke-linejoin:round;stroke-dasharray:none;stroke-opacity:1;paint-order:fill markers stroke"
         d="m 1523.5723,798.1875 h -9.7149 l 15.791,28.59766 21.0371,16.9707 30.2286,20.32812 16.0859,14.4961 c 0,0 -9.5456,-18.56206 -30.2285,-31.82031 -17.444,-11.18204 -34.6365,-33.80637 -43.1992,-48.57227 z"
         sodipodi:nodetypes="ccccccsc"
         inkscape:label="left-back-leg-front-light-fill" /><path
         style="opacity:1;fill:none;fill-opacity:1;stroke:#000000;stroke-width:4;stroke-linecap:round;stroke-linejoin:round;stroke-dasharray:none;stroke-opacity:1;paint-order:fill markers stroke"
         d="m 1592.6143,833.25 c 9.5625,15 29.6357,29.125 29.6357,29.125 0,0 -1.9148,45.72688 -0.5006,68.00074 1.4142,22.27387 3.3588,39.24443 3.3588,39.24443 0,0 1.0606,5.3033 -2.2981,6.89429 -3.3588,1.59099 -8.0868,8.135 -15.47,16.73849 -7.3831,8.60345 -6.5913,7.22365 -6.5913,7.22365 -4.0699,2.1006 -7.8242,0.5663 -11.3991,-1.44634 l -10.2727,-5.89524 c 0,0 8.831,-8.99552 17.1463,-11.76484 8.3153,-2.76928 11.5607,-15.81587 11.9143,-43.03948 0.3535,-27.22362 -0.8839,-57.62921 -30.4056,-75.83721 -29.5217,-18.208 -53.1439,-33.56675 -63.9273,-65.20978"
         id="path24"
         sodipodi:nodetypes="ccscsscccsssc"
         inkscape:label="left-back-leg-stroke" /><path
         style="opacity:1;fill:#000000;fill-opacity:1;stroke:none;stroke-width:4;stroke-linecap:round;stroke-linejoin:round;stroke-dasharray:none;stroke-opacity:1;paint-order:fill markers stroke"
         d="m 1610.4375,870.0625 c -3.8031,-6.59233 -12.0627,-12.5731 -14.8125,-17.375 6.7703,4.20904 18.3291,12.5281 19.1875,14.125 0.983,1.82855 0.5416,10.85963 0.1875,16.125 -1.3266,-4.34995 -2.2873,-8.93107 -4.5625,-12.875 z"
         id="path25"
         sodipodi:nodetypes="acsca"
         inkscape:label="left-back-leg-shadow" /></g><path
       style="opacity:1;fill:#000000;fill-opacity:1;stroke:none;stroke-width:4;stroke-linecap:round;stroke-linejoin:round;stroke-dasharray:none;stroke-opacity:1;paint-order:fill markers stroke"
       d="m 1619.5849,778.02589 c -0.1875,8.375 -0.4599,17.03661 2.9151,23.97411 3.375,6.9375 12.375,8.9375 12.375,8.9375 0,0 -16.375,4 -24.375,-8.25 -8,-12.25 -6.375,-23.9375 -6.375,-23.9375 0,0 -8.3125,17.0625 -10.4375,26.75 -2.125,9.6875 -1.125,24.8125 8.3125,35.5 9.4375,10.6875 13.375,15.25 13.375,15.25 0,0 -19.875,-11.25 -26.375,-25.5 -6.5,-14.25 1.125,-36.125 6.875,-48.875 5.75,-12.75 5.1392,-18.14388 4.6755,-27.39645 C 1600.1787,747.06088 1594.625,733 1594.625,733 c 0,0 10.125,10 12.625,20 2.5,10 3.1224,26.15057 3.1224,26.15057 0,0 4.0026,-12.90057 3.8776,-23.52557 -0.125,-10.625 -5.0664,-18.59375 -5.0664,-18.59375 l 5.4414,5.71875 3.75,11 z"
       id="path22"
       sodipodi:nodetypes="cscscsscssacscscccc"
       inkscape:label="tail" /><g
       id="path32"
       style="opacity:1"
       inkscape:label="left-front-leg"><path
         style="baseline-shift:baseline;display:inline;overflow:visible;vector-effect:none;fill:#c58e18;stroke-linecap:round;stroke-linejoin:round;paint-order:fill markers stroke;enable-background:accumulate;stop-color:#000000;stop-opacity:1"
         d="m 1318.7852,780.15234 c 0,0 8.7148,12.34766 15.9648,18.59766 7.25,6.25 9,37 10.75,56.25 1.75,19.25 -2,22.25 -1.25,30.5 0.75,8.25 6.732,17.41141 4.2348,58.21447 -1.7474,28.5524 -1.0509,31.56608 -4.387,45.84881 -2.4683,10.56792 0.889,13.90972 0.889,13.90972 l 18.2892,-9.80159 c 5.7781,-3.00054 -3.984,-15.29869 -3.3449,-23.02931 0.2998,-3.62714 3.9723,-6.55907 3.3224,-10.40075 -1.4686,-8.68053 -2.9163,-36.73156 -1.2665,-50.40276 1.7182,-14.2341 7.8685,-73.47235 11.8358,-91.08103 4.0117,-17.80538 7.8232,-28.87868 0.5706,-39.61091"
         id="path33"
         inkscape:label="left-front-leg-foot"
         sodipodi:nodetypes="csssssccsscsc" /><path
         style="opacity:1;fill:#000000;fill-opacity:1;stroke:none;stroke-width:4;stroke-linecap:round;stroke-linejoin:round;stroke-dasharray:none;stroke-opacity:1;paint-order:fill markers stroke"
         d="m 1345.4813,984.92083 -2.41,9.93694 2.077,8.38703 19.5599,-10.60612 -1.0388,-7.24132 c -6.1019,-0.69444 -12.2032,-1.38075 -18.1881,-0.47653 z"
         id="path35"
         sodipodi:nodetypes="cccccc" /><path
         style="opacity:1;fill:#dacfa2;fill-opacity:1;stroke:none;stroke-width:4;stroke-linecap:round;stroke-linejoin:round;stroke-dasharray:none;stroke-opacity:1;paint-order:fill markers stroke"
         d="m 1360.827,912.87485 c 0,0 -0.7071,-42.95673 0.5303,-56.74532 1.2375,-13.78858 -1.591,-40.48186 -1.0606,-42.77996 0.5303,-2.29809 5.8336,-4.77297 9.1924,-13.43503 3.3587,-8.66205 0.6629,-25.67681 0.6629,-25.67681 l 6.143,8.26431 2.2097,14.31891 -6.8943,34.38307 -6.2314,49.40909 z"
         id="path36"
         sodipodi:nodetypes="cssscccccc" /><path
         style="baseline-shift:baseline;display:inline;overflow:visible;fill:none;stroke:#000000;stroke-width:4;stroke-linecap:round;stroke-linejoin:round;stroke-dasharray:none;stroke-opacity:1;paint-order:fill markers stroke;enable-background:accumulate;stop-color:#000000;stop-opacity:1"
         d="m 1318.7852,780.15234 c 0,0 11.4655,12.26269 16.5898,20.34766 5.625,8.875 8.375,35.25 10.125,54.5 1.75,19.25 -2,22.25 -1.25,30.5 0.75,8.25 6.732,17.41141 4.2348,58.21447 -1.7474,28.5524 -1.0509,31.56608 -4.387,45.84881 -2.4683,10.56792 0.889,13.90972 0.889,13.90972 l 18.2892,-9.80159 c 5.7781,-3.00054 -3.984,-15.29869 -3.3449,-23.02931 0.2998,-3.62714 3.9723,-6.55907 3.3224,-10.40075 -1.4686,-8.68053 -2.9163,-36.73156 -1.2665,-50.40276 1.7182,-14.2341 5.7259,-74.0965 11.8358,-91.08103 6.3098,-17.54021 5.0832,-33.20971 -2.1694,-43.94194"
         id="path37"
         inkscape:label="left-front-leg-foot"
         sodipodi:nodetypes="csssssccsscsc" /></g></g></svg>
