<?xml version="1.0" encoding="UTF-8" standalone="no"?>
<svg
   xml:space="preserve"
   id="flag_of_iran"
   width="1050"
   height="600"
   data-name="Flag of Iran"
   version="1.1"
   viewBox="0 0 1050 600"
   sodipodi:docname="Flag_of_Australia - redesign.svg"
   inkscape:version="1.4.3 (0d15f75042, 2025-12-25)"
   inkscape:export-filename="Flag_of_Australia.png"
   inkscape:export-xdpi="182.85715"
   inkscape:export-ydpi="182.85715"
   xmlns:inkscape="http://www.inkscape.org/namespaces/inkscape"
   xmlns:sodipodi="http://sodipodi.sourceforge.net/DTD/sodipodi-0.dtd"
   xmlns="http://www.w3.org/2000/svg"
   xmlns:svg="http://www.w3.org/2000/svg"><defs
   id="defs1" /><sodipodi:namedview
   id="namedview1"
   pagecolor="#ffffff"
   bordercolor="#000000"
   borderopacity="0.25"
   inkscape:showpageshadow="2"
   inkscape:pageopacity="0.0"
   inkscape:pagecheckerboard="0"
   inkscape:deskcolor="#d1d1d1"
   inkscape:zoom="0.70710685"
   inkscape:cx="451.13408"
   inkscape:cy="366.28128"
   inkscape:window-width="1800"
   inkscape:window-height="1049"
   inkscape:window-x="0"
   inkscape:window-y="0"
   inkscape:window-maximized="1"
   inkscape:current-layer="flag_of_iran" />
  <path
   id="green_band"
   d="M0 0h1050v600H0z"
   style="fill:#00008b;fill-opacity:1;stroke-width:1" />
  <path
   id="white_band"
   d="M 0,150 H 1050 V 550 H 0 Z"
   style="fill:#ffffff;stroke-width:1" />
  <path
   id="red_band"
   d="M 0,450 H 1050 V 600 H 0 Z"
   style="fill:#00843d;fill-opacity:1;stroke-width:0.866026" />
  
<g
   id="g1"><g
     fill="#ffffff"
     id="g7"
     transform="matrix(0.05953774,0,0,0.05953774,228.29214,136.60535)"
     style="display:inline;fill:#ffcd00;fill-opacity:1;stroke:#000000;stroke-width:67.1843;stroke-dasharray:none;stroke-opacity:1"><path
       id="Comwlth"
       d="m 2520,3024 145.7849,453.2745 445.2797,-168.6328 -263.4888,396.5913 409.4697,242.9928 -474.3501,41.2668 65.3207,471.6399 L 2520,4116 l -328.0161,345.1325 65.3207,-471.6399 -474.3501,-41.2668 409.4697,-242.9928 -263.4888,-396.5913 445.2797,168.6328 z"
       style="fill:#ffcd00;fill-opacity:1;stroke:#000000;stroke-width:83.9803;stroke-dasharray:none;stroke-opacity:1" /><path
       id="αCrucis"
       d="m 7560,3840 69.4214,215.845 212.0379,-80.3013 -125.4708,188.853 194.9855,115.7108 -225.881,19.6509 31.1051,224.5904 L 7560,4360 l -156.1982,164.3488 31.1052,-224.5904 -225.8811,-19.6509 194.9856,-115.7108 -125.4708,-188.853 212.0379,80.3013 z"
       style="fill:#ffcd00;fill-opacity:1;stroke:#000000;stroke-width:50.3882;stroke-dasharray:none;stroke-opacity:1" /><path
       id="βCrucis"
       d="m 6300,1845 69.4214,215.845 212.0379,-80.3013 -125.4708,188.853 194.9855,115.7108 -225.881,19.6509 31.1051,224.5904 L 6300,2365 l -156.1982,164.3488 31.1052,-224.5904 -225.8811,-19.6509 194.9856,-115.7108 -125.4708,-188.853 212.0379,80.3013 z"
       style="fill:#ffcd00;fill-opacity:1;stroke:#000000;stroke-width:50.3882;stroke-dasharray:none;stroke-opacity:1" /><path
       id="γCrucis"
       d="m 7560,480 69.4214,215.84498 212.0379,-80.30131 -125.4708,188.85298 194.9855,115.71089 -225.881,19.65083 31.1051,224.59043 L 7560,1000 l -156.1982,164.3488 31.1052,-224.59043 -225.8811,-19.65083 194.9856,-115.71089 -125.4708,-188.85298 212.0379,80.30131 z"
       style="fill:#ffcd00;fill-opacity:1;stroke:#000000;stroke-width:50.3882;stroke-dasharray:none;stroke-opacity:1" /><path
       id="δCrucis"
       d="m 8680,1509 69.4214,215.845 212.0379,-80.3013 -125.4708,188.853 194.9856,115.7108 -225.8811,19.6509 31.1052,224.5904 L 8680,2029 l -156.1981,164.3488 31.1051,-224.5904 -225.8811,-19.6509 194.9856,-115.7108 -125.4708,-188.853 212.0379,80.3013 z"
       style="fill:#ffcd00;fill-opacity:1;stroke:#000000;stroke-width:50.3882;stroke-dasharray:none;stroke-opacity:1" /><path
       id="εCrucis"
       d="m 8064,2520 54.86,134.4917 144.8619,10.6147 -110.9566,93.7352 34.6696,141.052 -123.4349,-76.5603 -123.4349,76.5603 34.6696,-141.052 -110.9566,-93.7352 144.8619,-10.6147 z"
       style="fill:#ffcd00;fill-opacity:1;stroke:#000000;stroke-width:50.3882;stroke-dasharray:none;stroke-opacity:1" /></g><g
     id="g31"
     transform="matrix(0.25149422,0,0,0.25149422,67.919585,264.56463)"><path
       style="fill:#ffcd00;fill-opacity:1;stroke:none;stroke-width:59.6435;stroke-linecap:square;stroke-linejoin:round"
       d="m 1905.9299,187.12296 c 0,0 -75.0514,-1.49109 -108.8494,20.87523 -33.798,22.36632 -50.1999,52.18808 -55.1702,89.46527 -4.9703,37.2772 10.4376,83.99792 26.8395,120.28106 16.402,36.28314 36.2832,54.17619 36.2832,121.77218 0,67.59599 -0.497,68.09302 -0.497,86.4831 0,18.39008 -17.8931,41.75046 -41.7505,41.75046 -23.8574,0 -96.4237,0 -121.7722,0 -25.3485,0 -72.0692,22.36632 -72.5663,32.80394 -0.497,10.43761 148.6118,2.48514 148.6118,2.48514 l 137.6771,0.49703 9.4436,-20.87523 -11.9287,-198.81172 38.2712,-43.73858 37.2772,1.49109 20.8753,24.85146 105.3701,-18.88711 c 0,0 -22.3663,-111.83156 -37.2772,-153.58202 C 2001.8565,252.2338 1945.1952,162.76852 1905.9299,134.93488 1866.6646,107.10124 1833.8607,89.705212 1798.0746,74.794332 1762.2885,59.883453 1694.6925,44.475544 1665.3677,21.612196 1636.043,-1.2511527 1607.3965,-37.326892 1607.3965,-80.2041 c 0,-42.87725 -18.6271,-119.49396 -18.6271,-119.49396 l -46.7431,83.99724 c 0,0 -9.4893,21.790043 -21.7901,89.268969 -12.3009,67.478927 10.895,123.359932 10.895,123.359932 0,0 94.9712,120.016639 133.7395,146.856219 38.7683,26.83958 49.7029,30.31879 49.7029,30.31879 l 25.8456,-54.1762 63.1227,-39.26531 z"
       id="path7" /><path
       style="fill:#ffcd00;fill-opacity:1;stroke:none;stroke-width:59.6435;stroke-linecap:square;stroke-linejoin:round"
       d="m 2049.0743,425.19996 -66.6019,-57.6554 -59.6435,71.57222 25.8455,30.81582 38.7683,128.23356 50.697,55.66728 64.6138,44.73264 272.372,5.96435 -19.8811,-33.79799 -159.0494,-22.86335 -67.596,-18.88711 -55.6673,-63.61976 z"
       id="path6" /><path
       style="fill:#ffcd00;fill-opacity:1;stroke:none;stroke-width:59.6435;stroke-linecap:square;stroke-linejoin:round"
       d="m 1631.5698,310.88326 20.8752,85.489 55.6673,86.4831 2.9821,122.26921 -168.9899,13.91682 -64.6138,47.71481 77.5365,-0.99406 79.5247,-18.88711 130.2217,0.99406 18.8871,-64.61381 -19.8812,-117.29892 -48.7088,-106.36427 z"
       id="path5" /><path
       style="display:inline;fill:#ffcd00;fill-opacity:1;stroke:none;stroke-width:59.6435;stroke-linecap:square;stroke-linejoin:round"
       d="m 1471.3842,-330.78994 -2.1087,42.17433 16.5183,43.93159 43.9316,-4.21744 -10.5436,-46.74318 z"
       id="path2" /><path
       style="fill:#ffcd00;stroke:none;stroke-width:59.6435;stroke-linecap:square;stroke-linejoin:round;fill-opacity:1"
       d="m 1406.9125,65.350775 -110.3405,-23.857407 -23.8574,-45.7266965 -61.6316,5.9643517 -18.8871,33.7979928 8.9465,47.714814 33.798,6.958411 57.6554,-0.994059 128.2336,52.685108 65.6078,-13.91682 -23.8574,-92.447454 z"
       id="path1" /><path
       style="fill:#ffcd00;fill-opacity:1;stroke:none;stroke-width:59.6435;stroke-linecap:square;stroke-linejoin:round"
       d="m 1599.7599,-343.20728 -48.2119,45.22967 -12.6742,68.96281 c 0,0 -46.2237,10.31336 -62.7499,20.37821 -16.5263,10.06484 -18.1416,21.74503 -28.455,30.31878 -10.3133,8.57376 -16.5262,14.91088 -27.8336,22.7391 -11.3074,7.82821 -18.3901,13.04702 -18.3901,13.04702 l -20.3782,24.47869 24.8515,23.111862 126.7425,-15.159392 26.3425,-33.798 38.9037,-18.89697 -13.0037,-66.07313 27.0619,-52.71791 z"
       id="path3" /><path
       style="fill:#ffcd00;fill-opacity:1;stroke:none;stroke-width:59.6435;stroke-linecap:square;stroke-linejoin:round"
       d="m 1529.1818,20.618137 -2.9822,45.726697 32.8039,91.453396 -78.5306,138.17415 0.994,55.66728 25.8456,21.86925 27.8336,-9.94059 -7.9525,-65.60783 115.3108,-132.20979 -10.9346,-132.209801 z"
       id="path4" /><path
       style="display:inline;fill:#000000;stroke:#000000;stroke-width:1.9;stroke-dasharray:none;stroke-opacity:1"
       d="m 1517.3543,703.13542 c 4.3859,-6.47112 10.9571,-15.26136 14.6026,-19.53386 l 6.6281,-7.76819 -37.7986,0.045 c -20.7892,0.0248 -38.1285,0.0348 -38.5318,0.0223 -0.9336,-0.0289 10.9392,-17.59075 17.3336,-25.63928 16.6583,-20.96767 42.2379,-37.23679 68.2275,-43.394 16.6016,-3.93308 21.3974,-4.19982 87.1721,-4.84845 62.8956,-0.62023 65.088,-0.70573 67.7169,-2.64098 5.42,-3.98978 6.1472,-7.25286 5.4521,-24.46355 -0.8085,-20.02111 -4.1756,-56.11574 -6.7002,-71.82715 -3.4927,-21.73565 -5.2091,-25.296 -26.3571,-54.6702 -16.9969,-23.60852 -26.4612,-38.88981 -34.7073,-56.0391 -11.4366,-23.78457 -17.8245,-46.41786 -19.8746,-70.41891 l -1.0609,-12.41891 -8.2344,-7.45778 c -4.529,-4.10178 -15.2145,-14.5603 -23.7455,-23.24115 l -15.511,-15.78338 -19.1922,22.00964 -19.1921,22.00965 2.9608,8.11278 c 1.6284,4.46203 4.1949,9.92972 5.7031,12.15042 2.6006,3.82887 2.7414,4.63227 2.7228,15.53764 -0.018,10.53745 -0.2615,12.02735 -2.9093,17.80048 -3.2596,7.10731 -9.6888,13.54921 -17.2911,17.32527 -4.1166,2.04476 -6.2372,2.37425 -15.28,2.37425 -9.7338,0 -10.9919,-0.23301 -17.2407,-3.19313 -12.1867,-5.77288 -20.6781,-17.09146 -23.8621,-31.80687 -1.811,-8.36991 -1.5448,-33.92881 0.4565,-43.83637 1.8435,-9.12624 4.8311,-15.4679 17.272,-36.66363 5.0038,-8.525 15.2651,-26.19211 22.8029,-39.26024 l 13.7051,-23.76024 -5.8875,-7.81323 c -8.1541,-10.82139 -15.5668,-22.24752 -25.0845,-38.66629 -4.4636,-7.7 -8.4783,-14.6206 -8.9214,-15.37911 -0.66,-1.1297 -4.055,-0.55881 -18.773,3.15682 -32.2644,8.14531 -41.6861,8.96555 -53.9673,4.69836 -2.75,-0.95551 -31.8929,-13.26602 -64.7621,-27.35668 -32.8692,-14.09057 -60.2626,-25.619301 -60.8743,-25.619301 -0.6116,0 -6.6252,1.20459 -13.3635,2.67686 l -12.2514,2.676861 -2.6035,15.88183 c -3.0137,18.38374 -4.7813,23.02756 -11.1045,29.17303 -18.9094,18.37782 -36.042,4.628 -36.9766,-22.0087 0,0 -0.2649,-3.0277 -0.1592,-4.53739 0.2977,-4.24806 1.4075,-8.4009 2.224,-12.58037 0.2384,-1.22047 0.7809,-3.39434 0.7809,-3.64798 0,-0.25364 -1.9973,-1.23126 -5.1598,-2.13453 -15.347,-4.383411 -23.1372,-16.418721 -20.2212,-31.240491 1.0471,-5.32208 0.963,-6.15879 -0.944,-9.39088 -5.2334,-8.8699 -4.7084,-21.99795 1.2016,-30.04512 2.9146,-3.96866 3.1822,-4.97906 3.2631,-12.32312 0.1,-9.0340901 1.5534,-13.2697101 6.4807,-18.8816401 4.5589,-5.19222 10.0943,-7.74372 18.4135,-8.48749 5.2563,-0.4699399 7.0563,-1.0059399 7.0563,-2.1012199 0,-1.10468 -3.233,-2.02178 -13,-3.68768 -7.15,-1.21953 -15.258,-2.24538 -18.0179,-2.27965 -6.8085,-0.0846 -11.4471,3.10426 -14.3578,9.8703799 -1.1989,2.78701 -2.479,5.0673 -2.8446,5.0673 -0.3655,0 -4.8976,-0.75608 -10.0712,-1.68017 l -9.4065,-1.68017 0.6092,-3.8094799 c 1.9438,-12.15576 8.5198,-20.95538 19.555,-26.16715 5.4826,-2.58935 7.6883,-3.0622 14.5,-3.10847 4.4186,-0.03 10.993,0.32698 14.6097,0.7933 l 6.576,0.84785 3.7656,-22.847854 c 26.2391,-159.203675 70.3726,-254.199375 148.1401,-318.865335 25.6049,-21.29128 57.3677,-37.75475 95.3239,-49.4088 7.2973,-2.24054 13.5147,-4.07372 13.8164,-4.07372 0.3018,0 -5.0193,5.76063 -11.8246,12.8014 -28.5014,29.48751 -45.1179,49.51647 -62.7301,75.61294 -50.0768,74.19976 -81.8394,159.28642 -101.0746,270.761177 -4.9707,28.806592 -7.3548,49.029562 -5.8872,49.936602 1.9148,1.18343 13.4368,2.20243 17.9931,1.5913 4.8234,-0.64696 9.343,-4.54952 11.5271,-9.95342 0.8866,-2.19384 2.1967,-3.75032 3.157,-3.75078 1.741,-8.2e-4 18.4176,3.12672 18.9623,3.5562 0.1765,0.13915 -0.6093,3.37612 -1.7461,7.19327 -4.2958,14.4246 -13.7465,22.2887799 -29.7528,24.75820986 -3.8793,0.59849 -21.34,-0.88789996 -25.7717,-2.19388996 -1.0752,-0.31684 0.9433,2.30900996 4.5,5.8539 8.3009,8.2735901 13.5643,17.2054101 18.2279,30.9323801 0.6262,1.84295 1.5563,2.07244 58.4328,14.4163 l 40.2109,8.72696 26.3841,-17.49249 26.3841,-17.49249 0.5825,-11.37878 c 1.1458,-22.38048 6.1143,-47.40137 17.1429,-86.32834 2.4853,-8.772252 4.3715,-16.096824 4.1915,-16.276826 -0.18,-0.180002 -6.8027,-0.384495 -14.7172,-0.454429 -13.9977,-0.123688 -14.6895,-0.02871 -25.3898,3.485716 -22.3867,7.352738 -29.4423,7.137645 -46.5337,-1.418587 -17.3912,-8.706349 -22.5224,-15.081063 -28.4838,-35.386323 -2.0483,-6.97709 -2.5368,-10.41682 -2.1732,-15.30347 0.8164,-10.97265 2.6525,-12.96246 33.4011,-36.19653 14.9216,-11.275 28.1169,-21.4 29.3228,-22.5 1.206,-1.1 4.1566,-6.11523 6.557,-11.14494 3.1711,-6.64484 5.6177,-10.24835 8.9494,-13.18098 4.8111,-4.23494 17.1315,-10.91447 28.9604,-15.70097 3.85,-1.55789 7.3637,-3.13783 7.8082,-3.51098 0.4445,-0.37316 -1.7413,-4.22979 -4.8572,-8.5703 -7.2383,-10.08296 -9.8519,-15.29355 -12.833,-25.58436 -5.888,-20.32563 -6.0656,-42.1506 -0.5289,-64.99995 3.0662,-12.65393 2.8015,-12.49376 12.8206,-7.7561 12.5908,5.95375 24.572,14.34304 34.2519,23.98339 8.9701,8.93348 19.7158,24.08721 24.5168,34.57384 2.2066,4.81986 2.7873,5.47307 3.4212,3.84829 7.0925,-18.17807 11.7992,-26.10017 21.9004,-36.86176 12.5554,-13.37627 28.5406,-24.34077 45.3944,-31.13679 4.7172,-1.90211 8.7922,-3.45839 9.0556,-3.45839 0.7782,0 7.2153,21.05944 9.2096,30.12974 1.3942,6.34084 4.2717,42.91094 -0.9686,62.37026 -4.387,16.29123 -13.0639,32.31073 -23.8663,44.06297 l -3.7346,4.06298 4.3481,8.43702 c 8.1569,15.82752 15.031,37.30494 18.0633,56.43703 0.7845,4.95 2.5876,22.05 4.0068,38 2.7057,30.406937 3.9491,38.399753 7.3993,47.560242 6.2657,16.636457 23.6476,36.955297 41.8613,48.934587 7.4431,4.89534 30.2385,16.560765 31.9297,17.0051699 198.3416,52.1196741 313.9429,106.7230711 358.7229,324.0000011 5.1577,28.38642 7.5284,64.92328 7.5621,116.55011 0.017,26.1181 1.1198,45.11424 3.5859,61.77164 7.4461,50.29616 26.3293,86.87535 56.6367,109.71269 14.0498,10.58687 32.134,19.36482 48.4644,23.52436 9.7561,2.48499 51.3823,8.97116 95.8294,14.93209 50.4196,6.76191 67.1529,10.13161 83.9543,16.9065 22.5859,9.10737 34.4554,23.34213 36.983,44.35261 l 0.6316,5.25 -117.2845,-0.003 c -120.4315,-0.003 -125.2265,-0.13884 -145.7844,-4.13331 -42.6854,-8.29392 -88.6109,-34.41835 -115.0871,-65.46659 -31.506,-36.94668 -46.2151,-68.35412 -63.4108,-135.39728 -4.0205,-15.675 -8.4822,-31.425 -9.9151,-35 -4.9379,-12.32022 -13.8129,-21.39291 -24.0982,-24.63506 -5.4496,-1.71782 -5.5169,-1.71307 -14.7317,1.04012 -13.9533,4.16896 -18.2319,6.32608 -23.3049,11.74948 -5.6976,6.09122 -9.7979,14.91677 -12.016,25.86351 -1.3963,6.89116 -1.5983,12.08792 -1.1624,29.91107 0.5226,21.36623 1.9106,36.45792 9.3419,101.57088 4.5637,39.98744 5.0097,58.17429 1.6307,66.5 -4.4952,11.0761 -13.8997,20.48445 -25.1656,25.17595 l -5.5808,2.32423 -167.304,0.26152 -167.3039,0.26152 z m 325.1335,-10.84716 c 5.4802,-2.545 11.3166,-8.80934 13.022,-13.97701 1.8268,-5.5351 0.8475,-19.68893 -4.9425,-71.4332 -9.708,-86.75843 -10.274,-108.29036 -3.4646,-131.79659 3.2896,-11.3561 7.3275,-18.95098 13.7497,-25.86226 7.3709,-7.93221 13.5454,-11.38894 30.9,-17.29903 8.1205,-2.76543 17.5705,-6.44207 21,-8.17031 25.7039,-12.95316 43.3691,-31.24357 57.6383,-59.67835 2.8134,-5.6064 5.4487,-10.20298 5.8562,-10.21461 0.4075,-0.0116 4.4354,1.67587 8.9509,3.75 5.0493,2.31936 8.2253,4.36898 8.25,5.32405 0.053,2.07634 -6.6278,15.75812 -11.9385,24.4471 -9.9882,16.34223 -29.6156,37.49737 -41.4185,44.64246 -3.0504,1.84665 -5.559,3.61876 -5.5746,3.93802 -0.016,0.31926 1.9791,2.02213 4.4326,3.78416 7.8793,5.65843 15.2173,16.23884 20.5193,29.58571 1.5453,3.89021 5.5793,18.09283 8.9644,31.56138 17.0707,67.92071 31.4456,98.46627 62.9912,133.85126 25.895,29.04662 67.9247,50.9114 111.0941,57.79356 9.1555,1.45957 23.4961,1.7198 114.22,2.07262 57.0625,0.22191 103.7491,0.0361 103.7481,-0.41284 0,-1.23961 -8.7812,-6.91314 -15.2256,-9.84058 -13.1276,-5.96335 -23.9346,-7.90621 -102.7725,-18.47637 -48.1224,-6.45199 -60.0296,-8.39149 -73.5,-11.97197 -37.5424,-9.97892 -69.6973,-31.94442 -89.6249,-61.22398 -12.8365,-18.86067 -23.6841,-45.95755 -28.8958,-72.18059 -5.2644,-26.4876 -6.0406,-36.57688 -6.9721,-90.62284 -0.8721,-50.60346 -1.4764,-62.03309 -4.5996,-87 -6.0534,-48.39112 -22.3369,-96.68164 -45.6902,-135.5 -30.489,-50.67938 -72.9277,-92.5991 -122.7174,-121.216671 -30.7893,-17.69674 -59.22,-29.04666 -121,-48.30479 -33.9257,-10.57535 -51.9156,-17.27255 -70,-26.05926 -32.9575,-16.0131401 -54.2632,-34.50788 -68.4951,-59.45839 -9.0082,-15.792538 -11.379,-25.694202 -14.4766,-60.460889 -3.5396,-39.72715 -5.8025,-53.98682 -11.1881,-70.5 -3.3931,-10.40399 -10.913,-26.58337 -16.1884,-34.83012 -2.0085,-3.13979 -3.6518,-6.09603 -3.6518,-6.5694 0,-0.47338 3.0436,-4.40215 6.7636,-8.73059 14.9835,-17.43422 19.2331,-23.92221 23.4945,-35.86989 3.6393,-10.2033 5.1671,-20.36017 5.1898,-34.5 0.02,-12.15626 -2.6816,-31 -4.4437,-31 -2.3871,0 -17.6154,11.38041 -24.0042,17.93881 -9.6057,9.86077 -15.2431,19.73308 -18.6372,32.63777 -2.299,8.74109 -2.6694,12.45526 -3.109,31.17342 l -0.499,21.25 h -6.7524 c -3.7138,0 -8.1586,0.28125 -9.8774,0.625 l -3.125,0.625 v -5.6 -5.6 l -3.25,0.57756 c -23.1186,4.1084 -55.3565,15.69423 -69.1555,24.85349 -4.7058,3.12354 -6.0734,4.83823 -10.1423,12.71645 -2.5867,5.00835 -6.6092,11.01216 -8.9389,13.34181 -2.3296,2.32964 -14.0537,11.59884 -26.0535,20.5982 l -21.8177,16.36249 8.4289,0.5 c 8.3185,0.49345 8.4268,0.53381 8.264,3.08006 -0.4417,6.90783 -8.2284,17.9093 -15.8281,22.36306 -2.4788,1.45265 -4.5069,3.01985 -4.5069,3.48267 0,1.80215 8.0392,7.96802 14.5893,11.18963 9.7766,4.80857 15.7524,4.59955 32.9107,-1.15112 l 13,-4.35701 32.3407,-0.25904 c 35.3058,-0.2828 38.7105,-0.72771 47.1593,-6.16246 10.184,-6.55094 17.1563,-16.63201 20.4631,-29.58716 0.8285,-3.24575 1.7098,-6.10483 1.9584,-6.35351 0.9207,-0.92068 19.5785,5.94998 19.5785,7.2097 0,0.70944 -1.1533,4.8228 -2.5628,9.1408 -9.1758,28.10938 -29.8263,45.105152 -57.1621,47.045498 l -8.8959,0.631448 -6.6787,24.613716 c -12.9696,47.797457 -14.7827,58.1014069 -15.4427,87.760797 -0.539,24.22166 0.364,35.60461 4.32,54.45807 4.7874,22.8161 14.1013,47.870061 24.859,66.869671 5.1112,9.0272 20.1497,32.13243 24.6033,37.80064 l 1.7878,2.27546 7.4592,-13.20173 7.4592,-13.20173 -3.9736,-8.57373 c -6.3605,-13.72387 -18.2082,-43.59434 -22.211,-55.998681 -3.3478,-10.37456 -9.5617,-33.10362 -9.5617,-34.97466 0,-0.80682 18.9773,-5.4564 19.6254,-4.80835 0.2076,0.20762 1.9105,5.96435 3.7843,12.79272 5.9687,21.75115 20.0065,58.698461 31.503,82.915241 1.6971,3.575 3.0779,7.85 3.0684,9.5 -0.02,3.54061 1.8178,0.18713 -33.9853,62 -15.6099,26.95 -32.1301,55.506 -36.7117,63.45778 -9.7615,16.94235 -11.0167,20.60483 -12.4469,36.32034 -2.5289,27.78646 4.7852,41.73151 21.8807,41.71814 9.124,-0.007 14.2907,-5.69498 14.2743,-15.71414 -0.01,-3.51916 -1.5904,-8.68916 -6,-19.57589 -4.4884,-11.08121 -5.9922,-16.02064 -5.9922,-19.68258 v -4.88882 l 27.3837,-31.81741 c 46.1972,-53.67701 71.7156,-83.29997 82.0425,-95.23874 l 9.8792,-11.42132 -0.6653,-19.07868 c -0.6761,-19.387 -2.2415,-34.11414 -5.0503,-47.511111 -0.8571,-4.08783 -1.4329,-7.55776 -1.2798,-7.71094 0.5772,-0.57721 19.8242,-4.55575 20.2037,-4.17629 0.8535,0.85358 5.386,27.906841 6.4071,38.243341 1.3815,13.98355 1.3851,41.93444 0.01,46.90056 -0.7395,2.66329 -5.6709,9.15897 -16.2444,21.3972 -40.3688,46.72481 -48.6825,56.5804 -48.6825,57.71126 0,2.04283 36.6993,38.53878 49.5,49.22575 22.9927,19.19598 63.3586,47.96357 64.887,46.24305 0.1962,-0.22083 -0.076,-3.7765 -0.6056,-7.9015 -1.5332,-11.94992 -0.2832,-42.71423 2.2144,-54.5 10.7276,-50.62171 38.5988,-85.98501 81.7818,-103.76556 32.2416,-13.27544 68.5876,-15.10335 100.6485,-5.0618 10.6668,3.34088 27.5739,10.35112 27.5739,11.43307 0,0.47191 -1.7957,4.74479 -3.9904,9.49529 -3.2098,6.94748 -4.3347,8.52793 -5.75,8.0784 -0.9678,-0.30738 -5.9208,-2.16933 -11.0067,-4.13766 -28.8172,-11.15282 -55.4859,-13.10615 -82.6112,-6.05078 -44.1113,11.47346 -73.6872,42.70534 -85.1903,89.95999 -7.1591,29.40959 -5.1177,58.24477 6.6582,94.04905 3.8905,11.829 8.625,22.42176 22.3957,50.10763 9.6042,19.3092 19.0453,39.20675 20.9802,44.21679 4.0367,10.45241 7.9079,25.29836 9.433,36.17558 2.649,18.89253 5.3388,67.5061 5.4778,99 0.098,22.28565 -0.014,23.79181 -2.1796,29.14709 -4.0261,9.957 -13.1491,18.25989 -24.7167,22.4946 -4.5939,1.68176 -10.4823,1.87981 -72.5,2.43849 -63.0721,0.56818 -68.1255,0.74315 -77.0355,2.66721 -23.5301,5.08119 -40.9886,13.5409 -56.2145,27.2394 -3.1625,2.84525 -5.75,5.59464 -5.75,6.10974 0,0.57898 54.8849,0.8348 143.75,0.67002 143.4289,-0.26595 143.7601,-0.27122 148.25,-2.35634 z m -356.207,-865.39819 c -1.4889,-0.44884 -5.1437,-2.21016 -8.1218,-3.91405 -3.9112,-2.23778 -6.6997,-3.09797 -10.0429,-3.09797 -2.5456,0 -4.6283,-0.38248 -4.6283,-0.84996 0,-0.46748 1.2728,-2.60498 2.8284,-4.75 9.8504,-13.58255 23.8971,-16.73523 41.6447,-9.34686 4.1398,1.7234 7.5269,3.25757 7.5269,3.40927 0,0.1517 -3.7714,4.15045 -8.3808,8.88611 -10.2119,10.49152 -13.3103,11.92923 -20.8262,9.66346 z m 85.3607,825.41058 c 9.41,-4.7388 28.058,-10.83732 39.8463,-13.03109 8.2464,-1.53462 18.2754,-1.84205 76,-2.32971 73.8141,-0.62359 70.4931,-0.30362 76.7163,-7.39146 1.7518,-1.99517 3.4938,-5.27356 3.8712,-7.2853 1.1045,-5.88733 -2.4342,-86.82834 -4.6292,-105.88504 -3.1238,-27.12037 -9.5964,-45.09201 -30.3078,-84.15144 -9.4432,-17.80862 -16.464,-33.65344 -21.3443,-48.17012 l -3.8062,-11.32157 -8.5,-5.1011 c -16.9844,-10.19282 -45.6069,-29.69869 -55.8309,-38.04805 -1.7012,-1.38932 -1.0687,2.58364 2.8328,17.79228 7.3497,28.65035 19.1307,51.66735 44.4335,86.81142 24.7264,34.34358 28.2951,42.62479 32.5863,75.61701 3.2768,25.19262 5.2641,50.92473 5.3731,69.57157 0.1021,17.47137 0.028,18.16153 -2.5196,23.5 -3.3175,6.95141 -9.6074,13.22969 -16.7861,16.75519 l -5.5891,2.74481 -66.5,0.59584 c -72.7491,0.65183 -74.9958,0.8188 -93.2327,6.92873 -14.6139,4.89611 -25.6086,11.29551 -35.9055,20.89866 l -5.3618,5.00053 30.775,0.0381 30.7749,0.0381 z M 1452.245,124.28013 c 10.8585,-2.52886 20.0642,-4.89773 20.457,-5.26415 0.3927,-0.36643 -1.0301,-5.87129 -3.162,-12.23302 -4.745,-14.159911 -8.4769,-30.559201 -10.515,-46.206131 -0.8455,-6.49067 -1.5372,-12.21383 -1.5372,-12.71814 0,-0.50431 -5.5125,2.8301 -12.25,7.4098 -6.7375,4.5797 -17.7806,11.82167 -24.5402,16.09328 l -12.2903,7.76655 -16.3488,-3.63026 c -8.9919,-1.99664 -27.3113,-5.89755 -40.7098,-8.66868 -49.7855,-10.29685 -54.058,-11.47959 -58.6065,-16.22376 -1.702,-1.77516 -5.2176,-8.09678 -7.8125,-14.04804 -9.4246,-21.61464 -23.1244,-30.8031901 -34.0419,-22.83197 -5.2389,3.82514 -13.1966,12.48718 -14.4144,15.69032 -1.1124,2.92593 -0.014,5.85357 2.5684,6.84447 4.4375,1.70281 11.1155,0.0451 18.3918,-4.56537 2.4452,-1.54934 5.6526,-2.81698 7.1275,-2.81698 5.2073,0 5.3346,1.32373 2.037,21.19213 -1.6712,10.06933 -3.3358,20.6557 -3.699,23.52528 l -0.6603,5.2174 8.8745,-2.49286 c 13.8575,-3.89259 13.8327,-3.89089 20.1099,-1.38274 3.1705,1.26684 29.8396,12.61639 59.2646,25.221201 60.0154,25.70885 67.8811,28.66905 76.2572,28.699 3.3812,0.0121 13.9051,-1.87697 25.5,-4.57733 z m -218.26,-43.102151 c 4.8252,-2.30097 5.7161,-5.85951 2.2199,-8.86682 -2.2555,-1.94016 -4.2137,-2.31804 -15.3362,-2.95956 -12.4342,-0.71718 -12.7954,-0.67982 -14.5657,1.5063 -2.2989,2.83907 -2.2999,5.20003 0,8.03621 3.2294,3.98807 21.0319,5.45667 27.6854,2.28387 z m 6.226,-25.95265 c 0.2139,-0.65111 -1.9281,-1.90082 -4.9223,-2.87184 -3.9938,-1.29521 -6.6028,-3.09813 -10.5806,-7.31155 l -5.2797,-5.59243 -8.1939,-0.0357 c -8.0426,-0.0351 -8.2195,0.0171 -9.5792,2.82759 -1.6461,3.40246 -0.529,6.715 3.037,9.0052 2.6313,1.68996 25.3464,5.544 31.2178,5.29669 2.1572,-0.0909 4.0926,-0.68394 4.3009,-1.31793 z m -18.7232,-31.27068 c 0,-0.50788 1.5884,-3.00425 3.5297,-5.54751 1.9413,-2.54326 3.2836,-5.02217 2.9829,-5.5087 -0.7925,-1.28237 -10.502,-3.2735101 -13.9811,-2.86713 -6.8538,0.80058 -7.2094,9.74355 -0.5208,13.09519 3.7622,1.8852 7.9893,2.32337 7.9893,0.82815 z m 45,-52.32795 c 0,-0.13825 1.3498,-9.47575 2.9995,-20.75 14.1554,-96.739019 40.9621,-186.392799 74.7502,-249.998649 13.4132,-25.25031 31.4491,-54.18364 44.2957,-71.05967 3.3245,-4.36718 5.7753,-7.94033 5.4463,-7.94033 -0.329,0 -3.8526,2.40676 -7.8302,5.34835 -25.5965,18.92948 -49.5937,43.75492 -68.778,71.15165 -32.7269,46.73652 -60.0715,118.93172 -76.4013,201.714342 -4.1292,20.932302 -11.5844,65.016797 -11.0804,65.520787 1.0658,1.06575 36.5982,6.90415 36.5982,6.01352 z m 250.3115,-227.272649 4.5493,-0.68222 -3.5135,-10.09419 c -4.211,-12.09782 -6.9065,-17.6066 -13.7984,-28.19959 -6.2331,-9.58049 -13.4635,-17.64794 -21.0907,-23.53225 -6.9663,-5.37446 -7.4241,-4.87996 -7.4371,8.03225 -0.022,22.04052 5.4034,37.18669 19.5729,54.64145 l 3.362,4.14144 6.903,-1.81233 c 3.7967,-0.99679 8.9503,-2.11934 11.4525,-2.49456 z"
       id="path15"
       sodipodi:nodetypes="sscssssssssssscsscccssssssssssscsssssssscsssaassssscsssssssscsssscsssssssssssssssssscccsssssssssssssssssssscsssssscsssssssssssssscssssssssssssscccscssssssssscsscsssssscsssssssssssssssssscsssscsscccssssscsssssscssssssscssssscccsssssscsssscsscsscssssscsssscsssssssssssssssssssssccssssssssssssssssscsssssssscssscccsssssssscssssssssssscssssscssscccssscssssssssssssssssssssssscssssscss" /></g></g></svg>
