<?xml version="1.0" encoding="UTF-8" standalone="no"?>
<svg
   xml:space="preserve"
   id="flag_of_iran"
   width="1050"
   height="600"
   data-name="Flag of Iran"
   version="1.1"
   viewBox="0 0 1050 600"
   sodipodi:docname="Flag_of_Australia - redesign.svg"
   inkscape:version="1.4.3 (0d15f75042, 2025-12-25)"
   inkscape:export-filename="Flag_of_Australia.png"
   inkscape:export-xdpi="182.85715"
   inkscape:export-ydpi="182.85715"
   xmlns:inkscape="http://www.inkscape.org/namespaces/inkscape"
   xmlns:sodipodi="http://sodipodi.sourceforge.net/DTD/sodipodi-0.dtd"
   xmlns="http://www.w3.org/2000/svg"
   xmlns:svg="http://www.w3.org/2000/svg"><defs
   id="defs1" /><sodipodi:namedview
   id="namedview1"
   pagecolor="#ffffff"
   bordercolor="#000000"
   borderopacity="0.25"
   inkscape:showpageshadow="2"
   inkscape:pageopacity="0.0"
   inkscape:pagecheckerboard="0"
   inkscape:deskcolor="#d1d1d1"
   inkscape:zoom="1"
   inkscape:cx="416.5"
   inkscape:cy="264"
   inkscape:window-width="1800"
   inkscape:window-height="1049"
   inkscape:window-x="0"
   inkscape:window-y="0"
   inkscape:window-maximized="1"
   inkscape:current-layer="flag_of_iran" />
  <path
   id="green_band"
   d="M0 0h1050v600H0z"
   style="fill:#00008b;fill-opacity:1;stroke-width:1" />
  <path
   id="white_band"
   d="M 0,150 H 1050 V 550 H 0 Z"
   style="fill:#ffffff;stroke-width:1"
   sodipodi:nodetypes="ccccc" />
  <path
   id="red_band"
   d="M 0,450 H 1050 V 600 H 0 Z"
   style="fill:#00843d;fill-opacity:1;stroke-width:0.866026" />
  
<g
   fill="#ffffff"
   id="g7"
   transform="matrix(0.05953774,0,0,0.05953774,228.29214,136.60535)"
   style="display:inline;fill:#ffcd00;fill-opacity:1;stroke:#000000;stroke-width:67.1843;stroke-dasharray:none;stroke-opacity:1"
   inkscape:label="stars"><path
     id="Comwlth"
     d="m 2520,3024 145.7849,453.2745 445.2797,-168.6328 -263.4888,396.5913 409.4697,242.9928 -474.3501,41.2668 65.3207,471.6399 L 2520,4116 l -328.0161,345.1325 65.3207,-471.6399 -474.3501,-41.2668 409.4697,-242.9928 -263.4888,-396.5913 445.2797,168.6328 z"
     style="fill:#ffcd00;fill-opacity:1;stroke:#000000;stroke-width:83.9803;stroke-dasharray:none;stroke-opacity:1" /><path
     id="αCrucis"
     d="m 7560,3840 69.4214,215.845 212.0379,-80.3013 -125.4708,188.853 194.9855,115.7108 -225.881,19.6509 31.1051,224.5904 L 7560,4360 l -156.1982,164.3488 31.1052,-224.5904 -225.8811,-19.6509 194.9856,-115.7108 -125.4708,-188.853 212.0379,80.3013 z"
     style="fill:#ffcd00;fill-opacity:1;stroke:#000000;stroke-width:50.3882;stroke-dasharray:none;stroke-opacity:1" /><path
     id="βCrucis"
     d="m 6300,1845 69.4214,215.845 212.0379,-80.3013 -125.4708,188.853 194.9855,115.7108 -225.881,19.6509 31.1051,224.5904 L 6300,2365 l -156.1982,164.3488 31.1052,-224.5904 -225.8811,-19.6509 194.9856,-115.7108 -125.4708,-188.853 212.0379,80.3013 z"
     style="fill:#ffcd00;fill-opacity:1;stroke:#000000;stroke-width:50.3882;stroke-dasharray:none;stroke-opacity:1" /><path
     id="γCrucis"
     d="m 7560,480 69.4214,215.84498 212.0379,-80.30131 -125.4708,188.85298 194.9855,115.71089 -225.881,19.65083 31.1051,224.59043 L 7560,1000 l -156.1982,164.3488 31.1052,-224.59043 -225.8811,-19.65083 194.9856,-115.71089 -125.4708,-188.85298 212.0379,80.30131 z"
     style="fill:#ffcd00;fill-opacity:1;stroke:#000000;stroke-width:50.3882;stroke-dasharray:none;stroke-opacity:1" /><path
     id="δCrucis"
     d="m 8680,1509 69.4214,215.845 212.0379,-80.3013 -125.4708,188.853 194.9856,115.7108 -225.8811,19.6509 31.1052,224.5904 L 8680,2029 l -156.1981,164.3488 31.1051,-224.5904 -225.8811,-19.6509 194.9856,-115.7108 -125.4708,-188.853 212.0379,80.3013 z"
     style="fill:#ffcd00;fill-opacity:1;stroke:#000000;stroke-width:50.3882;stroke-dasharray:none;stroke-opacity:1" /><path
     id="εCrucis"
     d="m 8064,2520 54.86,134.4917 144.8619,10.6147 -110.9566,93.7352 34.6696,141.052 -123.4349,-76.5603 -123.4349,76.5603 34.6696,-141.052 -110.9566,-93.7352 144.8619,-10.6147 z"
     style="fill:#ffcd00;fill-opacity:1;stroke:#000000;stroke-width:50.3882;stroke-dasharray:none;stroke-opacity:1" /></g><g
   id="g33"
   inkscape:label="kangaroo"><g
     id="g26"
     inkscape:label="knife"><path
       style="display:inline;fill:none;stroke:#000000;stroke-width:6;stroke-linecap:butt;stroke-linejoin:round;stroke-dasharray:none"
       d="m 361.98417,262.60842 c 0,0 1.14716,-6.41884 6.28675,-6.31893 2.29936,0.0447 25.91778,4.46248 28.84752,4.68458 6.24173,0.47319 7.44088,-6.26501 7.44088,-6.26501"
       id="path8"
       sodipodi:nodetypes="cssc" /><path
       style="display:inline;fill:none;stroke:#000000;stroke-width:6;stroke-linecap:butt;stroke-linejoin:miter;stroke-dasharray:none"
       d="m 375.69555,256.81982 c 0,0 7.17247,-40.72271 14.93763,-56.56854 15.0642,-30.74046 38.71406,-39.06764 38.71406,-39.06764 0,0 -20.15253,23.86485 -29.5217,54.27043 -7.23455,23.47816 -9.36914,44.37095 -9.36914,44.37095"
       id="path9"
       sodipodi:nodetypes="cscsc" /><path
       style="display:inline;fill:none;stroke:#000000;stroke-width:6;stroke-linecap:butt;stroke-linejoin:miter;stroke-dasharray:none"
       d="m 379.77621,259.8294 c -2.91738,21.96729 -6.46063,40.3038 -2.75001,40.74999 4.45962,0.53626 4.80495,-16.25756 8.00001,-39.99999"
       id="path10"
       sodipodi:nodetypes="csc" /></g><g
     id="g27"
     inkscape:label="toes"><path
       style="fill:#ffcd00;fill-opacity:1;stroke:none;stroke-width:6;stroke-linecap:butt;stroke-linejoin:miter;stroke-dasharray:none"
       d="m 381.5,265.25 c 0,0 -10.25,-1.6875 -11.625,-0.4375 -1.375,1.25 -2.375,17.875 -1.8125,19.875 0.5625,2 4.9375,3.5625 4.9375,3.5625 l 8.5,-1 2.6875,-20 z"
       id="path25" /><path
       style="display:inline;fill:none;fill-opacity:1;stroke:#000000;stroke-width:5;stroke-linecap:butt;stroke-linejoin:miter;stroke-dasharray:none"
       d="m 375.87141,264.32533 c -2.69585,-0.22097 -5.78943,-0.0442 -6.58493,2.47487 -0.2675,0.84707 -1.28163,4.59619 4.81717,5.21491 6.09879,0.61872 10.57723,1.80413 11.09273,-2.2097 0.51551,-4.01383 -5.30804,-5.07108 -9.32497,-5.48008 z"
       id="path12"
       sodipodi:nodetypes="csszc" /><path
       style="display:inline;fill:none;fill-opacity:1;stroke:#000000;stroke-width:5;stroke-linecap:butt;stroke-linejoin:miter;stroke-dasharray:none"
       d="m 376.26917,272.45706 c -6.40816,-0.92808 -9.14587,0.39183 -9.23659,3.18197 -0.12364,3.8028 4.35944,4.34854 8.3527,4.33103 3.71333,-0.0163 8.46769,-0.21316 8.52948,-2.51906 0.0708,-2.64186 -0.22097,-4.28684 -7.64559,-4.99394 z"
       id="path13"
       sodipodi:nodetypes="csssc" /><path
       style="display:inline;fill:none;fill-opacity:1;stroke:#000000;stroke-width:5;stroke-linecap:butt;stroke-linejoin:miter;stroke-dasharray:none"
       d="m 375.16431,279.92587 c -6.36396,-0.44194 -7.38043,2.65165 -7.24785,4.02167 0.13259,1.37002 0.88389,3.88909 6.8943,4.37523 6.0104,0.48613 7.24784,-1.90035 7.42462,-3.71231 0.17677,-1.81196 -1.76777,-4.37523 -7.07107,-4.68459 z"
       id="path14" /></g><g
     id="g28"
     inkscape:label="right arm"><path
       id="path1"
       style="fill:#ffcd00;fill-opacity:1;stroke:none;stroke-width:15;stroke-linecap:square;stroke-linejoin:round"
       d="M 388 263.5 L 387.57031 265.89062 L 387 265.1875 L 377.6875 269.125 L 379.1875 273.8125 L 385.26562 278.67578 L 384.375 283.625 L 425.25 300.25 L 441.75 296.75 L 435.75 273.5 L 421.75 281 L 394 275 L 393.16211 273.39453 L 393.375 273.0625 L 392.28906 271.7207 L 388 263.5 z " /><path
       style="display:inline;fill:none;fill-opacity:1;stroke:#000000;stroke-width:23.8574;stroke-linecap:butt;stroke-linejoin:round;stroke-dasharray:none"
       d="m 1468.0471,27.079518 -62.1286,40.259374 c 0,0 -95.4996,-17.505484 -104.6374,-24.534513 -9.1377,-7.029068 -14.0582,-31.982206 -28.4677,-37.2540233 -14.2077,-5.19800002 -42.5258,4.5688923 -44.283,23.1958803 -1.7573,18.627029 18.079,19.098237 24.9531,16.518286 5.8306,-2.188318 -4.9203,44.985951 -4.9203,44.985951 0,0 26.7104,-7.029029 34.4424,-6.32615 7.7319,0.702919 124.4142,56.232467 138.4724,57.638267 14.0581,1.40579 67.4789,-16.16682 67.4789,-16.16682"
       id="path16"
       sodipodi:nodetypes="ccsssscssc"
       transform="matrix(0.25149422,0,0,0.25149422,67.919585,264.56463)" /></g><g
     id="g32"
     inkscape:label="right leg"><path
       style="fill:#ffcd00;fill-opacity:1;stroke:none;stroke-width:15;stroke-linecap:square;stroke-linejoin:round"
       d="m 478.24996,342.74997 5.24999,21.49999 14.00001,21.75 0.74998,30.75 -42.49999,3.5 -16.24999,12 19.49998,-0.25 20,-4.75 32.75001,0.25 4.74999,-16.25 -5.00001,-29.5 -12.24998,-26.75 z"
       id="path5" /><path
       style="fill:none;fill-opacity:1;stroke:#000000;stroke-width:6;stroke-linecap:butt;stroke-linejoin:miter;stroke-dasharray:none"
       d="m 478.18091,340.82544 c -1.36243,15.78858 10.61722,31.08571 16.08668,39.06764 5.84774,8.53399 7.85339,35.92113 3.88833,37.78731 -4.40144,2.07157 -29.98598,0.39751 -40.03916,1.89905 -10.59498,1.58247 -17.4125,12.37437 -17.4125,12.37437 h 20.50609"
       id="path22"
       sodipodi:nodetypes="cssscc" /></g><g
     id="g29"
     inkscape:label="head"><path
       style="display:inline;fill:#ffcd00;fill-opacity:1;stroke:none;stroke-width:15;stroke-linecap:square;stroke-linejoin:round"
       d="m 437.96421,181.37287 -0.53033,10.6066 4.15426,11.04854 11.04854,-1.06066 -2.65165,-11.75564 z"
       id="path2" /><path
       style="fill:#ffcd00;fill-opacity:1;stroke:none;stroke-width:15;stroke-linecap:square;stroke-linejoin:round"
       d="m 470.24995,178.24998 -12.12501,11.375 -3.18749,17.34375 c 0,0 -11.62499,2.59375 -15.78124,5.125 -4.15627,2.53125 -4.5625,5.46875 -7.15626,7.625 -2.59374,2.15625 -4.15625,3.75 -6.99999,5.71875 -2.84375,1.96875 -4.62501,3.28125 -4.62501,3.28125 l -5.125,6.15625 6.25001,5.8125 31.87501,-3.8125 6.62498,-8.5 9.78406,-4.75248 -3.27036,-16.61701 6.80592,-13.25825 z"
       id="path3" /><path
       style="fill:none;fill-opacity:1;stroke:#000000;stroke-width:23.8574;stroke-linecap:butt;stroke-linejoin:miter;stroke-dasharray:none"
       d="m 1491.4075,-239.32815 c -40.2593,-49.20591 -22.8633,-101.39398 -22.8633,-101.39398 0,0 56.1643,22.86335 61.6316,90.95636"
       id="path17"
       sodipodi:nodetypes="ccc"
       transform="matrix(0.25149422,0,0,0.25149422,67.919585,264.56463)" /><path
       style="fill:none;fill-opacity:1;stroke:#000000;stroke-width:23.8574;stroke-linecap:butt;stroke-linejoin:miter;stroke-dasharray:none"
       d="m 1539.1223,-227.89648 c -9.9405,-89.96231 62.6257,-117.29892 62.6257,-117.29892 0,0 35.7861,83.50093 -28.8277,131.71277"
       id="path18"
       sodipodi:nodetypes="ccc"
       transform="matrix(0.25149422,0,0,0.25149422,67.919585,264.56463)" /><path
       d="m 441.65266,221.26235 c -0.39874,-0.1164 -1.31094,-0.56314 -2.10644,-1.01829 -1.04475,-0.59775 -1.66809,-0.73913 -2.56111,-0.73913 -0.67999,0 -1.24736,-0.16646 -1.24736,-0.32648 0,-0.45712 0.16819,-0.75554 0.58978,-1.32406 2.79697,-3.77179 6.23976,-4.50345 11.12411,-2.49673 1.10795,0.4552 1.63792,0.70975 1.76449,0.81693 0.12258,0.1038 0.0826,0.31076 -0.0384,0.43318 -0.30194,0.30549 -0.86798,0.92931 -1.89557,1.99126 -2.70871,2.7993 -3.583,3.26074 -5.62947,2.66332 z"
       style="display:inline;fill:#000000;fill-opacity:1;stroke:none;stroke-width:0.507527;stroke-dasharray:none;stroke-opacity:1"
       id="path1-5"
       sodipodi:nodetypes="ssssssssss" /><path
       style="fill:none;fill-opacity:1;stroke:#000000;stroke-width:6;stroke-linecap:butt;stroke-linejoin:miter;stroke-dasharray:none"
       d="m 455.64189,201.26025 c 0,0 -8.92722,1.94454 -13.43503,3.88909 -4.5078,1.94454 -8.66206,3.35875 -10.16466,4.86135 -1.5026,1.50261 -3.35875,5.21491 -4.59619,6.54074 -1.23743,1.32582 -11.90409,7.50296 -13.78858,10.78338 -2.38649,4.15426 2.67636,14.31717 10.25304,13.70019 5.03387,-0.40992 8.57367,-2.47487 8.57367,-2.47487 0,0 13.78859,0.7071 19.09189,-0.88389 6.61274,-1.98382 8.66205,-11.57887 8.66205,-11.57887"
       id="path19"
       sodipodi:nodetypes="cssssscsc" /><path
       d="m 418.02026,226.96545 2.3336,0.13843 c 2.30305,0.13662 2.31742,0.78841 2.27234,1.49335 -0.12228,1.91249 -2.26247,4.31771 -4.36651,5.55077 -0.68628,0.40218 -1.24777,0.83607 -1.24777,0.9642 l -3.76301,-6.05617 1.53251,-2.62716 z"
       style="display:inline;fill:#000000;stroke:none;stroke-width:0.52603;stroke-dasharray:none;stroke-opacity:1"
       id="path1-0"
       sodipodi:nodetypes="cssscccc" /></g><g
     id="g31"
     inkscape:label="body"><path
       style="fill:none;fill-opacity:1;stroke:#000000;stroke-width:6;stroke-linecap:butt;stroke-linejoin:miter;stroke-dasharray:none"
       d="m 443.35591,239.00207 c 0,0 -8.40659,24.28638 -5.48008,42.4264 2.89662,17.95474 15.55635,32.52691 15.55635,32.52691"
       id="path20"
       sodipodi:nodetypes="csc" /><path
       style="fill:none;fill-opacity:1;stroke:#000000;stroke-width:6;stroke-linecap:butt;stroke-linejoin:miter;stroke-dasharray:none"
       d="m 463.1549,325.9762 c 8.3085,11.66726 23.15774,23.51129 37.1231,30.40558"
       id="path21"
       sodipodi:nodetypes="cc" /><path
       style="fill:#ffcd00;fill-opacity:1;stroke:none;stroke-width:15;stroke-linecap:square;stroke-linejoin:round"
       d="m 547.24994,311.62497 c 0,0 -18.87499,-0.375 -27.375,5.25 -8.5,5.625 -12.62498,13.125 -13.87498,22.5 -1.25,9.375 2.62499,21.12499 6.74998,30.24999 4.125,9.125 9.12501,13.625 9.12501,30.625 0,17 -0.12499,17.125 -0.12499,21.75 0,4.625 -4.50001,10.5 -10.50001,10.5 h -30.62501 c -6.375,0 -18.12498,5.625 -18.25,8.25 -0.12499,2.625 37.37501,0.625 37.37501,0.625 l 34.62499,0.125 2.37501,-5.25 -2.99999,-50 9.62498,-11 9.375,0.375 5.25002,6.25 26.49997,-4.75 c 0,0 -5.625,-28.12499 -9.375,-38.62499 -3.75001,-10.5 -18,-33 -27.87499,-40 -9.875,-7 -18.12499,-11.375 -27.12499,-15.125 -8.99999,-3.75 -26,-7.625 -33.37501,-13.375 -7.375,-5.75 -14.57943,-14.82284 -14.57943,-25.60621 0,-10.78338 -4.6846,-30.05204 -4.6846,-30.05204 -1.31229,3.60347 -3.15868,8.09727 -4.33106,12.42076 -1.55872,5.74824 -4.09305,10.0416 -7.68973,12.37217 0,0 -2.52759,3.18696 -5.21492,18.78252 -2.92928,16.99969 2.74003,31.02431 2.74003,31.02431 0,0 23.88471,30.18349 33.63471,36.93349 9.75001,6.75 12.5,7.625 12.5,7.625 l 6.50001,-13.625 15.875,-9.875 z"
       id="path7"
       sodipodi:nodetypes="cssssssssccccccccssssscscscscccc" /><path
       style="fill:#ffcd00;fill-opacity:1;stroke:none;stroke-width:15;stroke-linecap:square;stroke-linejoin:round"
       d="m 583.24993,371.49996 -16.75,-14.5 -14.99999,18 6.49999,7.75 9.75001,32.25 12.75,14 16.25,11.25 68.49998,1.5 -4.99998,-8.5 -40.00001,-5.75 -17,-4.75 -14,-16 z"
       id="path6" /><path
       style="fill:none;fill-opacity:1;stroke:#000000;stroke-width:6;stroke-linecap:butt;stroke-linejoin:miter;stroke-dasharray:none"
       d="m 547.99995,312.99997 c 0,0 -14.25,-10.25 -33.375,0 -19.125,10.25 -17.94364,34.1852 -15.375,42.625 3.5,11.5 11,21.12499 14.25,33.74999 1.83672,7.13496 2.25,30.25 1.125,32.5 -1.125,2.25 -3.1875,5.625 -8.5625,5.75 -5.375,0.125 -30.37131,-1.23798 -38.24999,1.5 -8.8125,3.0625 -14.73383,12.46318 -14.73383,12.46318 h 77.60496 c 5.83363,0 6.71751,-7.24784 6.18718,-13.43502 -0.53033,-6.18719 -3.19332,-33.15762 -3.02665,-37.58802 0.39277,-10.44086 6.99892,-15.22272 14.60552,-16.68243 10.6402,-2.04186 18.47317,-19.62221 18.47317,-19.62221"
       id="path23"
       sodipodi:nodetypes="csssssscssssc" /><path
       style="fill:none;fill-opacity:1;stroke:#000000;stroke-width:6;stroke-linecap:butt;stroke-linejoin:miter;stroke-dasharray:none"
       d="m 463.49219,207.19531 c 0,0 8.50159,11.9194 8.50158,27.29897 0,18.26284 8.00306,25.37007 21.61486,31.46886 16.26893,7.28933 55.29204,11.7825 74.36448,42.85013 26.67241,43.44743 9.44858,67.59 22.46105,98.48023 9.02082,21.41448 36.00584,21.57634 51.66626,23.33974 21.37403,2.40676 23.71904,10.54961 23.71904,10.54961 l -58.23796,0.0518 c -10.42983,0.009 -26.50382,-7.37458 -37.47666,-23.68808 -12.43468,-18.48684 -7.38043,-49.18811 -25.45584,-42.60318"
       id="path24"
       sodipodi:nodetypes="cssssscssc" /></g><g
     id="g30"
     inkscape:label="left arm"><path
       style="fill:#ffcd00;fill-opacity:1;stroke:none;stroke-width:15;stroke-linecap:square;stroke-linejoin:round"
       d="m 452.49997,269.74997 -0.75001,11.5 8.24999,23 -19.74999,34.75 0.24999,14 6.50002,5.49999 6.99999,-2.5 -2.00001,-16.49999 29,-33.25 -2.74999,-33.25 z"
       id="path4" /><path
       style="display:inline;fill:none;stroke:#000000;stroke-width:6;stroke-linecap:butt;stroke-linejoin:miter;stroke-dasharray:none"
       d="m 450.83558,277.866 c 1.58117,7.46228 9.39507,24.28909 9.60356,26.05308 0.19073,1.61377 -19.10647,31.41831 -20.22097,36.1237 -1.25785,5.31053 -0.74168,13.36589 2.125,16 3.62627,3.33211 10.41078,1.3033 11.12055,-2.33839 1.16032,-5.95343 -2.81251,-11 -2.625,-12.5 0.18749,-1.5 29.65638,-33.8546 29.93747,-35.375 0.59597,-3.22357 -0.39774,-14.68436 -1.58522,-20.12186"
       id="path11"
       sodipodi:nodetypes="cssssssc" /></g></g></svg>
