<?xml version="1.0" encoding="UTF-8" standalone="no"?>
<svg
   xml:space="preserve"
   id="flag_of_iran"
   width="1050"
   height="700"
   data-name="Flag of Iran"
   version="1.1"
   viewBox="0 0 1050 700"
   sodipodi:docname="Union Robin ReDesign.svg"
   inkscape:version="1.4.3 (0d15f75042, 2025-12-25)"
   inkscape:export-filename="Union Robin ReDesign.png"
   inkscape:export-xdpi="192"
   inkscape:export-ydpi="192"
   xmlns:inkscape="http://www.inkscape.org/namespaces/inkscape"
   xmlns:sodipodi="http://sodipodi.sourceforge.net/DTD/sodipodi-0.dtd"
   xmlns="http://www.w3.org/2000/svg"
   xmlns:svg="http://www.w3.org/2000/svg"><defs
   id="defs1" /><sodipodi:namedview
   id="namedview1"
   pagecolor="#ffffff"
   bordercolor="#000000"
   borderopacity="0.25"
   inkscape:showpageshadow="2"
   inkscape:pageopacity="0.0"
   inkscape:pagecheckerboard="0"
   inkscape:deskcolor="#d1d1d1"
   inkscape:zoom="0.70710678"
   inkscape:cx="236.88077"
   inkscape:cy="362.03867"
   inkscape:window-width="1800"
   inkscape:window-height="1049"
   inkscape:window-x="0"
   inkscape:window-y="0"
   inkscape:window-maximized="1"
   inkscape:current-layer="flag_of_iran" />
  <path
   id="green_band"
   d="M 0,0 H 1050 V 700 H 0 Z"
   style="fill:#012169;fill-opacity:1;stroke-width:1.08012" />
  <path
   id="white_band"
   d="M 0,200 H 1050 V 700 H 0 Z"
   style="fill:#ffffff;stroke-width:1.11803" />
  <path
   id="red_band"
   d="M 0,500 H 1050 V 700 H 0 Z"
   style="fill:#c8102e;fill-opacity:1;stroke-width:1" />
  
<g
   id="g30"
   inkscape:label="robin"
   transform="matrix(1.0758123,0,0,1.0758123,-1158.7487,-48.24461)"><path
     style="fill:#2d2e2d;fill-opacity:1;stroke:none;stroke-width:3;stroke-linecap:square;stroke-linejoin:round;stroke-dasharray:none;stroke-opacity:1;paint-order:fill markers stroke"
     d="m 1661.8727,405.88864 9.4389,-0.89974 1.3501,2.42711 -1.2183,2.00905 -2.2675,-0.8447 c -1.7867,0.0309 -4.3889,-0.80886 -5.9161,0.44768 -0.975,0.80215 -1.756,1.48965 -1.0081,3.65102 l -2.2768,-3.69368 z"
     id="path30"
     sodipodi:nodetypes="cccccaccc"
     inkscape:transform-center-x="-66.679887"
     inkscape:transform-center-y="-19.908055" /><g
     id="g22"
     inkscape:label="sword"
     transform="rotate(7.288058,1629.5028,421.83575)"
     inkscape:transform-center-x="-101.70262"
     inkscape:transform-center-y="-88.259839"><path
       style="fill:#ffffff;fill-opacity:1;stroke:#000000;stroke-width:3;stroke-linecap:square;stroke-linejoin:round;stroke-dasharray:none;stroke-opacity:1;paint-order:fill markers stroke"
       d="m 1668.772,386.78741 6.0988,-17.01476 c 0,0 44.1942,-131.38928 47.4645,-130.15184 3.2704,1.23744 -39.2444,132.31736 -39.2444,132.31736 l -5.922,18.47316 z"
       id="path21" /><path
       style="fill:#ffffff;fill-opacity:1;stroke:#000000;stroke-width:3;stroke-linecap:square;stroke-linejoin:round;stroke-dasharray:none;stroke-opacity:1;paint-order:fill markers stroke"
       d="m 1669.375,386.125 -6.75,20.125 -3.125,15.125 4.875,1.625 7.375,-14.875 6.1875,-19.375 z"
       id="path18"
       sodipodi:nodetypes="ccccccc" /><circle
       style="fill:#ffffff;fill-opacity:1;stroke:#000000;stroke-width:3.17256;stroke-linecap:square;stroke-linejoin:round;stroke-dasharray:none;stroke-opacity:1;paint-order:fill markers stroke"
       id="path19"
       cx="1660.0938"
       cy="427.375"
       r="5.8824668" /><path
       style="fill:#ffffff;fill-opacity:1;stroke:#000000;stroke-width:3;stroke-linecap:square;stroke-linejoin:round;stroke-dasharray:none;stroke-opacity:1;paint-order:fill markers stroke"
       d="m 1657.75,374.4375 -3.625,9.375 c 12.9453,3.16034 25.0926,7.5748 36.875,12.5625 l 2.8125,-9.5625 c -14.0987,0.87501 -26.44,-3.40298 -36.0625,-12.375 z"
       id="path20"
       sodipodi:nodetypes="ccccc" /></g><path
     d="m 1662.5339,407.49576 c -0.1734,0.81122 -0.3438,1.45619 -0.6259,2.49417 -0.3457,1.27145 0.7979,2.7908 1.4442,3.89388 1.036,1.76833 3.8829,3.38104 5.1268,3.52459 2.4958,0.28785 1.5612,0.60305 4.8479,1.42841 -3.2523,-0.30575 -2.248,1.49876 -4.7304,1.21546 -2.4821,-0.28326 -6.4142,-1.60969 -8.5661,-3.86041 -1.78,-1.86176 -1.4556,-6.42308 -2.8832,-6.80176 l 5.6861,-3.04944 z"
     style="display:inline;fill:#2d2e2d;fill-opacity:1;stroke:none;stroke-width:4.16612;stroke-linecap:square;stroke-linejoin:round;stroke-dasharray:none;stroke-opacity:1;paint-order:fill markers stroke"
     id="path1-3"
     sodipodi:nodetypes="csscsssccc"
     inkscape:transform-center-x="-65.522593"
     inkscape:transform-center-y="-15.222549" /><path
     style="fill:#2d2e2d;fill-opacity:1;stroke:none;stroke-width:3;stroke-linecap:square;stroke-linejoin:round;stroke-dasharray:none;stroke-opacity:1;paint-order:fill markers stroke"
     d="m 1606.3369,431.3575 c 0,0 32.3751,-12.49181 48.9801,-17.46447 5.191,-1.8899 6.2975,-3.79463 6.8771,-8.02368 -2.3167,0.25249 -7.2933,1.56787 -10.1871,2.40542 -10.0331,2.90395 -21.6345,8.21235 -21.6345,8.21235 l -25.2737,9.03076 z"
     id="path22"
     sodipodi:nodetypes="cccsccc"
     inkscape:transform-center-x="-31.710278"
     inkscape:transform-center-y="-9.4408372" /><path
     style="fill:#2d2e2d;fill-opacity:1;stroke:none;stroke-width:3;stroke-linecap:square;stroke-linejoin:round;stroke-dasharray:none;stroke-opacity:1;paint-order:fill markers stroke"
     d="m 1541.375,445.3125 23.5,49.3125 c 0,0 0.7556,1.65752 0,2.09375 -0.7556,0.43623 -4.8094,3.11736 -8.5217,3.29413 -3.7123,0.17678 -7.2037,-0.0759 -9.6785,0.18921 -2.4749,0.26517 -5.5685,3.57973 -6.4082,5.17072 -0.8397,1.59099 -0.8397,3.35876 -0.8397,3.35876 0,0 1.0418,-1.95673 1.6668,-1.75361 0.625,0.20313 1.2032,0.10938 1.625,-0.6875 0.4219,-0.79687 2.25,-2.34375 4.5157,-1.8125 2.2656,0.53125 1.5312,1.8125 2.5156,2.35938 0.9844,0.54687 2.5625,-1.14984 5.0937,-1.64984 2.5313,-0.5 10.8438,-3.1875 14.4063,-3.125 3.5625,0.0625 3.7962,-2.83821 7.5969,-1.55658 3.8007,1.28163 10.06,1.98441 12.3365,2.2454 1.2825,0.14703 1.4877,2.06194 2.4675,2.14112 1.2751,0.10306 1.1943,4.71748 1.1943,4.71748 0,0 1.5181,-3.99084 0.7513,-6.47445 -1.0089,-3.26767 -3.6173,-4.72606 -3.6173,-4.72606 0,0 5.9565,-1.41301 9.2289,-0.0272 1.5354,0.65023 1.2834,1.77226 2.2163,1.67761 1.5985,-0.1622 1.7682,2.97994 1.7682,2.97994 0,0 0.9823,-4.69953 -0.8927,-6.26203 -1.875,-1.5625 -6.9808,-4.64043 -13.1998,-3.321 -7.1355,1.51387 -14.2812,2.36859 -17.2187,-0.13141 -2.9375,-2.5 -12.0689,-23.26283 -12.0689,-23.26283 l -11.5,-24.25 z"
     id="path17"
     sodipodi:nodetypes="ccsssscssssssssscscsscsssccc" /><ellipse
     style="fill:#dbccb7;fill-opacity:1;stroke:#000000;stroke-width:4;stroke-linecap:square;stroke-dasharray:none;paint-order:fill markers stroke"
     id="path12"
     cx="1543.7928"
     cy="431.89276"
     rx="9.375"
     ry="13.75" /><ellipse
     style="fill:#dbccb7;fill-opacity:1;stroke:#000000;stroke-width:3.72026;stroke-linecap:square;stroke-dasharray:none;paint-order:fill markers stroke"
     id="path13"
     cx="1600.5"
     cy="423.75"
     rx="7.6398721"
     ry="8.8898726" /><path
     id="path10"
     style="fill:#706249;fill-opacity:1;stroke:none;stroke-width:4;stroke-linecap:square;stroke-dasharray:none;paint-order:fill markers stroke"
     inkscape:label="back"
     d="m 1599.5,251.5 -25.25,8.25 L 1556,279.5 1542.1057,291.99853 1520.5,320 l -11.75,16.78516 v 43.73046 l 111.9395,-78.58007 13.0605,-40.18555 -12,-8.25 z"
     sodipodi:nodetypes="ccccccccccc" /><path
     style="fill:#ede6db;fill-opacity:1;stroke:none;stroke-width:4;stroke-linecap:square;stroke-dasharray:none;paint-order:fill markers stroke"
     d="m 1591,321.5 -4.625,4.875 -19.3826,11.69953 -43.0593,9.89671 -49.701,67.95445 22.8897,3.03508 20.3293,9.01561 20.8597,7.24784 27.2236,1.23744 26.163,-7.24785 19.4454,-13.96535 15.3796,-16.97057 11.4905,-23.33452 -2.6517,-25.27907 z"
     id="path7"
     inkscape:label="belly"
     sodipodi:nodetypes="ccccccccccccccc" /><path
     style="fill:#de6f15;fill-opacity:1;stroke:none;stroke-width:4;stroke-linecap:square;stroke-dasharray:none;paint-order:fill markers stroke"
     d="m 1638.8967,268.34702 c -16.0866,-15.02601 -32.7695,-5.9096 -38.8908,-0.53032 -11.6672,10.25304 -18.849,29.39507 -13.9654,52.32589 1.9293,9.05866 9.8995,18.03123 9.8995,18.03123 0,0 -3.3588,25.80939 0.3536,34.64823 3.7123,8.83883 10.4298,14.49569 19.7989,9.72272 9.3692,-4.77297 11.4905,-12.9047 14.1422,-12.55115 2.6516,0.35356 4.9497,9.54594 4.9497,9.54594 l 4.5962,-10.78337 3.0052,-29.34494 -6.5407,-30.75914 8.1317,-31.64303 z"
     id="path6"
     sodipodi:nodetypes="csscssscccccc"
     inkscape:label="red-breast" /><path
     style="fill:#ede6db;fill-opacity:1;stroke:none;stroke-width:4;stroke-linecap:square;stroke-dasharray:none;paint-order:fill markers stroke"
     d="m 1480.4164,391.82554 -32.8804,22.18548 14.0537,3.8007 17.3241,1.94454 5.0382,-17.67767 z"
     id="path11"
     inkscape:label="vent"
     sodipodi:nodetypes="cccccc" /><path
     style="fill:none;fill-opacity:1;stroke:#000000;stroke-width:4;stroke-linecap:square;stroke-dasharray:none;paint-order:fill markers stroke"
     d="m 1604.6341,251.34146 c 32.1952,0 40.6098,28.53659 40.6098,28.53659 0,0 -9.1463,18.65854 -9.1463,29.26829 0,10.60976 6.5853,23.04878 6.5853,35.4878 0,45.00001 -35.8536,91.82927 -82.317,91.82927 -39.7891,0 -51.5806,-17.73242 -77.5263,-17.73242 -27.6522,0 -40.7023,-5.79252 -40.7023,-5.79252 0,0 38.3811,-16.93691 65.5403,-49.41044 20.1089,-24.04363 19.4654,-55.76897 38.9692,-76.85561 15.369,-16.61637 29.3917,-34.08529 57.9873,-35.33096 z"
     id="path1"
     sodipodi:nodetypes="scsssscsas" /><path
     id="path8"
     style="fill:#706249;fill-opacity:1;stroke:none;stroke-width:4;stroke-linecap:square;stroke-dasharray:none;paint-order:fill markers stroke"
     inkscape:label="tail"
     d="m 1508.75,380.51562 v -43.73046 l -4,5.71484 -17,30.5 -6.25,2.5 -22.5625,16.50195 -57.0977,31.37891 -14.8496,11.13672 1.0606,2.82812 4.5957,0.70703 0.5312,5.48047 4.2422,-0.53125 29.5215,-14.84961 70.3574,-39.59765 z"
     sodipodi:nodetypes="ccccccccccccccc" /><path
     style="fill:none;fill-opacity:1;stroke:#000000;stroke-width:4;stroke-linecap:square;stroke-linejoin:round;stroke-dasharray:none;paint-order:fill markers stroke"
     d="m 1489.7561,367.5 c -3.0957,5.36198 -22.1341,20.30488 -51.9512,36.21951 -29.8171,15.91464 -55.0497,28.83436 -51.6713,33.82916 1.4061,2.07881 7.0753,0.57689 7.0753,0.57689 0,0 -0.2625,3.5975 0.9209,4.78888 2.5903,2.60767 8.2488,-0.62134 12.1934,-3.12785 8.3992,-5.33716 62.2335,-34.82576 75.4451,-43.27439 15.5582,-9.94927 7.9878,-29.0122 7.9878,-29.0122 z"
     id="path2"
     sodipodi:nodetypes="csscsssc" /><path
     style="fill:#706249;fill-opacity:1;stroke:none;stroke-width:4;stroke-linecap:square;stroke-dasharray:none;paint-order:fill markers stroke"
     d="m 1552.9052,283.98119 -42.5609,36.71221 -32.9774,31.24185 -16.5932,21.08716 -12.2144,27.09353 -22.2105,26.05644 5.387,1.10909 35.9735,-14.79993 44.3634,-15.88021 14.3463,-5.21419 23.0316,-15.1672 16.2187,-15.5489 6.7913,-13.15067 -1.21,-11.4798 -7.8932,-8.7719 -12.0559,-0.95063 z"
     id="path9"
     inkscape:label="wing"
     sodipodi:nodetypes="ccccccccccccccccc"
     inkscape:transform-center-x="49.948621"
     inkscape:transform-center-y="70.163862" /><path
     style="fill:none;fill-opacity:1;stroke:#000000;stroke-width:4;stroke-linecap:square;stroke-linejoin:round;stroke-dasharray:none;paint-order:fill markers stroke"
     d="m 1547.0305,286.13617 c -6.652,6.60155 -18.6283,17.74951 -27.6171,26.94987 -21.2951,21.79644 -51.9407,46.05037 -62.307,66.8949 -10.3665,20.84449 -3.8401,14.38682 -11.6812,24.35179 -7.8413,9.96497 -19.7192,23.20766 -19.7192,23.20766 0,0 4.7717,-0.0448 13.7777,-3.42003 9.0058,-3.37523 54.2042,-23.07896 68.8657,-26.194 19.5084,-4.14477 75.876,-37.89399 61.8155,-62.91363"
     id="path4"
     sodipodi:nodetypes="casscssc"
     inkscape:transform-center-x="50.331632"
     inkscape:transform-center-y="70.712316" /><path
     style="fill:#000000;fill-opacity:1;stroke:none;stroke-width:4;stroke-linecap:square;stroke-dasharray:none;paint-order:fill markers stroke"
     d="m 1571.4195,333.54789 c -1.5911,-6.86463 -16.9651,-11.08903 -23.0084,-7.59774 -1.8777,1.08477 -3.6265,2.43459 -3.6265,2.43459 0,0 4.864,-1.43189 8.8771,-0.94139 3.1738,0.38788 11.3558,2.34987 13.8688,7.0543 1.8923,3.54237 3.889,-0.94976 3.889,-0.94976 z"
     id="path5"
     sodipodi:nodetypes="cscssc"
     inkscape:transform-center-x="-13.198711"
     inkscape:transform-center-y="39.920445" /><circle
     style="fill:#000000;fill-opacity:1;stroke:none;stroke-width:4.67925;stroke-linecap:square;stroke-dasharray:none;paint-order:fill markers stroke"
     id="path14"
     cx="1609.0625"
     cy="279.5625"
     r="7.75" /><circle
     style="fill:#ffffff;fill-opacity:1;stroke:none;stroke-width:4;stroke-linecap:square;stroke-dasharray:none;paint-order:fill markers stroke"
     id="path15"
     cx="1610.0625"
     cy="276.625"
     r="2.5625" /><path
     style="fill:#453f33;fill-opacity:1;stroke:#000000;stroke-width:3;stroke-linecap:square;stroke-linejoin:round;stroke-dasharray:none;stroke-opacity:1;paint-order:fill markers stroke"
     d="m 1642.0787,274.71098 c -2.5341,4.00675 -7.8284,7.3711 -12.8605,9.54594 4.1097,0.40853 9.027,1.46336 11.4021,3.35877 9.7244,-1.49887 17.5061,-4.92323 23.9533,-7.77818 -6.5117,-3.12925 -16.5127,-5.13808 -22.4949,-5.12653 z"
     id="path16"
     sodipodi:nodetypes="ccccc" /><path
     d="m 1677.5019,408.09063 c 0,0 0.4304,3.14562 -0.476,4.2423 -1.3797,1.6686 -3.8524,2.8207 -6.2037,1.92446 -2.3519,-0.89623 -1.3591,-1.54243 -4.4098,-2.77525 3.3223,0.78393 3.1053,-0.54653 5.4288,0.45626 0.6697,0.28907 2.4635,-0.20359 3.4329,-0.87846 1.0608,-0.73852 1.197,-1.13068 2.2055,-3.18939"
     style="display:inline;fill:#2d2e2d;fill-opacity:1;stroke:none;stroke-width:4.19659;stroke-linecap:square;stroke-linejoin:round;stroke-dasharray:none;stroke-opacity:1;paint-order:fill markers stroke"
     id="path26"
     sodipodi:nodetypes="cascsac"
     inkscape:transform-center-x="-72.769958"
     inkscape:transform-center-y="-17.353986" /><path
     d="m 1677.3753,409.35179 c 0,0 0.5421,5.09641 -0.993,6.79414 -1.7488,1.93432 -5.2366,2.79949 -7.5881,1.90324 -2.3517,-0.89622 -1.2399,-1.93506 -4.2907,-3.16789 3.3222,0.78393 3.2546,-0.0411 5.6203,0.85744 1.1792,0.44771 3.648,-0.6911 4.9485,-1.8844 1.2882,-1.18182 1.272,-2.66393 2.2804,-4.72264"
     style="display:inline;fill:#2d2e2d;fill-opacity:1;stroke:none;stroke-width:4.19659;stroke-linecap:square;stroke-linejoin:round;stroke-dasharray:none;stroke-opacity:1;paint-order:fill markers stroke"
     id="path28"
     sodipodi:nodetypes="cascsac"
     inkscape:transform-center-x="-71.675688"
     inkscape:transform-center-y="-14.627448" /><path
     d="m 1675.3942,413.63257 c 0,0 -0.329,5.21656 -2.061,6.86013 -1.2344,1.17138 -2.6082,2.10727 -4.9595,1.21102 -2.3518,-0.89622 -1.4026,-1.20145 -4.4533,-2.43427 3.3223,0.78392 3.1489,-0.8875 5.4724,0.11528 0.6697,0.28908 2.1302,-0.26505 2.9364,-0.8952 1.5545,-1.21497 2.0341,-3.01834 3.0424,-5.07706"
     style="display:inline;fill:#2d2e2d;fill-opacity:1;stroke:none;stroke-width:4.19659;stroke-linecap:square;stroke-linejoin:round;stroke-dasharray:none;stroke-opacity:1;paint-order:fill markers stroke"
     id="path29"
     sodipodi:nodetypes="cascsac"
     inkscape:transform-center-x="-70.253713"
     inkscape:transform-center-y="-10.379338" /></g></svg>
