<?xml version="1.0" encoding="UTF-8" standalone="no"?>
<svg
   xml:space="preserve"
   id="flag_of_iran"
   width="1050"
   height="700"
   data-name="Flag of Iran"
   version="1.1"
   viewBox="0 0 1050 700"
   sodipodi:docname="Union Robin ReDesign.svg"
   inkscape:version="1.4.3 (0d15f75042, 2025-12-25)"
   inkscape:export-filename="Union Robin NeoRobin.png"
   inkscape:export-xdpi="192"
   inkscape:export-ydpi="192"
   xmlns:inkscape="http://www.inkscape.org/namespaces/inkscape"
   xmlns:sodipodi="http://sodipodi.sourceforge.net/DTD/sodipodi-0.dtd"
   xmlns="http://www.w3.org/2000/svg"
   xmlns:svg="http://www.w3.org/2000/svg"><defs
   id="defs1" /><sodipodi:namedview
   id="namedview1"
   pagecolor="#ffffff"
   bordercolor="#000000"
   borderopacity="0.25"
   inkscape:showpageshadow="2"
   inkscape:pageopacity="0.0"
   inkscape:pagecheckerboard="0"
   inkscape:deskcolor="#d1d1d1"
   inkscape:zoom="0.5"
   inkscape:cx="629"
   inkscape:cy="334"
   inkscape:window-width="1800"
   inkscape:window-height="1049"
   inkscape:window-x="0"
   inkscape:window-y="0"
   inkscape:window-maximized="1"
   inkscape:current-layer="flag_of_iran" />
  <path
   id="green_band"
   d="M 0,700 H 1050 V 0 H 0 Z"
   style="fill:#c8102e;fill-opacity:1;stroke-width:1;stroke-dasharray:none" />
  <path
   id="white_band"
   d="M 0,500 H 1050 V 0 H 0 Z"
   style="fill:#ffffff;stroke-width:1.11803" />
  <path
   id="red_band"
   d="M 0,200 H 1050 V 0 H 0 Z"
   style="fill:#012169;fill-opacity:1;stroke-width:1" />
  
<g
   id="g39"
   inkscape:label="neorobin"
   transform="matrix(1.2507324,0,0,1.2507324,-236.19382,-93.980727)"><path
     d="m 691.94091,406.94089 c -1.69225,-0.72479 -5.1103,-1.49025 -7.59567,-1.70104 l -4.51887,-0.38324 3.26972,-4.3199 c 1.79834,-2.37594 3.57314,-4.86207 3.94399,-5.52474 0.63347,-1.13196 0.88201,-1.10755 4.10802,0.40344 2.37575,1.11273 4.07317,1.4804 5.50895,1.19324 3.00377,-0.60075 18.9166,-7.88327 22.58354,-10.33537 2.96236,-1.98095 3.14896,-2.29599 3.62576,-6.12182 0.56508,-4.53417 1.85881,-6.95006 4.3231,-8.07286 1.2652,-0.57647 1.67317,-1.29325 1.67317,-2.9397 0,-3.32814 -1.58095,-4.20464 -8.54669,-4.73841 -6.48495,-0.49693 -8.91249,-1.48428 -9.8722,-4.0153 -1.11652,-2.94459 2.1115,-4.37174 4.33387,-1.91605 1.41473,1.56326 8.79048,2.54624 11.46777,1.52834 1.73035,-0.65788 1.78982,-0.8833 2.21979,-8.4145 0.47512,-8.32188 0.89201,-14.52691 3.45995,-51.49758 0.91421,-13.16191 1.85471,-27.62291 2.09,-32.13557 0.38667,-7.41603 2.69736,-24.14554 3.43719,-24.88536 0.16438,-0.16439 0.32077,0.59851 0.34753,1.69534 0.0268,1.09682 0.2967,4.45567 0.59987,7.46411 0.31169,3.09301 0.0979,27.68414 -0.49208,56.5915 -0.57381,28.11689 -0.86757,51.29735 -0.65279,51.51212 0.21477,0.21477 2.83274,0.55789 5.81771,0.76249 4.89502,0.33551 5.63289,0.21992 7.52466,-1.17872 2.61543,-1.93367 4.24737,-1.4222 4.24737,1.33119 0,3.44401 -2.4265,4.47591 -9.99475,4.25044 -7.58555,-0.226 -9.14984,0.38333 -9.14984,3.56404 0,1.74638 0.38805,2.43608 1.70934,3.0381 0.94013,0.42835 1.7574,1.17002 1.81615,1.64815 0.0588,0.47813 0.21821,1.63853 0.35435,2.57867 0.59042,4.07706 -0.10813,9.9582 -1.36876,11.5238 -0.41005,0.50924 -1.45047,1.19391 -2.31205,1.52148 -1.2575,0.4781 -1.56221,1.10469 -1.54476,3.17651 0.012,1.41951 0.47348,3.17818 1.0256,3.90815 2.68539,3.5504 0.01,8.58695 -4.56184,8.58695 -4.62795,0 -7.19662,-5.69854 -4.00659,-8.88856 0.7521,-0.75211 1.36747,-2.25206 1.36747,-3.33321 0,-1.6514 -0.33906,-2.03355 -2.12028,-2.3898 -1.80028,-0.36005 -3.82893,0.52995 -13.44197,5.89722 -6.22693,3.4767 -12.73407,7.58419 -14.46031,9.12776 l -3.13861,2.80649 z"
     style="fill:#012169;fill-opacity:1"
     id="path1-45" /><path
     d="m 596.76959,472.99526 c 1.36083,-1.21644 3.49526,-2.1218 6.30585,-2.67475 4.64665,-0.91417 6.76216,-2.46818 6.76216,-4.96735 0,-1.71996 -5.79724,-19.19686 -8.08173,-24.36393 -0.74818,-1.69224 -4.33133,-6.35531 -4.33133,-6.35531 3.95655,0.62125 8.73595,0.95768 12.66601,0.50162 l -1.85759,2.53693 1.24226,4.90612 c 0.68324,2.69837 2.48292,8.75214 3.99929,13.45282 4.03887,12.52031 6.73998,14.49611 18.07661,13.22258 6.5342,-0.73403 12.58639,0.15373 17.30514,2.53839 6.22194,3.1443 6.07301,3.16273 -25.05321,3.1002 l -29.09061,-0.0584 z"
     style="fill:#012169;fill-opacity:1"
     id="path1-4"
     sodipodi:nodetypes="sssscccssssscs" /><path
     id="path27"
     style="baseline-shift:baseline;display:inline;overflow:visible;vector-effect:none;fill:#f3e7d5;fill-opacity:1;stroke-width:0.904266;stroke-linecap:square;paint-order:fill markers stroke;enable-background:accumulate;stop-color:#000000"
     d="m 636.03482,327.92572 c -0.72358,0.96697 -1.35239,1.91383 -1.86859,2.82937 -1.92836,3.42021 -2.45953,8.13237 -2.70396,12.91405 -0.24443,4.78167 -0.16501,9.55645 -1.60366,13.42623 l -0.0106,0.0265 -0.0106,0.0265 c -8.44524,20.76906 -29.89836,37.78082 -50.96917,50.30687 -12.84298,7.63482 -25.53467,13.56935 -35.20281,17.54135 1.80196,-0.16616 3.58631,-0.35521 5.34436,-0.59166 12.93347,-1.76443 22.93906,1.28032 34.19433,3.97206 11.25527,2.69176 23.87605,5.11412 42.77249,2.53619 31.75039,-4.33152 55.44316,-31.6037 62.71758,-60.34211 -1.33913,-1.94659 -2.80635,-3.79076 -4.65733,-5.26664 -3.04711,5.1008 -6.15664,9.90191 -11.02781,13.50218 -4.61148,3.20084 -9.38396,3.66774 -13.40326,2.01517 -4.01931,-1.65258 -7.2342,-5.14525 -9.74206,-9.39412 -2.82046,-4.77838 -3.85013,-13.08616 -4.48954,-20.50848 -0.60105,-6.9774 -0.63125,-12.28727 -0.63758,-12.99 -0.76903,-0.66058 -5.19441,-4.51847 -8.7018,-10.00344 z"
     sodipodi:nodetypes="csscccsccssccssssccc" /><path
     id="path24"
     style="baseline-shift:baseline;display:inline;overflow:visible;vector-effect:none;fill:#012169;fill-opacity:1;stroke-width:0.904266;stroke-linecap:square;paint-order:fill markers stroke;enable-background:accumulate;stop-color:#000000"
     d="m 651.49565,253.53217 c -1.64908,-0.0404 -3.35877,0.0428 -5.11653,0.28258 -27.98944,3.81844 -40.42568,25.99186 -44.15715,34.27734 -27.639,64.54652 -65.63493,123.48248 -133.86825,145.0696 -1.99111,0.67858 -3.36989,1.09838 -6.00136,1.95159 26.0818,0.0624 53.56594,-4.94098 66.14546,-8.61736 6.98641,-2.04177 27.69184,-9.98124 48.42769,-22.30817 20.72247,-12.31897 41.49928,-29.11041 49.37435,-48.43299 1.02795,-2.77813 1.11666,-7.38287 1.36699,-12.28 0.2507,-4.90447 0.70125,-10.17305 3.18966,-14.58659 0.85894,-1.52346 1.92616,-3.05679 3.14903,-4.58315 -0.41059,-0.85495 -0.78467,-1.73519 -1.10913,-2.63686 -7.92892,-22.0339 -3.48211,-42.18139 6.94271,-54.20651 3.36835,-3.8854 10.89102,-9.20488 20.44136,-10.81764 1.24742,-0.21063 2.52971,-0.35361 3.83783,-0.41681 -3.46165,-1.39358 -7.78,-2.57641 -12.62263,-2.69514 z"
     sodipodi:nodetypes="scsacsscssccsscss" /><path
     id="path37"
     style="baseline-shift:baseline;display:inline;overflow:visible;vector-effect:none;fill:#c8102e;fill-opacity:1;stroke-width:0.904266;stroke-linecap:square;enable-background:accumulate;stop-color:#000000"
     d="m 666.875,260.10742 c -2.03701,-0.0951 -4.02737,0.0489 -5.94727,0.37305 -8.44822,1.42665 -15.57042,6.55556 -18.14843,9.5293 -9.37052,10.80897 -13.739,29.45439 -6.22266,50.34179 2.7698,7.69693 11.34961,15.25977 11.34961,15.25977 l 0.67578,0.57812 0.004,0.88672 c 0,-10e-6 0.0399,6.26448 0.66406,13.50977 0.62414,7.24528 2.0427,15.61013 3.96289,18.86328 v 0.002 c 2.23268,3.78264 4.99743,6.59111 7.87305,7.77344 2.8756,1.18233 5.9134,1.01657 9.70508,-1.61523 3.88325,-2.69536 6.0307,-5.87899 7.59765,-8.54883 0.78348,-1.33493 1.39908,-2.52976 2.10352,-3.55078 0.35223,-0.51053 0.72612,-0.98956 1.25586,-1.41407 0.52933,-0.4242 1.29678,-0.7883 2.12695,-0.79101 h 0.002 c 1.25669,-0.004 2.08246,0.56071 2.85743,1.15039 0.77535,0.58999 1.49388,1.31381 2.18945,2.09375 0.31221,0.35008 0.48635,0.6594 0.7832,1.02344 1.75054,-9.36032 2.17178,-18.90515 0.91211,-28.13868 -1.54288,-11.3094 -9.51358,-22.31731 -11.01758,-33.34179 -0.68223,-5.00079 0.27217,-11.36092 1.49414,-17.02539 l -0.0273,-0.0215 c -1.97828,-1.57874 -7.19297,-2.86696 -11.47852,-3.29297 l -5.76172,-0.57422 5.31446,-2.29687 c 5.24817,-2.26823 10.73959,-5.85993 13.16406,-9.69336 l 0.0352,-0.0547 c -1.81819,-2.71355 -4.89865,-6.53922 -9.55664,-10.01758 -1.99749,-0.57029 -3.9777,-0.91756 -5.91016,-1.00781 z" /><path
     id="path35"
     style="baseline-shift:baseline;display:inline;overflow:visible;vector-effect:none;fill:#012169;fill-opacity:1;stroke-linecap:square;paint-order:fill markers stroke;enable-background:accumulate;stop-color:#000000"
     d="m 684.23242,273.53516 c -2.30596,3.22292 -5.82201,5.93161 -9.65039,8.02734 2.87303,0.55171 5.61055,1.33358 7.66602,2.72852 8.48699,-1.37067 15.36904,-4.10677 21.48633,-6.75391 -6.319,-2.35374 -14.27999,-3.90245 -19.50196,-4.00195 z" /><circle
     style="fill:#ffffff;stroke:none;stroke-width:7.66667;stroke-linecap:square;stroke-linejoin:miter;stroke-dasharray:none;stroke-opacity:1;paint-order:normal"
     id="path38"
     cx="655.22406"
     cy="278.09906"
     r="5.75" /></g></svg>
