<?xml version="1.0" encoding="UTF-8" standalone="no"?>
<svg
   width="1200"
   height="600"
   version="1.1"
   viewBox="-15 -7.5 30 15"
   xml:space="preserve"
   zoomAndPan="magnify"
   id="svg2517"
   sodipodi:docname="Union Robin Jack.svg"
   inkscape:version="1.4.3 (0d15f75042, 2025-12-25)"
   inkscape:export-filename="Union Robin Jack.png"
   inkscape:export-xdpi="160"
   inkscape:export-ydpi="160"
   xmlns:inkscape="http://www.inkscape.org/namespaces/inkscape"
   xmlns:sodipodi="http://sodipodi.sourceforge.net/DTD/sodipodi-0.dtd"
   xmlns="http://www.w3.org/2000/svg"
   xmlns:svg="http://www.w3.org/2000/svg"
   xmlns:rdf="http://www.w3.org/1999/02/22-rdf-syntax-ns#"
   xmlns:cc="http://creativecommons.org/ns#"
   xmlns:dc="http://purl.org/dc/elements/1.1/"><sodipodi:namedview
     id="namedview2517"
     pagecolor="#ffffff"
     bordercolor="#000000"
     borderopacity="0.25"
     inkscape:showpageshadow="2"
     inkscape:pageopacity="0.0"
     inkscape:pagecheckerboard="0"
     inkscape:deskcolor="#d1d1d1"
     inkscape:zoom="0.68333333"
     inkscape:cx="637.31707"
     inkscape:cy="283.90244"
     inkscape:window-width="1800"
     inkscape:window-height="1049"
     inkscape:window-x="0"
     inkscape:window-y="0"
     inkscape:window-maximized="1"
     inkscape:current-layer="svg2517" /><metadata
     id="metadata1"><rdf:RDF><cc:Work
         rdf:about=""><dc:format>image/svg+xml</dc:format><dc:type
           rdf:resource="http://purl.org/dc/dcmitype/StillImage" /></cc:Work></rdf:RDF></metadata><defs
     id="defs1"><clipPath
       id="a"><rect
         x="-15"
         y="-7.5"
         width="30"
         height="15"
         id="rect1" /></clipPath></defs><g
     clip-path="url(#a)"
     id="g5"><circle
       r="20"
       fill="#00247d"
       id="circle1" /><path
       d="m-20-10 40 20m-40 0 40-20"
       stroke="#fff"
       stroke-width="3"
       id="path1" /><path
       d="m-20-10 40 20m-40 0 40-20"
       stroke="#cf142b"
       stroke-width="2"
       id="path2" /><path
       d="m0 0 20 10h-3l-20-10m3 0 20-10h3l-20 10m-3 0-20 10h-3l20-10m3 0-20-10h3l20 10"
       fill="#fff"
       id="path3" /><comment>I think the above two lines give the simplest way to make the diagonals</comment><path
       d="m-20 0h40m-20-10v20"
       stroke="#fff"
       stroke-width="5"
       id="path4" /><path
       d="m-20 0h40m-20-10v20"
       stroke="#cf142b"
       stroke-width="3"
       id="path5" /></g><comment>Central wreath follows</comment><path
     d="m 4.3558569,-1.04e-5 c 0,2.405679 -1.9501879,4.3558669 -4.3558669,4.3558669 -2.405679,0 -4.3558669,-1.9501879 -4.3558669,-4.3558669 0,-2.405679 1.9501879,-4.3558669 4.3558669,-4.3558669 2.405679,0 4.3558669,1.9501879 4.3558669,4.3558669 z"
     fill="#ffffff"
     id="path6"
     style="stroke:#cf142b;stroke-width:0.402955;stroke-dasharray:none;stroke-opacity:1" /><g
     id="g30"
     inkscape:label="robin"
     transform="matrix(0.01847042,0,0,0.01847042,-28.907966,-7.0090754)"><path
       style="fill:#2d2e2d;fill-opacity:1;stroke:none;stroke-width:3;stroke-linecap:square;stroke-linejoin:round;stroke-dasharray:none;stroke-opacity:1;paint-order:fill markers stroke"
       d="m 1661.8727,405.88864 9.4389,-0.89974 1.3501,2.42711 -1.2183,2.00905 -2.2675,-0.8447 c -1.7867,0.0309 -4.3889,-0.80886 -5.9161,0.44768 -0.975,0.80215 -1.756,1.48965 -1.0081,3.65102 l -2.2768,-3.69368 z"
       id="path30"
       sodipodi:nodetypes="cccccaccc"
       inkscape:transform-center-x="-66.679887"
       inkscape:transform-center-y="-19.908055" /><g
       id="g22"
       inkscape:label="sword"
       transform="rotate(7.288058,1629.5028,421.83575)"
       inkscape:transform-center-x="-101.70262"
       inkscape:transform-center-y="-88.259839"><path
         style="fill:#ffffff;fill-opacity:1;stroke:#000000;stroke-width:3;stroke-linecap:square;stroke-linejoin:round;stroke-dasharray:none;stroke-opacity:1;paint-order:fill markers stroke"
         d="m 1668.772,386.78741 6.0988,-17.01476 c 0,0 44.1942,-131.38928 47.4645,-130.15184 3.2704,1.23744 -39.2444,132.31736 -39.2444,132.31736 l -5.922,18.47316 z"
         id="path21" /><path
         style="fill:#ffffff;fill-opacity:1;stroke:#000000;stroke-width:3;stroke-linecap:square;stroke-linejoin:round;stroke-dasharray:none;stroke-opacity:1;paint-order:fill markers stroke"
         d="m 1669.375,386.125 -6.75,20.125 -3.125,15.125 4.875,1.625 7.375,-14.875 6.1875,-19.375 z"
         id="path18"
         sodipodi:nodetypes="ccccccc" /><circle
         style="fill:#ffffff;fill-opacity:1;stroke:#000000;stroke-width:3.17256;stroke-linecap:square;stroke-linejoin:round;stroke-dasharray:none;stroke-opacity:1;paint-order:fill markers stroke"
         id="path19"
         cx="1660.0938"
         cy="427.375"
         r="5.8824668" /><path
         style="fill:#ffffff;fill-opacity:1;stroke:#000000;stroke-width:3;stroke-linecap:square;stroke-linejoin:round;stroke-dasharray:none;stroke-opacity:1;paint-order:fill markers stroke"
         d="m 1657.75,374.4375 -3.625,9.375 c 12.9453,3.16034 25.0926,7.5748 36.875,12.5625 l 2.8125,-9.5625 c -14.0987,0.87501 -26.44,-3.40298 -36.0625,-12.375 z"
         id="path20"
         sodipodi:nodetypes="ccccc" /></g><path
       d="m 1662.5339,407.49576 c -0.1734,0.81122 -0.3438,1.45619 -0.6259,2.49417 -0.3457,1.27145 0.7979,2.7908 1.4442,3.89388 1.036,1.76833 3.8829,3.38104 5.1268,3.52459 2.4958,0.28785 1.5612,0.60305 4.8479,1.42841 -3.2523,-0.30575 -2.248,1.49876 -4.7304,1.21546 -2.4821,-0.28326 -6.4142,-1.60969 -8.5661,-3.86041 -1.78,-1.86176 -1.4556,-6.42308 -2.8832,-6.80176 l 5.6861,-3.04944 z"
       style="display:inline;fill:#2d2e2d;fill-opacity:1;stroke:none;stroke-width:4.16612;stroke-linecap:square;stroke-linejoin:round;stroke-dasharray:none;stroke-opacity:1;paint-order:fill markers stroke"
       id="path1-3"
       sodipodi:nodetypes="csscsssccc"
       inkscape:transform-center-x="-65.522593"
       inkscape:transform-center-y="-15.222549" /><path
       style="fill:#2d2e2d;fill-opacity:1;stroke:none;stroke-width:3;stroke-linecap:square;stroke-linejoin:round;stroke-dasharray:none;stroke-opacity:1;paint-order:fill markers stroke"
       d="m 1606.3369,431.3575 c 0,0 32.3751,-12.49181 48.9801,-17.46447 5.191,-1.8899 6.2975,-3.79463 6.8771,-8.02368 -2.3167,0.25249 -7.2933,1.56787 -10.1871,2.40542 -10.0331,2.90395 -21.6345,8.21235 -21.6345,8.21235 l -25.2737,9.03076 z"
       id="path22"
       sodipodi:nodetypes="cccsccc"
       inkscape:transform-center-x="-31.710278"
       inkscape:transform-center-y="-9.4408372" /><path
       style="fill:#2d2e2d;fill-opacity:1;stroke:none;stroke-width:3;stroke-linecap:square;stroke-linejoin:round;stroke-dasharray:none;stroke-opacity:1;paint-order:fill markers stroke"
       d="m 1541.375,445.3125 23.5,49.3125 c 0,0 0.7556,1.65752 0,2.09375 -0.7556,0.43623 -4.8094,3.11736 -8.5217,3.29413 -3.7123,0.17678 -7.2037,-0.0759 -9.6785,0.18921 -2.4749,0.26517 -5.5685,3.57973 -6.4082,5.17072 -0.8397,1.59099 -0.8397,3.35876 -0.8397,3.35876 0,0 1.0418,-1.95673 1.6668,-1.75361 0.625,0.20313 1.2032,0.10938 1.625,-0.6875 0.4219,-0.79687 2.25,-2.34375 4.5157,-1.8125 2.2656,0.53125 1.5312,1.8125 2.5156,2.35938 0.9844,0.54687 2.5625,-1.14984 5.0937,-1.64984 2.5313,-0.5 10.8438,-3.1875 14.4063,-3.125 3.5625,0.0625 3.7962,-2.83821 7.5969,-1.55658 3.8007,1.28163 10.06,1.98441 12.3365,2.2454 1.2825,0.14703 1.4877,2.06194 2.4675,2.14112 1.2751,0.10306 1.1943,4.71748 1.1943,4.71748 0,0 1.5181,-3.99084 0.7513,-6.47445 -1.0089,-3.26767 -3.6173,-4.72606 -3.6173,-4.72606 0,0 5.9565,-1.41301 9.2289,-0.0272 1.5354,0.65023 1.2834,1.77226 2.2163,1.67761 1.5985,-0.1622 1.7682,2.97994 1.7682,2.97994 0,0 0.9823,-4.69953 -0.8927,-6.26203 -1.875,-1.5625 -6.9808,-4.64043 -13.1998,-3.321 -7.1355,1.51387 -14.2812,2.36859 -17.2187,-0.13141 -2.9375,-2.5 -12.0689,-23.26283 -12.0689,-23.26283 l -11.5,-24.25 z"
       id="path17"
       sodipodi:nodetypes="ccsssscssssssssscscsscsssccc" /><ellipse
       style="fill:#dbccb7;fill-opacity:1;stroke:#000000;stroke-width:4;stroke-linecap:square;stroke-dasharray:none;paint-order:fill markers stroke"
       id="path12"
       cx="1543.7928"
       cy="431.89276"
       rx="9.375"
       ry="13.75" /><ellipse
       style="fill:#dbccb7;fill-opacity:1;stroke:#000000;stroke-width:3.72026;stroke-linecap:square;stroke-dasharray:none;paint-order:fill markers stroke"
       id="path13"
       cx="1600.5"
       cy="423.75"
       rx="7.6398721"
       ry="8.8898726" /><path
       id="path10"
       style="fill:#706249;fill-opacity:1;stroke:none;stroke-width:4;stroke-linecap:square;stroke-dasharray:none;paint-order:fill markers stroke"
       inkscape:label="back"
       d="m 1599.5,251.5 -25.25,8.25 -18.25,19.75 -12.5,18.25 -23,22.25 -11.75,16.78516 v 43.73046 l 111.9395,-78.58007 13.0605,-40.18555 -12,-8.25 z" /><path
       style="fill:#ede6db;fill-opacity:1;stroke:none;stroke-width:4;stroke-linecap:square;stroke-dasharray:none;paint-order:fill markers stroke"
       d="m 1591,321.5 -4.625,4.875 0.5,14 -15.125,26 -25.1307,22.71051 -49.4975,29.87526 20.3293,9.01561 20.8597,7.24784 27.2236,1.23744 26.163,-7.24785 19.4454,-13.96535 15.3796,-16.97057 11.4905,-23.33452 -2.6517,-25.27907 z"
       id="path7"
       inkscape:label="belly" /><path
       style="fill:#de6f15;fill-opacity:1;stroke:none;stroke-width:4;stroke-linecap:square;stroke-dasharray:none;paint-order:fill markers stroke"
       d="m 1638.8967,268.34702 c -16.0866,-15.02601 -32.7695,-5.9096 -38.8908,-0.53032 -11.6672,10.25304 -18.849,29.39507 -13.9654,52.32589 1.9293,9.05866 9.8995,18.03123 9.8995,18.03123 0,0 -3.3588,25.80939 0.3536,34.64823 3.7123,8.83883 10.4298,14.49569 19.7989,9.72272 9.3692,-4.77297 11.4905,-12.9047 14.1422,-12.55115 2.6516,0.35356 4.9497,9.54594 4.9497,9.54594 l 4.5962,-10.78337 3.0052,-29.34494 -6.5407,-30.75914 8.1317,-31.64303 z"
       id="path6-6"
       sodipodi:nodetypes="csscssscccccc"
       inkscape:label="red-breast" /><path
       style="fill:#ede6db;fill-opacity:1;stroke:none;stroke-width:4;stroke-linecap:square;stroke-dasharray:none;paint-order:fill markers stroke"
       d="m 1480.4164,391.82554 -32.8804,22.18548 14.0537,3.8007 17.3241,1.94454 5.0382,-17.67767 z"
       id="path11"
       inkscape:label="vent" /><path
       style="fill:none;fill-opacity:1;stroke:#000000;stroke-width:4;stroke-linecap:square;stroke-dasharray:none;paint-order:fill markers stroke"
       d="m 1604.6341,251.34146 c 32.1952,0 40.6098,28.53659 40.6098,28.53659 0,0 -9.1463,18.65854 -9.1463,29.26829 0,10.60976 6.5853,23.04878 6.5853,35.4878 0,45.00001 -35.8536,91.82927 -82.317,91.82927 -39.7891,0 -51.5806,-17.73242 -77.5263,-17.73242 -27.6522,0 -40.7023,-5.79252 -40.7023,-5.79252 0,0 38.3811,-16.93691 65.5403,-49.41044 20.1089,-24.04363 17.6607,-45.60323 30.4291,-60.18216 5.3293,-6.08499 16.1114,-25.45509 21.834,-30.81906 11.891,-11.14577 20.913,-21.18535 44.6934,-21.18535 z"
       id="path1-7"
       sodipodi:nodetypes="scsssscssss" /><path
       id="path8"
       style="fill:#706249;fill-opacity:1;stroke:none;stroke-width:4;stroke-linecap:square;stroke-dasharray:none;paint-order:fill markers stroke"
       inkscape:label="tail"
       d="m 1508.75,380.51562 v -43.73046 l -4,5.71484 -17,30.5 -6.25,2.5 -22.5625,16.50195 -57.0977,31.37891 -14.8496,11.13672 1.0606,2.82812 4.5957,0.70703 0.5312,5.48047 4.2422,-0.53125 29.5215,-14.84961 70.3574,-39.59765 z" /><path
       style="fill:none;fill-opacity:1;stroke:#000000;stroke-width:4;stroke-linecap:square;stroke-linejoin:round;stroke-dasharray:none;paint-order:fill markers stroke"
       d="m 1489.7561,367.5 c -3.0957,5.36198 -22.1341,20.30488 -51.9512,36.21951 -29.8171,15.91464 -55.0497,28.83436 -51.6713,33.82916 1.4061,2.07881 7.0753,0.57689 7.0753,0.57689 0,0 -0.2625,3.5975 0.9209,4.78888 2.5903,2.60767 8.2488,-0.62134 12.1934,-3.12785 8.3992,-5.33716 62.2335,-34.82576 75.4451,-43.27439 15.5582,-9.94927 7.9878,-29.0122 7.9878,-29.0122 z"
       id="path2-5"
       sodipodi:nodetypes="csscsssc" /><path
       style="fill:#706249;fill-opacity:1;stroke:none;stroke-width:4;stroke-linecap:square;stroke-dasharray:none;paint-order:fill markers stroke"
       d="M 1562.8367,279.19365 1521.75,319.5 l -26,37.25 -12,24 -6.5,29 -16.5,30 h 5.5 l 32.25,-21.75 40.25,-24.5 13,-8 19.5,-19.5 12.75,-18.5 4,-14.25 -3.5,-11 -9.5,-7 -12,1.5 z"
       id="path9"
       inkscape:label="wing"
       sodipodi:nodetypes="ccccccccccccccccc" /><path
       style="fill:none;fill-opacity:1;stroke:#000000;stroke-width:4;stroke-linecap:square;stroke-linejoin:round;stroke-dasharray:none;paint-order:fill markers stroke"
       d="m 1552.57,282.08401 c -5.1841,7.80732 -14.4981,22.41924 -22.115,28.61181 -20.0363,16.28953 -42.9438,55.10259 -48.8938,77.60928 -5.9501,22.50669 -0.86,14.86563 -6.5307,26.2071 -5.6707,11.34146 -14.6342,26.70731 -14.6342,26.70731 0,0 4.6647,-1.00609 12.8049,-6.12805 8.1403,-5.12195 48.4369,-33.53526 62.1691,-39.54282 18.2718,-7.99353 66.676,-52.4161 47.859,-74.08643"
       id="path4-3"
       sodipodi:nodetypes="cssscssc" /><path
       style="fill:#000000;fill-opacity:1;stroke:none;stroke-width:4;stroke-linecap:square;stroke-dasharray:none;paint-order:fill markers stroke"
       d="m 1584.1627,319.77449 c -2.9427,-6.40277 -18.8527,-7.44021 -24.0678,-2.802 -1.6204,1.44114 -3.061,3.11586 -3.061,3.11586 0,0 4.4752,-2.38328 8.5048,-2.71212 3.1867,-0.26005 11.5963,0.0117 15.0065,4.1127 2.5678,3.08801 3.6175,-1.71444 3.6175,-1.71444 z"
       id="path5-5"
       sodipodi:nodetypes="cscssc" /><circle
       style="fill:#000000;fill-opacity:1;stroke:none;stroke-width:4.67925;stroke-linecap:square;stroke-dasharray:none;paint-order:fill markers stroke"
       id="path14"
       cx="1609.0625"
       cy="279.5625"
       r="7.75" /><circle
       style="fill:#ffffff;fill-opacity:1;stroke:none;stroke-width:4;stroke-linecap:square;stroke-dasharray:none;paint-order:fill markers stroke"
       id="path15"
       cx="1610.0625"
       cy="276.625"
       r="2.5625" /><path
       style="fill:#453f33;fill-opacity:1;stroke:#000000;stroke-width:3;stroke-linecap:square;stroke-linejoin:round;stroke-dasharray:none;stroke-opacity:1;paint-order:fill markers stroke"
       d="m 1642.0787,274.71098 c -2.5341,4.00675 -7.8284,7.3711 -12.8605,9.54594 4.1097,0.40853 9.027,1.46336 11.4021,3.35877 9.7244,-1.49887 17.5061,-4.92323 23.9533,-7.77818 -6.5117,-3.12925 -16.5127,-5.13808 -22.4949,-5.12653 z"
       id="path16"
       sodipodi:nodetypes="ccccc" /><path
       d="m 1677.5019,408.09063 c 0,0 0.4304,3.14562 -0.476,4.2423 -1.3797,1.6686 -3.8524,2.8207 -6.2037,1.92446 -2.3519,-0.89623 -1.3591,-1.54243 -4.4098,-2.77525 3.3223,0.78393 3.1053,-0.54653 5.4288,0.45626 0.6697,0.28907 2.4635,-0.20359 3.4329,-0.87846 1.0608,-0.73852 1.197,-1.13068 2.2055,-3.18939"
       style="display:inline;fill:#2d2e2d;fill-opacity:1;stroke:none;stroke-width:4.19659;stroke-linecap:square;stroke-linejoin:round;stroke-dasharray:none;stroke-opacity:1;paint-order:fill markers stroke"
       id="path26"
       sodipodi:nodetypes="cascsac"
       inkscape:transform-center-x="-72.769958"
       inkscape:transform-center-y="-17.353986" /><path
       d="m 1677.3753,409.35179 c 0,0 0.5421,5.09641 -0.993,6.79414 -1.7488,1.93432 -5.2366,2.79949 -7.5881,1.90324 -2.3517,-0.89622 -1.2399,-1.93506 -4.2907,-3.16789 3.3222,0.78393 3.2546,-0.0411 5.6203,0.85744 1.1792,0.44771 3.648,-0.6911 4.9485,-1.8844 1.2882,-1.18182 1.272,-2.66393 2.2804,-4.72264"
       style="display:inline;fill:#2d2e2d;fill-opacity:1;stroke:none;stroke-width:4.19659;stroke-linecap:square;stroke-linejoin:round;stroke-dasharray:none;stroke-opacity:1;paint-order:fill markers stroke"
       id="path28"
       sodipodi:nodetypes="cascsac"
       inkscape:transform-center-x="-71.675688"
       inkscape:transform-center-y="-14.627448" /><path
       d="m 1675.3942,413.63257 c 0,0 -0.329,5.21656 -2.061,6.86013 -1.2344,1.17138 -2.6082,2.10727 -4.9595,1.21102 -2.3518,-0.89622 -1.4026,-1.20145 -4.4533,-2.43427 3.3223,0.78392 3.1489,-0.8875 5.4724,0.11528 0.6697,0.28908 2.1302,-0.26505 2.9364,-0.8952 1.5545,-1.21497 2.0341,-3.01834 3.0424,-5.07706"
       style="display:inline;fill:#2d2e2d;fill-opacity:1;stroke:none;stroke-width:4.19659;stroke-linecap:square;stroke-linejoin:round;stroke-dasharray:none;stroke-opacity:1;paint-order:fill markers stroke"
       id="path29"
       sodipodi:nodetypes="cascsac"
       inkscape:transform-center-x="-70.253713"
       inkscape:transform-center-y="-10.379338" /></g></svg>
