<?xml version="1.0" encoding="UTF-8" standalone="no"?>
<!-- Created with Inkscape (http://www.inkscape.org/) -->

<svg
   width="600mm"
   height="300mm"
   viewBox="0 0 600 300"
   version="1.1"
   id="svg1"
   xml:space="preserve"
   sodipodi:docname="Canada Flag beaver red.svg"
   inkscape:version="1.4.3 (0d15f75042, 2025-12-25)"
   inkscape:export-filename="Canada Flag beaver mapel.png"
   inkscape:export-xdpi="96"
   inkscape:export-ydpi="96"
   xmlns:inkscape="http://www.inkscape.org/namespaces/inkscape"
   xmlns:sodipodi="http://sodipodi.sourceforge.net/DTD/sodipodi-0.dtd"
   xmlns:xlink="http://www.w3.org/1999/xlink"
   xmlns="http://www.w3.org/2000/svg"
   xmlns:svg="http://www.w3.org/2000/svg"><sodipodi:namedview
     id="namedview1"
     pagecolor="#ffffff"
     bordercolor="#000000"
     borderopacity="0.25"
     inkscape:showpageshadow="2"
     inkscape:pageopacity="0.0"
     inkscape:pagecheckerboard="0"
     inkscape:deskcolor="#d1d1d1"
     inkscape:document-units="mm"
     inkscape:zoom="0.35355339"
     inkscape:cx="1138.4419"
     inkscape:cy="692.96465"
     inkscape:window-width="1800"
     inkscape:window-height="1049"
     inkscape:window-x="0"
     inkscape:window-y="0"
     inkscape:window-maximized="1"
     inkscape:current-layer="svg1" /><defs
     id="defs1"><inkscape:path-effect
       effect="clone_original"
       linkeditem=""
       id="path-effect2"
       is_visible="true"
       lpeversion="1"
       method="d"
       attributes=""
       css_properties=""
       allow_transforms="true" /><inkscape:path-effect
       effect="offset"
       id="path-effect1"
       is_visible="true"
       lpeversion="1.3"
       linejoin_type="miter"
       unit="mm"
       offset="0"
       miter_limit="4"
       attempt_force_join="false"
       update_on_knot_move="true" /><inkscape:path-effect
       effect="spiro"
       id="path-effect4"
       is_visible="true"
       lpeversion="1" /><inkscape:path-effect
       effect="spiro"
       id="path-effect41"
       is_visible="true"
       lpeversion="1" /><inkscape:path-effect
       effect="spiro"
       id="path-effect35"
       is_visible="true"
       lpeversion="1" /><inkscape:path-effect
       effect="spiro"
       id="path-effect34"
       is_visible="true"
       lpeversion="1" /><inkscape:path-effect
       effect="spiro"
       id="path-effect32"
       is_visible="true"
       lpeversion="1" /><inkscape:path-effect
       effect="spiro"
       id="path-effect29"
       is_visible="true"
       lpeversion="1" /><inkscape:path-effect
       effect="spiro"
       id="path-effect28"
       is_visible="true"
       lpeversion="1" /><inkscape:path-effect
       effect="spiro"
       id="path-effect15"
       is_visible="true"
       lpeversion="1" /><inkscape:path-effect
       effect="spiro"
       id="path-effect15-7"
       is_visible="true"
       lpeversion="1" /><inkscape:path-effect
       effect="spiro"
       id="path-effect15-7-0"
       is_visible="true"
       lpeversion="1" /><inkscape:path-effect
       effect="spiro"
       id="path-effect15-7-0-5"
       is_visible="true"
       lpeversion="1" /><inkscape:path-effect
       effect="spiro"
       id="path-effect41-4"
       is_visible="true"
       lpeversion="1" /><inkscape:path-effect
       effect="spiro"
       id="path-effect41-2"
       is_visible="true"
       lpeversion="1" /></defs><rect
     style="fill:#ffffff;fill-opacity:1;stroke-width:1.36741;stroke-linecap:round"
     id="rect1"
     width="600"
     height="300"
     x="-1.0791016e-06"
     y="-8.2470706e-07"
     inkscape:label="white background" /><rect
     style="fill:#d52b1e;stroke-width:0.683704;stroke-linecap:round;fill-opacity:1"
     id="rect3"
     width="150"
     height="300"
     x="-107.96498"
     y="24.341667"
     inkscape:label="left red rect"
     transform="translate(107.96498,-24.341668)" /><use
     x="0"
     y="0"
     xlink:href="#rect3"
     id="use4"
     transform="translate(450)"
     inkscape:label="right red rect" /><g
     id="g57"
     transform="matrix(0.69068638,0,0,0.69068638,154.18921,94.483266)"
     inkscape:label="sun"
     style="display:none;fill:#ffffff;fill-opacity:1;stroke:#d52b1e;stroke-width:3.61959;stroke-dasharray:none;stroke-opacity:1"><g
       id="g1037"
       transform="rotate(-129.46898,209.9112,38.410587)"
       style="fill:#ffffff;fill-opacity:1;stroke:#d52b1e;stroke-width:3.61959;stroke-dasharray:none;stroke-opacity:1"><g
         id="sun"
         style="fill:#ffffff;fill-opacity:1;stroke:#d52b1e;stroke-width:3.37129;stroke-dasharray:none;stroke-opacity:1"
         transform="matrix(0.98029361,0.4378635,-0.43787402,0.98031717,27.559928,-182.11032)"
         inkscape:label="lights"
         inkscape:transform-center-x="42.853165"
         inkscape:transform-center-y="-20.951078">
      <path
   id="path1-1"
   d="m 161.07119,117.31343 1.58064,-86.247538 -7.64012,-0.0299 1.47133,86.277388 z"
   style="fill:#ffffff;fill-opacity:1;stroke:#d52b1e;stroke-width:3.37129;stroke-dasharray:none;stroke-opacity:1"
   transform="translate(82.691896,2.9184796)" />
      <path
   id="path2"
   d="m 168.96801,51.483322 -12.4375,65.363288 4.49219,0.93359 14.79101,-65.103518 z"
   style="fill:#ffffff;fill-opacity:1;stroke:#d52b1e;stroke-width:3.37129;stroke-dasharray:none;stroke-opacity:1"
   transform="translate(82.691896,2.9184796)" />
      <path
   id="path3"
   d="m 160.88092,118.22819 35.84067,-78.463898 -6.99455,-3.07387 -33.05373,79.708248 z"
   style="fill:#ffffff;fill-opacity:1;stroke:#d52b1e;stroke-width:3.37129;stroke-dasharray:none;stroke-opacity:1"
   transform="translate(82.691896,2.9184796)" />
      <path
   id="path4-8"
   d="m 195.218,59.767 -38.314,56.22218 3.74565,2.64844 L 200.958,63.786 Z"
   style="fill:#ffffff;fill-opacity:1;stroke:#d52b1e;stroke-width:3.37129;stroke-dasharray:none;stroke-opacity:1"
   transform="translate(82.691896,2.9184796)" />
      <path
   id="path5-0"
   d="m 160.34167,118.99121 64.15545,-57.664678 -5.18872,-5.60799 -62.09584,59.917108 z"
   style="fill:#ffffff;fill-opacity:1;stroke:#d52b1e;stroke-width:3.37129;stroke-dasharray:none;stroke-opacity:1"
   transform="translate(82.691896,2.9184796)" />
      <path
   id="path6-2"
   d="m 214.97919,79.172522 -57.39204,36.179948 2.38086,3.92187 58.61313,-34.113348 z"
   style="fill:#ffffff;fill-opacity:1;stroke:#d52b1e;stroke-width:3.37129;stroke-dasharray:none;stroke-opacity:1"
   transform="translate(82.691896,2.9184796)" />
      <path
   id="path7-1"
   d="m 159.54289,119.47592 84.16991,-28.081338 -2.55101,-7.29428 -83.15045,31.050638 z"
   style="fill:#ffffff;fill-opacity:1;stroke:#d52b1e;stroke-width:3.37129;stroke-dasharray:none;stroke-opacity:1"
   transform="translate(82.691896,2.9184796)" />
      <path
   id="path8-0"
   d="m 308.47105,107.18714 -71.76758,11.01563 0.61914,4.54687 72.28516,-8.49219 z"
   style="fill:#ffffff;fill-opacity:1;stroke:#d52b1e;stroke-width:3.37129;stroke-dasharray:none;stroke-opacity:1" />
      <path
   id="path9-2"
   d="M 148.66527,51.450122 141.816,52.624 l 14.715,65.1562 4.492,-0.9332 z"
   style="fill:#ffffff;fill-opacity:1;stroke:#d52b1e;stroke-width:3.37129;stroke-dasharray:none;stroke-opacity:1"
   transform="translate(82.691896,2.9184796)" />
      <path
   id="path10-7"
   d="M 160.88092,116.39867 127.93934,36.674212 c 0,0 -2.38613,1.026453 -3.5792,1.539679 -1.14638,0.493147 -3.43916,1.479441 -3.43916,1.479441 l 35.75233,78.534858 z"
   style="fill:#ffffff;fill-opacity:1;stroke:#d52b1e;stroke-width:3.37129;stroke-dasharray:none;stroke-opacity:1"
   transform="translate(82.691896,2.9184796)"
   sodipodi:nodetypes="ccaccc" />
      
      
      
    </g><use
         x="0"
         y="0"
         xlink:href="#sun"
         id="use56"
         inkscape:transform-center-x="-11.956909"
         inkscape:transform-center-y="40.42891"
         transform="rotate(-119.47272,212.84736,41.214156)"
         inkscape:label="lights-clone"
         style="fill:#ffffff;fill-opacity:1;stroke:#d52b1e;stroke-width:3.61959;stroke-dasharray:none;stroke-opacity:1" /><use
         x="0"
         y="0"
         xlink:href="#sun"
         id="use1037"
         inkscape:transform-center-x="-44.914435"
         inkscape:transform-center-y="-35.39496"
         transform="rotate(119.54177,213.29441,40.874449)"
         style="fill:#ffffff;fill-opacity:1;stroke:#d52b1e;stroke-width:3.61959;stroke-dasharray:none;stroke-opacity:1" /></g><circle
       style="fill:#ffffff;fill-opacity:1;stroke:#d52b1e;stroke-width:3.61959;stroke-linecap:round;stroke-linejoin:round;stroke-dasharray:none;stroke-opacity:1;paint-order:fill markers stroke"
       id="path57"
       cx="-180.39136"
       cy="113.76518"
       r="37.417732"
       inkscape:label="circle"
       transform="rotate(-138.72251)" /></g><path
     id="path1-5"
     d="m 300,34.630643 -17.09062,33.563503 a 3.3460547,3.3460547 0 0 1 -4.68449,1.389897 l -16.83321,-9.729296 10.50145,54.154603 a 3.3460547,3.3460547 0 0 1 -5.71402,2.93423 L 244.404,93.572671 238.99885,106.28769 a 3.3460547,3.3460547 0 0 1 -3.75789,1.95614 l -27.90094,-5.91993 9.57485,29.44528 a 3.3460547,3.3460547 0 0 1 -1.75024,4.06675 l -10.91328,5.0963 48.44058,39.22604 a 3.3460547,3.3460547 0 0 1 1.02956,3.75788 l -5.97143,16.47289 44.2194,-7.77313 a 4.8903878,4.8903878 0 0 1 5.71405,5.0448 l -2.31652,44.42532 h 9.26601 l -2.31651,-44.42532 a 4.8903878,4.8903878 0 0 1 5.71403,-5.0448 l 44.21941,7.77313 -5.97142,-16.47289 a 3.3460547,3.3460547 0 0 1 1.02956,-3.75788 l 48.44058,-39.22604 -10.91329,-5.0963 a 3.3460547,3.3460547 0 0 1 -1.75025,-4.06675 l 9.57486,-29.44528 -27.90095,5.91993 a 3.3460547,3.3460547 0 0 1 -3.75787,-1.95614 l -5.40517,-12.715019 -21.77509,23.370909 a 3.3460547,3.3460547 0 0 1 -5.71404,-2.93423 l 10.50147,-54.154603 -16.83323,9.729296 a 3.3460547,3.3460547 0 0 1 -4.68447,-1.389897 z"
     style="display:inline;fill:#d52b1e;fill-opacity:1;stroke-width:0.0514777" /><g
     inkscape:label="beaver"
     inkscape:groupmode="layer"
     id="layer1"
     transform="matrix(0.8112347,0,0,0.8112347,160.35561,34.806785)"
     style="display:inline"><g
       id="g52"
       inkscape:label="right-arm-bottom"><path
         style="fill:#d52b1e;fill-opacity:1;stroke:none;stroke-width:2.5;stroke-linecap:round;stroke-linejoin:round;stroke-dasharray:none;stroke-opacity:1"
         d="m 96.008439,162.13247 0.04677,14.31228 11.085001,10.05602 18.33469,9.54152 -5.00462,-20.95393 z"
         id="path43" /><path
         style="fill:#d52b1e;fill-opacity:1;stroke:none;stroke-width:2.5;stroke-linecap:round;stroke-linejoin:round;stroke-dasharray:none;stroke-opacity:1"
         d="m 124.02497,195.62134 -18.00729,-9.72861 -9.494748,-9.30766 -0.837197,-7.19878 c 0,0 6.080385,7.10937 10.383425,10.57051 4.30304,3.46114 16.69766,7.95126 16.69766,7.95126 z"
         id="path54"
         sodipodi:nodetypes="ccccscc" /><path
         style="fill:none;fill-opacity:1;stroke:#ffffff;stroke-width:2.5;stroke-linecap:round;stroke-dasharray:none;stroke-opacity:1"
         d="m 94.298385,174.03833 c 7.875405,11.26886 25.162865,21.19315 31.373555,21.44926"
         id="path8" /></g><g
       id="g48"
       inkscape:label="tail"><path
         style="fill:#d52b1e;fill-opacity:1;stroke:none;stroke-width:2.5;stroke-linecap:round;stroke-linejoin:round;stroke-dasharray:none;stroke-opacity:1"
         d="m 222.24653,246.41592 11.50593,4.20949 40.41116,-3.64823 14.59291,3.27405 5.33204,8.41899 -2.7128,8.60608 -13.65747,6.26747 -17.86697,1.77734 -23.29254,-5.14493 -25.91178,-9.9157 z"
         id="path47" /><path
         style="fill:#d52b1e;fill-opacity:1;stroke:none;stroke-width:2.5;stroke-linecap:round;stroke-linejoin:round;stroke-dasharray:none;stroke-opacity:1"
         d="m 213.45334,261.28946 20.48621,7.76418 19.55077,5.61266 14.59291,0.37418 15.43481,-3.46114 c 0,0 14.49937,-13.56393 -9.82213,-8.79317 -24.32153,4.77076 -57.43624,-8.88671 -57.43624,-8.88671 z"
         id="path53"
         sodipodi:nodetypes="cccccscc" /><path
         style="fill:none;fill-opacity:1;stroke:#ffffff;stroke-width:2.5;stroke-linecap:round;stroke-linejoin:round;stroke-dasharray:none;stroke-opacity:1"
         d="m 225.54231,247.91458 c 0,0 3.4394,3.36564 17.84522,1.68184 14.40584,-1.6838 28.62458,-3.83532 39.8499,-1.12253 11.22532,2.71279 14.12518,13.56393 6.73518,19.17659 -7.39,5.61266 -20.11204,8.79316 -35.54685,6.64165 -15.43481,-2.15152 -40.97242,-13.09621 -40.97242,-13.09621"
         id="path19" /><path
         style="fill:none;fill-opacity:1;stroke:#ffffff;stroke-width:2.5;stroke-linecap:round;stroke-linejoin:round;stroke-dasharray:none;stroke-opacity:1"
         d="m 245.29722,249.49337 c -3.83646,2.11667 -16.51377,14.4285 -17.96898,16.8759"
         id="path20"
         sodipodi:nodetypes="cc" /><path
         style="fill:none;fill-opacity:1;stroke:#ffffff;stroke-width:2.5;stroke-linecap:round;stroke-linejoin:round;stroke-dasharray:none;stroke-opacity:1"
         d="m 255.30793,250.29583 c -4.23333,2.4474 -17.33021,14.94896 -18.98385,18.65313"
         id="path21" /><path
         style="fill:none;fill-opacity:1;stroke:#ffffff;stroke-width:2.5;stroke-linecap:round;stroke-linejoin:round;stroke-dasharray:none;stroke-opacity:1"
         d="m 267.6772,250.22969 c -6.74687,3.30729 -19.71146,17.06562 -20.83593,19.11614"
         id="path22" /><path
         style="fill:none;fill-opacity:1;stroke:#ffffff;stroke-width:2.5;stroke-linecap:round;stroke-linejoin:round;stroke-dasharray:none;stroke-opacity:1"
         d="m 277.79752,251.22187 c 0,0 -13.62605,9.78959 -20.30678,18.52084"
         id="path23" /><path
         style="fill:none;fill-opacity:1;stroke:#ffffff;stroke-width:2.5;stroke-linecap:round;stroke-linejoin:round;stroke-dasharray:none;stroke-opacity:1"
         d="m 284.67668,254.92604 c -5.75469,3.24115 -14.35364,13.09687 -15.67656,15.54427"
         id="path24" /><path
         style="fill:none;fill-opacity:1;stroke:#ffffff;stroke-width:2.5;stroke-linecap:round;stroke-linejoin:round;stroke-dasharray:none;stroke-opacity:1"
         d="m 230.04022,254.26458 c 2.51355,1.19063 12.03855,10.45104 12.96459,11.90625"
         id="path25" /><path
         style="fill:none;fill-opacity:1;stroke:#ffffff;stroke-width:2.5;stroke-linecap:round;stroke-linejoin:round;stroke-dasharray:none;stroke-opacity:1"
         d="m 236.05949,250.29583 c 7.9375,5.68855 17.85938,15.61041 21.16667,19.64531"
         id="path26"
         sodipodi:nodetypes="cc" /><path
         style="fill:none;fill-opacity:1;stroke:#ffffff;stroke-width:2.5;stroke-linecap:round;stroke-linejoin:round;stroke-dasharray:none;stroke-opacity:1"
         d="m 247.40918,249.22547 c 9.72344,5.02708 18.01906,15.82088 20.99563,20.98026"
         id="path27"
         sodipodi:nodetypes="cc" /><path
         style="fill:none;fill-opacity:1;stroke:#ffffff;stroke-width:2.5;stroke-linecap:round;stroke-linejoin:round;stroke-dasharray:none;stroke-opacity:1"
         d="m 259.40897,250.16354 c 0,0 15.61042,12.10469 18.52084,17.39635"
         id="path28" /><path
         style="fill:none;fill-opacity:1;stroke:#ffffff;stroke-width:2.5;stroke-linecap:round;stroke-linejoin:round;stroke-dasharray:none;stroke-opacity:1"
         d="m 271.31522,250.16354 c 1.91823,1.05833 12.17084,10.18646 13.62605,13.03073"
         id="path29" /></g><g
       id="g6"
       transform="translate(-100.1936)"
       inkscape:label="sword"
       style="fill:#d52b1e;fill-opacity:1;stroke:#d52b1e;stroke-opacity:1"><rect
         style="fill:#d52b1e;fill-opacity:1;stroke:#d52b1e;stroke-width:2.5;stroke-linecap:round;stroke-dasharray:none;stroke-opacity:1"
         id="rect4"
         width="8.1082067"
         height="21.418879"
         x="187.98091"
         y="153.34898"
         sodipodi:type="rect" /><path
         style="fill:#ffffff;fill-opacity:1;stroke:#d52b1e;stroke-width:2.5;stroke-linecap:round;stroke-dasharray:none;stroke-opacity:1"
         d="M 185.70216,149.4406 V 73.962398 c 0,0 -0.11547,-7.390442 6.33286,-13.838776 6.11474,6.295906 6.33286,13.390567 6.33286,13.390567 V 149.4406 Z"
         id="path5"
         sodipodi:nodetypes="cccccc" /><path
         style="fill:#d52b1e;fill-opacity:1;stroke:#d52b1e;stroke-width:2.5;stroke-linecap:round;stroke-dasharray:none;stroke-opacity:1"
         d="M 192.03502,148.23518 V 99.859349"
         id="path6" /><path
         id="rect5"
         style="display:inline;fill:#ffffff;fill-opacity:1;stroke:#d52b1e;stroke-width:2.5;stroke-linecap:round;stroke-dasharray:none;stroke-opacity:1"
         d="m 176.52474,144.57001 15.51028,3.175 15.51028,-3.175 v 9.25117 h -31.02056 z"
         sodipodi:nodetypes="cccccc" /><circle
         style="display:inline;fill:#ffffff;fill-opacity:1;stroke:#d52b1e;stroke-width:2.5;stroke-linecap:round;stroke-dasharray:none;stroke-opacity:1"
         id="path4"
         cx="192.03502"
         cy="178.74435"
         r="4.8421178" /></g><g
       id="g53"
       inkscape:label="right-arm-top"><path
         style="fill:#d52b1e;fill-opacity:1;stroke:none;stroke-width:2.5;stroke-linecap:round;stroke-linejoin:round;stroke-dasharray:none;stroke-opacity:1"
         d="m 123.87616,170.45781 -13.55989,-0.7276 -7.67292,-4.0349 -3.571874,-6.28385 -5.423959,-1.91823 -1.25677,0.92604 2.116666,4.29948 2.834032,1.26122 10.968075,10.7576 15.87915,0.39756 z"
         id="path42"
         sodipodi:nodetypes="ccccccccccc" /><path
         style="fill:none;fill-opacity:1;stroke:#ffffff;stroke-width:2.5;stroke-linecap:round;stroke-dasharray:none;stroke-opacity:1"
         d="m 123.23888,170.38875 c 0,0 -7.29915,0.96042 -13.31775,-1.1525 -6.0186,-2.11291 -8.19554,-4.48193 -9.60414,-7.61929 -1.408614,-3.13735 -6.657271,-4.73937 -7.627065,-3.45521 -0.622786,0.82466 0.112175,3.81699 3.382413,5.53663"
         id="path7"
         sodipodi:nodetypes="csssc" /><rect
         style="fill:#d52b1e;fill-opacity:1;stroke:#ffffff;stroke-width:2.5;stroke-linecap:round;stroke-dasharray:none;stroke-opacity:1"
         id="rect6"
         width="8.1210804"
         height="13.556666"
         x="85.50705"
         y="158.49709"
         ry="4.8882194"
         sodipodi:type="rect" /></g><g
       id="g45"
       inkscape:label="right-leg"><path
         style="fill:#d52b1e;fill-opacity:1;stroke:none;stroke-width:2.5;stroke-linecap:round;stroke-linejoin:round;stroke-dasharray:none;stroke-opacity:1"
         d="m 133.33502,218.14896 -7.27604,10.84791 -2.51355,12.96459 3.175,10.31875 8.73125,11.37708 h -24.47395 l -7.2216,4.16939 -4.102613,7.10593 h 73.104413 v -57.70969 z"
         id="path45" /><path
         style="fill:none;fill-opacity:1;stroke:#ffffff;stroke-width:2.5;stroke-linecap:round;stroke-linejoin:round;stroke-dasharray:none;stroke-opacity:1"
         d="m 132.39484,219.88213 c 0,0 -9.47609,8.06748 -8.57971,21.51329 0.89639,13.44581 12.42137,22.66579 12.42137,22.66579 h -23.7844 c -10.25241,0 -12.920397,11.07679 -12.920397,11.07679 h 49.480757"
         id="path10"
         sodipodi:nodetypes="cscscc" /><path
         style="fill:none;fill-opacity:1;stroke:#ffffff;stroke-width:2.5;stroke-linecap:round;stroke-linejoin:round;stroke-dasharray:none;stroke-opacity:1"
         d="m 106.84361,275.03437 c 0,-5.62239 4.33255,-6.01927 4.33255,-6.01927"
         id="path30" /><use
         x="0"
         y="0"
         xlink:href="#path30"
         id="use30"
         transform="translate(7.9374998)"
         style="stroke:#682321;stroke-opacity:1" /></g><g
       id="g50"
       inkscape:label="right-ear"
       style="fill:#d52b1e;fill-opacity:1"><path
         id="path40"
         style="fill:#d52b1e;fill-opacity:1;stroke:#ffffff;stroke-width:2.5;stroke-linecap:round;stroke-linejoin:round;stroke-dasharray:none;stroke-opacity:1;paint-order:stroke markers fill"
         d="M 127.74588 114.17363 C 123.00677 114.17363 119.12077 117.99816 119.12077 122.70128 C 119.12077 127.4044 123.00677 131.22638 127.74588 131.22638 C 132.485 131.22638 136.37099 127.4044 136.37099 122.70128 C 136.37099 117.99816 132.485 114.17363 127.74588 114.17363 z " /><g
         id="path14"
         style="opacity:1" /></g><g
       id="g49"
       inkscape:label="left-ear"><path
         id="path41"
         style="fill:#d52b1e;fill-opacity:1;stroke:#ffffff;stroke-width:2.5;stroke-linecap:round;stroke-linejoin:round;stroke-dasharray:none;stroke-opacity:1;paint-order:stroke markers fill"
         d="M 176.59369 114.04305 C 172.4806 114.04305 169.12667 117.41901 169.12667 121.5432 C 169.12667 125.66739 172.4806 129.04271 176.59369 129.04271 C 178.57093 129.04271 180.3729 128.26308 181.71143 126.99473 L 181.83565 127.14697 L 181.82991 126.88006 C 183.20677 125.51745 184.06263 123.62585 184.06263 121.5432 C 184.06263 117.41901 180.70678 114.04305 176.59369 114.04305 z " /></g><g
       id="g56"
       inkscape:label="body"><path
         style="fill:#d52b1e;fill-opacity:1;stroke:none;stroke-width:2.5;stroke-linecap:round;stroke-linejoin:round;stroke-dasharray:none;stroke-opacity:1"
         d="m 121.59281,182.61868 5.0514,25.35051 6.08038,18.9895 6.82874,14.68646 13.65747,14.03165 13.65748,7.5771 36.85646,3.55468 11.4124,-5.79975 11.41241,-13.2833 5.98683,-19.08304 -0.18708,-19.8314 -5.61266,-19.27013 -10.47697,-13.84456 -11.31885,-6.87551 -12.53496,-7.0626 -9.4012,-9.54152 -4.42589,4.94573 -10.92817,3.60787 -11.826,3.66817 -35.41937,-1.78657 z"
         id="path36"
         sodipodi:nodetypes="ccccccccccccccccccccc" /><path
         style="fill:#d52b1e;fill-opacity:1;stroke:none;stroke-width:2.5;stroke-linecap:round;stroke-linejoin:round;stroke-dasharray:none;stroke-opacity:1"
         d="m 170.23587,193.93754 c 0,0 0.37418,10.66406 -5.42557,16.55735 -5.79975,5.89329 -12.25431,7.95127 -12.25431,7.95127 0,0 3.08696,12.16076 8.69963,15.06064 5.61266,2.89987 11.97367,30.49545 11.97367,30.49545 l -8.04482,-0.0935 -16.93152,-12.25431 -12.34785,-17.3057 -7.85773,-21.60874 26.47305,-4.2095 11.50596,-7.76418 z"
         id="path56" /><path
         style="fill:none;fill-opacity:1;stroke:#d52b1e;stroke-width:2.5;stroke-linecap:round;stroke-linejoin:round;stroke-dasharray:none;stroke-opacity:1"
         d="m 180.61696,151.45792 c 0,0 5.98261,12.33788 24.08677,19.85647 17.34978,7.2053 28.16646,32.87929 28.23361,50.71781"
         id="path55"
         sodipodi:nodetypes="csc" /><path
         style="fill:none;fill-opacity:1;stroke:#ffffff;stroke-width:2.5;stroke-linecap:round;stroke-linejoin:round;stroke-dasharray:none;stroke-opacity:1"
         d="m 182.34908,150.68021 c 0,0 0.41264,8.02295 24.27552,18.85156 18.72372,8.49654 26.51934,31.81156 26.32604,51.52761 -0.13229,13.49375 -6.21771,37.30624 -29.89792,46.16978"
         id="path12"
         sodipodi:nodetypes="cssc" /><path
         style="fill:#d52b1e;fill-opacity:1;stroke:none;stroke-width:2.5;stroke-linecap:round;stroke-linejoin:round;stroke-dasharray:none;stroke-opacity:1"
         d="m 153.86561,111.71208 -11.22532,2.15151 -10.00924,5.23849 -6.92229,10.66405 -3.27405,9.63507 -1.87088,13.00266 64.17142,-11.97367 -2.80633,-12.62849 -7.48355,-10.47696 -13.18975,-4.77076 z"
         id="path38" /><path
         style="display:inline;fill:#d52b1e;fill-opacity:1;stroke:none;stroke-width:2.5;stroke-linecap:round;stroke-linejoin:round;stroke-dasharray:none;stroke-opacity:1"
         d="m 120.75092,164.19045 c -0.65482,-17.39925 9.54152,-46.86571 31.43089,-46.86571 21.79584,0 31.71154,14.31228 31.71154,25.44405 0,11.13178 -7.29647,16.27672 -7.29647,16.27672 l -12.16076,6.08038 -15.62191,0.93544 z"
         id="path37"
         sodipodi:nodetypes="csscccc" /><path
         style="fill:none;fill-opacity:1;stroke:#ffffff;stroke-width:2.5;stroke-linecap:round;stroke-linejoin:round;stroke-dasharray:none;stroke-opacity:1"
         d="m 155.33419,166.63918 c 0,0 29.1977,-1.01001 29.1977,-24.16106 0,-23.15104 -15.21354,-30.36093 -30.36094,-30.36093 -15.14739,0 -32.08072,7.0776 -33.66822,41.20885 -1.5875,34.13125 10.18645,75.53854 20.24062,89.42917 10.05417,13.89062 24.20937,21.03437 30.82396,21.03437"
         id="path13"
         sodipodi:nodetypes="cssssc" /></g><g
       id="g46"
       inkscape:label="left-leg"><path
         style="fill:#d52b1e;fill-opacity:1;stroke:none;stroke-width:2.5;stroke-linecap:round;stroke-linejoin:round;stroke-dasharray:none;stroke-opacity:1"
         d="m 193.13085,209.41771 -14.02292,2.91041 -10.98021,6.4823 -5.82083,10.18645 -1.98437,11.2448 1.85208,10.05416 6.61458,9.12813 4.49792,4.10104 h -25.92917 l -5.94299,3.43118 -4.82103,8.35028 h 63.28381 l 3.51484,-2.02929 v -15.04384 l 9.82059,-17.00976 z"
         id="path46" /><path
         d="m 190.64027,212.18654 c 0,0 -21.12342,0.3357 -26.89252,20.58557 -6.10432,21.42651 10.33659,30.96259 10.33659,30.96259"
         style="fill:none;fill-opacity:1;stroke:#d52b1e;stroke-width:2.5;stroke-linecap:round;stroke-linejoin:round;stroke-dasharray:none;stroke-opacity:1"
         id="path1"
         sodipodi:nodetypes="csc" /><path
         style="fill:none;fill-opacity:1;stroke:#ffffff;stroke-width:2.5;stroke-linecap:round;stroke-linejoin:round;stroke-dasharray:none;stroke-opacity:1"
         d="m 190.66001,209.83059 c 0,0 -24.07441,0.64028 -29.32467,22.40968 -5.25027,21.7694 13.18969,31.75772 13.18969,31.75772 h -24.45856 c -10.62859,0 -12.54942,11.14081 -12.54942,11.14081 h 60.7822 c 4.82489,0 6.74016,-3.94142 4.74203,-9.79467 -2.44558,-7.164 5.19008,-13.4791 5.19008,-13.4791"
         id="path11"
         sodipodi:nodetypes="cscscssc" /><use
         x="0"
         y="0"
         xlink:href="#use30"
         id="use31"
         transform="translate(30.691667)"
         style="stroke:#682321;stroke-opacity:1" /><use
         x="0"
         y="0"
         xlink:href="#use31"
         id="use32"
         transform="translate(7.9374998)"
         style="stroke:#682321;stroke-opacity:1" /></g><g
       id="g51"
       inkscape:label="face"><path
         style="fill:#ff8080;fill-opacity:1;stroke:none;stroke-width:2.5;stroke-linecap:round;stroke-linejoin:round;stroke-dasharray:none;stroke-opacity:1"
         d="m 152.64959,137.51721 c -9.92188,0 -25.26771,17.52865 0,17.52865 25.2677,0 9.98802,-17.52865 0,-17.52865 z"
         id="path32" /><path
         style="fill:#ffffff;fill-opacity:1;stroke:none;stroke-width:2.5;stroke-linecap:round;stroke-linejoin:round;stroke-dasharray:none;stroke-opacity:1"
         d="m 152.29874,150.04187 -3.25066,4.8643 1.91765,4.44336 h 3.48453 l 2.62862,-4.55293 z"
         id="path35" /><g
         id="g34"
         transform="translate(0.52916667)"><circle
           style="fill:#d52b1e;fill-opacity:1;stroke:#ffffff;stroke-width:2.5;stroke-linecap:round;stroke-linejoin:round;stroke-dasharray:none;stroke-opacity:1"
           id="path33"
           cx="138.00359"
           cy="133.53371"
           r="3.4377542" /><circle
           style="fill:#ffffff;fill-opacity:1;stroke:none;stroke-width:2.5;stroke-linecap:round;stroke-linejoin:round;stroke-dasharray:none;stroke-opacity:1"
           id="path34"
           cx="138.65976"
           cy="132.52318"
           r="0.49609375" /></g><use
         x="0"
         y="0"
         xlink:href="#g34"
         id="use34"
         transform="translate(27.516668)" /><path
         style="fill:none;fill-opacity:1;stroke:#ffffff;stroke-width:2.5;stroke-linecap:round;stroke-linejoin:round;stroke-dasharray:none;stroke-opacity:1"
         d="m 143.38919,154.78128 c 0,0 4.11675,0.81847 6.61459,-1.32291 2.95391,-2.53236 2.77813,-8.0698 2.77813,-8.0698"
         id="path16"
         sodipodi:nodetypes="csc" /><use
         x="0"
         y="0"
         xlink:href="#path16"
         id="use17"
         transform="matrix(-1,0,0,1,305.63173,0.13229167)"
         style="stroke:#682321;stroke-opacity:1" /><path
         style="fill:#ffffff;fill-opacity:1;stroke:#ffffff;stroke-width:2.5;stroke-linecap:round;stroke-linejoin:round;stroke-dasharray:none;stroke-opacity:1"
         d="m 152.98034,144.92554 c 2.5731,-0.0599 6.68014,-2.73935 5.75944,-5.14284 -1.43661,-3.75029 -10.7095,-3.75332 -12.04803,0.0331 -0.90022,2.54651 3.58837,5.17264 6.28859,5.10977 z"
         id="path17"
         sodipodi:nodetypes="aaaa" /><path
         style="fill:none;fill-opacity:1;stroke:#ffffff;stroke-width:2.5;stroke-linecap:round;stroke-linejoin:round;stroke-dasharray:none;stroke-opacity:1"
         d="m 149.07774,154.58284 c 0,0 0.64025,4.89763 2.37064,4.89763 h 2.32571 c 2.11667,0 2.91042,-5.09607 2.91042,-5.09607"
         id="path18"
         sodipodi:nodetypes="cssc" /></g><g
       id="g47"
       inkscape:label="left-arm"><path
         style="fill:#d52b1e;fill-opacity:1;stroke:none;stroke-width:2.5;stroke-linecap:round;stroke-linejoin:round;stroke-dasharray:none;stroke-opacity:1"
         d="m 149.0013,177.84792 -2.99342,10.7576 -7.01582,6.64164 -18.80241,7.95127 -7.76418,7.5771 -2.15152,8.60607 5.23848,2.80633 5.70621,-1.68379 5.89329,-7.76418 19.45722,-2.24507 10.28986,-3.27405 8.79319,-6.5481 6.17392,-9.63507 -8.04481,-16.93152 z"
         id="path44" /><path
         style="fill:none;fill-opacity:1;stroke:#ffffff;stroke-width:2.5;stroke-linecap:round;stroke-dasharray:none;stroke-opacity:1"
         d="m 148.65026,178.27459 c 0,7.51556 -4.9697,16.3819 -16.57043,19.83019 -13.22029,3.92971 -20.10182,9.86981 -21.55061,17.92866 -1.31533,7.31653 10.05092,7.87774 12.58628,1.72042 2.53537,-6.15732 8.70042,-6.39579 19.19635,-6.88171 9.77926,-0.45274 21.18842,-4.88963 27.79848,-17.11371"
         id="path9"
         sodipodi:nodetypes="cssssc" /></g></g></svg>
