<?xml version="1.0" encoding="UTF-8" standalone="no"?>
<svg
   xml:space="preserve"
   id="flag_of_iran"
   width="900"
   height="600"
   data-name="Flag of Iran"
   version="1.1"
   viewBox="0 0 900 600"
   sodipodi:docname="China-panda.svg"
   inkscape:version="1.4.3 (0d15f75042, 2025-12-25)"
   inkscape:export-filename="China-panda-new-new.png"
   inkscape:export-xdpi="213.33333"
   inkscape:export-ydpi="213.33333"
   xmlns:inkscape="http://www.inkscape.org/namespaces/inkscape"
   xmlns:sodipodi="http://sodipodi.sourceforge.net/DTD/sodipodi-0.dtd"
   xmlns:xlink="http://www.w3.org/1999/xlink"
   xmlns="http://www.w3.org/2000/svg"
   xmlns:svg="http://www.w3.org/2000/svg"><defs
   id="defs1">
	

		
		
		
		
		
	
			
			
			
			
			
			
			
			
			
			
			
			
			
			
			
			
			
			
			
			
		
			
			
			
			
			
			
			
			
			
			
			
			
			
			
			
			
			
			
			
			
		
			
			
			
			
			
			
			
			
			
			
			
			
			
			
			
			
			
			
			
			
		
			
			
			
			
			
			
			
			
			
			
			
			
			
			
			
			
			
			
			
			
		
	
	
	
	
	
	
	
	
	
	
	
	
	
	
	
	
	
	
	
	
</defs><sodipodi:namedview
   id="namedview1"
   pagecolor="#ffffff"
   bordercolor="#000000"
   borderopacity="0.25"
   inkscape:showpageshadow="2"
   inkscape:pageopacity="0.0"
   inkscape:pagecheckerboard="0"
   inkscape:deskcolor="#d1d1d1"
   inkscape:zoom="0.7071068"
   inkscape:cx="342.23967"
   inkscape:cy="222.03152"
   inkscape:window-width="1800"
   inkscape:window-height="1049"
   inkscape:window-x="0"
   inkscape:window-y="0"
   inkscape:window-maximized="1"
   inkscape:current-layer="flag_of_iran" />
  <path
   id="green_band"
   d="M 0,0 H 900 V 600 H 0 Z"
   style="display:inline;fill:#ffff00;fill-opacity:1;stroke-width:0.92582" />
  <path
   id="white_band"
   d="M 0,0 H 900 V 400 H 0 Z"
   style="display:inline;fill:#ffffff;fill-opacity:1;stroke-width:0.925826" />
  <path
   id="red_band"
   d="M 0,0 H 900 V 200 H 0 Z"
   style="fill:#d40000;fill-opacity:1;stroke-width:0.92582" />
  
<g
   id="g1"
   transform="matrix(0.20455181,0,0,0.20455181,224.84378,99.150031)"
   style="display:inline;fill:#ffff00;fill-opacity:1;stroke:none;stroke-width:11.8818;stroke-linecap:square;stroke-linejoin:miter;stroke-dasharray:none;stroke-opacity:1"
   inkscape:label="stars"><path
     id="polygon2557"
     style="fill:#ffff00;fill-opacity:1;stroke:none;stroke-width:11.8818;stroke-linecap:square;stroke-linejoin:miter;stroke-dasharray:none;stroke-opacity:1"
     d="m 989.10937,145.06055 -56.16992,65.77929 -79.91015,-33.09961 45.1914,73.74024 -56.16992,65.7793 84.09961,-20.19922 45.18945,73.75 6.79102,-86.23047 84.10934,-20.18945 -79.91012,-33.10157 z" /><path
     id="polygon2577"
     style="fill:#ffff00;fill-opacity:1;stroke:none;stroke-width:11.8818;stroke-linecap:square;stroke-linejoin:miter;stroke-dasharray:none;stroke-opacity:1"
     d="m 1212.3496,145.06055 6.7812,86.22851 -79.9101,33.10157 84.1093,20.18945 6.7891,86.23047 45.1914,-73.75 84.0996,20.19922 -56.1699,-65.7793 45.1894,-73.74024 -79.9101,33.09961 z" /><path
     id="polygon2597"
     style="fill:#ffff00;fill-opacity:1;stroke:none;stroke-width:11.8818;stroke-linecap:square;stroke-linejoin:miter;stroke-dasharray:none;stroke-opacity:1"
     d="M 1489.5292,-85.91016 1456.4296,-6 l -86.2304,-6.79102 65.7716,56.18165 -33.1016,79.9082 73.75,-45.19922 65.7715,56.17969 -20.1914,-84.10938 73.75,-45.18945 -86.2285,-6.79102 z" /><path
     id="polygon2617"
     style="fill:#ffff00;fill-opacity:1;stroke:none;stroke-width:11.8818;stroke-linecap:square;stroke-linejoin:miter;stroke-dasharray:none;stroke-opacity:1"
     d="m 711.92969,-85.91016 -20.18946,84.09961 -86.23046,6.79102 73.75,45.18945 -20.18946,84.10938 65.76953,-56.17969 73.75,45.19922 -33.09961,-79.9082 65.76954,-56.18165 L 745.0293,-6 Z" /><path
     id="polygon3189"
     style="display:inline;fill:#ffff00;fill-opacity:1;stroke:none;stroke-width:11.8818;stroke-linecap:square;stroke-linejoin:miter;stroke-dasharray:none;stroke-opacity:1"
     d="m 1100.7305,-362.5 -53.461,164.51953 H 874.2793 L 1014.2402,-96.30078 960.7793,68.2207 1100.7305,-33.46094 1240.6796,68.2207 1187.2208,-96.30078 1327.1796,-197.98047 h -172.9902 z" /></g><g
   id="g15"
   transform="matrix(0.50775628,0,0,0.50775628,-317.15886,122.07859)"><g
     id="g13"
     transform="translate(186.08304,36.627417)"
     inkscape:label="sword"><path
       d="m 1120.2852,116.83594 c -2.6749,2.96047 -5.1067,6.12385 -7.3028,9.45898 -1.944,2.93729 -5.9368,9.35068 -6.8287,13.7409 v 0.002 0.002 0.002 0.002 0.0352 c -0.2896,1.4431 -0.498,3.47955 -0.6386,7.29297 -1.9205,25.86079 -0.5602,53.453 -0.6192,79.40039 l -0.1894,82.66993 c -0.1662,-0.12572 15.5495,-5.13912 15.5495,-5.13912 0,0 15.8071,5.01268 15.638,5.14012 l -0.1876,-82.67188 c -0.059,-25.94739 1.2995,-53.5396 -0.621,-79.40039 -0.1397,-3.78855 -0.3502,-5.81558 -0.6368,-7.25781 -0.01,-0.0233 -0.01,-0.047 -0.01,-0.0703 v -0.002 0 0 -0.002 -0.002 0 -0.002 -0.002 -0.002 c -10e-5,-0.001 0,-0.003 0,-0.004 -0.9364,-4.60025 -5.4018,-11.59264 -6.8186,-13.73313 -2.1063,-3.40177 -4.6767,-6.46083 -7.3027,-9.45898 l -0.01,0.004 v -0.004 l -0.01,0.006 z m 0.017,9.6875 c 0.5706,0.30304 2.4007,2.89389 4.0098,5.5625 2.5318,4.41346 3.6471,7.24234 4.5078,10.65039 0.8065,6.56762 0.6985,23.59932 0.7715,82.41406 0.083,66.75906 0.016,83.70155 -0.3984,83.70898 -6e-4,0 0,10e-6 0,0 -3.3177,-0.18328 -9.0036,-6.95977 -9.0036,-6.95977 0,0 -6.4637,6.95977 -8.7677,6.95977 -0.4143,-0.012 -0.4833,-16.96065 -0.4004,-83.70898 0.073,-58.81474 -0.035,-75.84644 0.7715,-82.41406 1.0751,-4.257 2.5647,-7.26325 4.5078,-10.65039 1.7101,-2.83617 3.482,-5.28349 4.0078,-5.5625 z"
       style="fill:#000000"
       id="path1-3"
       sodipodi:nodetypes="ccccccccccccccccsccccccccsccccccccccsscccscccc" /><g
       id="g12"
       inkscape:label="sword-hilt"
       style="fill:#000000"><path
         style="fill:#000000;stroke:none;stroke-width:5;stroke-linecap:square;stroke-dasharray:none;paint-order:fill markers stroke"
         d="m 1109.8041,324.6504 v 55.9746 c 0,4.25 -4.1791,6.125 -4.1791,10.0625 0,3.9375 4.8125,13.46875 14.9062,13.46875 1.2813,-2.10937 0.7188,-4.78125 0,-5.875 -3.2656,0 -9.0179,-6.73159 -9.0312,-7.40625 -0.019,-0.98681 3.6719,-6.34375 4.25,-6.34375 h 6.1562 v -5.4375 h -5.7187 v -54.75271 z"
         id="path12"
         sodipodi:nodetypes="cssccssccccc" /><path
         style="fill:#000000;stroke:none;stroke-width:5;stroke-linecap:square;stroke-dasharray:none;paint-order:fill markers stroke"
         d="M 1120.3099,299.1875 1104.75,309 l -3.625,-6.5625 -15.8125,5.3125 c 0,0 1.25,7.4375 5.375,12.1875 4.125,4.75 6.8125,7 15.125,7 h 16.125 v -5.75 H 1105.5 c -5.4375,0 -7.25,-2.3125 -10.125,-5.1875 -2.875,-2.875 -2.9139,-4.03378 -2.6214,-4.5404 0.2925,-0.50662 5.6373,-2.25506 5.6373,-2.25506 0,0 3.3257,5.17624 5.3199,5.17624 1.9943,0 3.0549,-0.78994 5.4414,-1.91692 2.3865,-1.12695 11.9669,-6.89123 11.9669,-6.89123 z"
         id="path8"
         sodipodi:nodetypes="ccccssccssscsscc" /></g><use
       x="0"
       y="0"
       xlink:href="#g12"
       id="use12"
       transform="matrix(-1,0,0,1,2240.6211,0)" /><path
       d="m 1124.0821,304.9959 -0.094,-4.82226 c -0.052,-1.55695 -0.4409,-16.54566 -0.8633,-35.94336 -0.3844,-17.65348 -0.9145,-41.90715 -1.2383,-56.7168 -0.032,-1.46324 -0.062,-2.83427 -0.09,-4.09765 -0.2769,-12.65062 -0.4564,-19.89194 -0.6465,-24.02149 -0.168,-3.64721 -0.3437,-4.86782 -0.5996,-5.24023 -0.139,-0.24806 -0.3693,-0.20899 -0.4864,0 -0.2559,0.37241 -0.4316,1.59302 -0.5996,5.24023 -0.1901,4.12955 -0.3695,11.37087 -0.6464,24.02149 -0.028,1.26338 -0.058,2.63441 -0.09,4.09765 -0.3238,14.80965 -0.8539,39.06332 -1.2383,56.7168 -0.4224,19.3977 -0.8113,34.38641 -0.8633,35.94336 l -0.094,4.82226"
       style="fill:#000000"
       id="path1-2"
       sodipodi:nodetypes="ccsscsccscsscc" /></g><g
     id="g14"
     inkscape:label="panda"><path
       style="fill:#000000"
       d="m 1681.5628,543.37929 c 0.018,-10.54403 3.7568,-15.25219 12.5568,-19.60006 4.4173,-2.18253 4.8981,-2.87366 4.2567,-6.11905 -0.7326,-3.70644 -2.5599,-6.76084 -6.3316,-10.58351 -3.9464,-3.99981 -8.3891,-7.05525 -14.953,-10.28383 -12.8813,-6.33591 -19.8831,-11.09744 -30.7118,-20.88534 -3.7753,-3.41236 -10.2873,-10.53061 -13.7076,-14.98377 -4.682,-6.09571 -9.392,-14.91191 -11.6765,-21.85608 -4.3958,-13.36172 -3.7947,-25.44128 1.8308,-36.79367 4.4046,-8.88858 10.9344,-15.30039 19.9615,-19.60073 11.7292,-5.58763 27.05,-5.62078 39.8873,-0.0863 9.9306,4.28131 18.1827,10.86472 25.0097,19.95244 1.6232,2.16078 3.0681,3.97533 3.2108,4.03233 0.1427,0.057 0.046,-1.76623 -0.2144,-4.05161 -1.9796,-17.36025 -7.1477,-32.17253 -15.728,-45.07794 -13.8106,-20.77209 -34.1781,-35.13156 -58.9026,-41.52755 -16.1711,-4.1833 -29.5043,-4.76595 -51.5309,-2.25187 -8.7078,0.99389 -12.2222,1.22285 -19.064,1.242 -9.1487,0.0256 -12.8463,-0.3816 -22.4366,-2.4709 -2.9034,-0.63253 -5.3507,-1.07826 -5.4384,-0.99052 -0.088,0.0877 0.7336,1.77287 1.8253,3.74476 13.479,24.34635 18.1063,54.40793 12.6781,82.36387 -3.8118,19.63127 -12.2717,37.56814 -24.8406,52.66769 -1.6431,1.97395 -2.2904,3.01357 -1.9502,3.13261 2.2899,0.80143 12.7784,3.13553 18.048,4.01639 9.8696,1.64976 15.4065,2.03213 26.0554,1.79936 15.7765,-0.34485 27.6945,-2.69083 42.492,-8.36429 3.3095,-1.26887 6.074,-2.24096 6.1433,-2.16021 0.302,0.35189 4.044,7.85298 4.044,8.1066 0,0.82337 -12.5444,5.61733 -20.1618,7.70502 -20.4922,5.61629 -44.0711,6.20388 -66.4708,1.65648 -4.4024,-0.89374 -13.8271,-3.35723 -21.3433,-5.57886 -0.5075,-0.15002 -1.1747,0.86602 -3.1277,4.76352 -10.7503,21.45339 -25.5433,41.11155 -48.6398,64.6366 -9.7464,9.92723 -12.7602,12.25461 -19.459,15.0272 -5.7782,2.39158 -5.7779,2.39156 -37.7308,2.39156 h -28.9934 v -3.26095 c 0,-5.81362 2.0112,-12.01324 5.3183,-16.39346 1.5306,-2.02717 5.1939,-5.02215 7.7179,-6.3098 2.5743,-1.3133 8.0305,-2.59764 13.5174,-3.18183 6.5717,-0.69968 8.9508,-1.51962 11.7001,-4.03231 2.4957,-2.28098 4.0996,-3.42238 8.5538,-16.00697 11.1868,-31.6064 10.0459,-41.71118 7.8996,-47.35258 -0.2461,-0.64693 -6.3239,-3.49145 -13.1475,-8.942 -15.9565,-12.74595 -28.2028,-28.75673 -36.676,-47.95012 -4.2976,-9.73487 -8.3278,-24.44051 -9.4802,-34.59095 l -0.4601,-4.05261 -2.83,-2.02394 c -5.5358,-3.95906 -12.8269,-12.50735 -15.9872,-18.74401 -4.0463,-7.98493 -5.794,-18.67789 -4.7531,-29.08163 1.2381,-12.37622 6.0666,-28.57283 11.5034,-38.5868 0.82,-1.51048 1.491,-2.91398 1.491,-3.11889 0,-0.20491 -1.3954,-1.11377 -3.1009,-2.01969 -7.433,-3.94833 -10.885,-10.36042 -9.8732,-18.34005 1.3201,-10.41191 8.4605,-19.02441 18.0946,-21.82513 1.6431,-0.47765 3.1911,-0.60669 5.8936,-0.49128 3.1711,0.13541 4.013,0.32403 6.2446,1.39891 4.462,2.14926 7.3485,5.69699 9.4289,11.58913 0.352,0.99675 0.7232,1.89556 0.825,1.99737 0.1018,0.1018 2.1444,-0.60243 4.539,-1.56497 9.2853,-3.73231 17.3276,-5.2508 27.8096,-5.2508 10.3615,0 18.5242,1.52392 27.7119,5.17364 2.2688,0.90127 4.2626,1.64016 4.4307,1.64199 0.168,0.002 0.6948,-0.95453 1.1707,-2.12524 2.809,-6.91157 6.0344,-10.38563 11.312,-12.18438 4.9776,-1.69649 10.9573,-0.82438 16.2564,2.37091 2.7841,1.67877 7.3176,6.46553 8.9991,9.50185 3.7194,6.71596 4.216,14.65508 1.2791,20.45063 -1.0938,2.15855 -4.2446,5.76582 -5.731,6.5613 l -0.9949,0.53244 2.575,2.70718 c 1.4162,1.48891 4.7132,5.06352 7.3267,7.94349 4.7181,5.19918 11.8323,11.94236 16.2187,15.37284 12.348,9.65708 27.4396,15.70475 44.2287,17.72385 6.1627,0.74115 15.693,0.54088 26.3084,-0.55285 12.4317,-1.28086 19.4129,-1.75756 25.7365,-1.75736 39.7959,0.001 75.4845,18.28646 95.6971,49.03078 5.4593,8.30379 10.4094,18.68406 12.8886,27.02719 3.4861,11.73125 4.627,19.48321 5.6118,38.12816 0.765,14.48413 1.2027,18.03236 3.4673,28.10739 1.4221,6.32705 2.6834,10.00653 5.134,14.97743 2.5957,5.26507 5.6264,9.63208 11.4236,16.46034 8.3501,9.83519 8.942,11.93988 8.9359,31.77178 0,12.39356 -0.3426,16.0092 -1.7627,18.80968 -3.1067,6.1271 -11.448,14.45096 -16.4635,17.69259 -4.4247,2.85982 -3.5511,2.72305 -28.3726,2.72288 l -22.2096,-1.5e-4 z M 1430.2916,365.88261 c 2.9762,-0.86385 5.0957,-1.83748 11.8198,-5.42969 2.2019,-1.17632 6.5771,-3.03008 9.7226,-4.11947 6.8613,-2.37624 10.4505,-4.11139 15.1203,-7.30979 10.9324,-7.48774 17.7262,-18.26973 19.653,-31.19002 1.0296,-6.9042 -0.2525,-17.56118 -3.5567,-29.56285 -5.15,-18.70601 -14.8802,-33.68085 -27.3543,-42.09828 -6.5406,-4.41356 -15.0713,-7.84121 -22.806,-9.16352 -14.4869,-2.47666 -28.2861,-0.72715 -40.5774,5.14456 -13.446,6.42336 -24.1469,18.80915 -30.7848,35.632 -6.7306,17.05802 -9.0436,33.69992 -6.2004,44.61192 2.2005,8.44516 5.7058,14.38398 12.3764,20.96851 6.8976,6.80855 11.8429,9.7679 21.9125,13.11293 6.2531,2.0772 7.9916,2.83516 11.8616,5.17144 3.6201,2.1854 7.8774,3.94228 11.5209,4.7544 3.9229,0.87441 13.4747,0.586 17.2925,-0.52214 z m 65.1566,-44.40392 c 5.0445,-7.41083 8.2698,-14.92194 9.7345,-22.66945 0.3315,-1.75324 0.6027,-3.24599 0.6027,-3.31724 0,-0.0713 -1.5013,-1.36874 -3.3362,-2.88332 -1.8349,-1.51459 -5.9528,-5.33351 -9.1508,-8.48651 -3.198,-3.153 -5.8145,-5.59233 -5.8145,-5.42073 0,0.1716 0.5912,2.22333 1.3138,4.55939 3.4267,11.07829 4.9187,19.94196 4.9189,29.22134 10e-5,4.87378 -0.1719,7.4243 -0.638,9.46165 -0.6607,2.88826 -0.7456,3.50192 -0.4844,3.50192 0.084,0 1.3688,-1.78517 2.854,-3.96705 z"
       id="path1"
       sodipodi:nodetypes="ssssssssssssscsssssssssssssssssssssscsssssssssscsssssssssssssssscssssscsssssssssssscssscssssssssssssssssssssssssssss"
       inkscape:label="body" /><path
       style="fill:#000000"
       d="m 1393.6886,446.63462 c -2.2019,-0.18374 -6.5771,-0.76202 -9.7227,-1.28508 -17.4674,-2.90452 -30.0948,-8.06669 -52.2355,-21.35416 -3.565,-2.13948 -7.8794,-5.23977 -10.0087,-5.66048 -2.13,-0.42085 -6.8623,-1.00442 -6.8623,-1.00442 l 0.5136,-48.93187 c 0,0 4.0738,1.07138 6.2534,1.83054 1.9899,0.69308 5.5279,2.03782 7.857,3.00281 5.0314,2.08453 9.9929,3.42642 15.2105,4.11391 4.3657,0.57523 15.1046,0.68083 20.3033,0.19965 3.1458,-0.29117 3.5268,-0.25896 3.5268,0.29815 0,1.27752 4.1822,13.19079 6.6355,18.90173 7.1025,16.53376 16.7907,30.21357 31.053,43.84738 l 6.1823,5.90986 -2.776,0.23613 c -3.9371,0.3349 -11.241,0.28715 -15.9302,-0.10415 z"
       id="path6"
       sodipodi:nodetypes="ssssccssssssscss"
       inkscape:label="right-front-leg" /><path
       style="fill:#000000"
       d="m 1546.5854,544.96861 c 0.01,-5.61946 1.717,-10.99075 4.7128,-14.80138 3.4352,-4.36965 9.6187,-7.97667 16.2548,-9.48184 5.2832,-1.19833 7.1619,-1.88081 8.5626,-3.11062 2.6143,-2.29539 2.7059,-6.29858 0.3961,-17.31142 -1.9282,-9.19385 -2.462,-13.36844 -2.4699,-19.3197 l -0.01,-5.21227 2.5736,-0.23539 c 16.2537,-1.4866 29.8699,-4.79748 44.26,-10.76214 l 5.0833,-2.10701 0.6283,0.89802 c 2.513,3.59167 7.5644,9.38222 12.3479,14.15454 3.1042,3.097 5.644,5.69846 5.644,5.78104 0,0.0826 -1.3793,2.07701 -3.0652,4.43206 -6.5176,9.10492 -9.6295,15.38046 -13.1299,26.47827 -6.3452,20.11689 -7.5823,23.08187 -11.2812,27.03593 -1.2757,1.36371 -3.1887,2.89677 -4.4441,3.56139 -4.6665,2.47043 -3.3465,2.38353 -36.2076,2.38353 h -29.8614 z"
       id="path7"
       sodipodi:nodetypes="cssssccsscsssssssscc"
       inkscape:label="right-back-leg" /><g
       id="g11"
       inkscape:label="face"><path
         style="fill:#000000"
         d="m 1428.3852,352.14628 c -0.9436,-0.16643 -2.402,-0.49336 -3.2409,-0.72651 -2.1282,-0.59155 -7.1873,-0.52208 -9.9133,0.13614 -4.6514,1.12313 -9.312,0.59451 -12.0694,-1.36894 -1.5579,-1.10933 -3.3725,-3.68182 -3.3725,-4.78115 0,-1.23471 0.9749,-1.16403 3.809,0.27618 2.7532,1.39905 5.6206,1.77689 8.4427,1.11249 4.7097,-1.10883 6.6493,-3.16212 5.5262,-5.85016 -0.6171,-1.47673 -1.5601,-2.20401 -5.7675,-4.44784 -3.3364,-1.77932 -4.9269,-3.06351 -5.7533,-4.64534 -1.16,-2.22054 -0.287,-4.0193 2.3775,-4.89868 1.0362,-0.34196 2.5812,-0.38572 5.6422,-0.15979 5.1145,0.37748 6.619,0.37634 12.9951,-0.01 4.3065,-0.26083 5.1325,-0.2152 6.2123,0.34321 3.7531,1.94077 1.6797,6.15571 -4.6202,9.39234 -4.2979,2.20815 -5.6058,3.49632 -5.6058,5.52143 0,1.87749 0.8193,2.79103 3.6269,4.04393 1.4305,0.63834 2.6659,0.85553 4.9857,0.87651 2.7617,0.025 3.3351,-0.10161 5.4868,-1.21128 2.9118,-1.50167 3.8208,-1.58331 3.8208,-0.34317 0,0.90514 -1.5559,3.32086 -2.913,4.5227 -2.0205,1.78929 -6.4013,2.79411 -9.6693,2.21776 z"
         id="path9"
         sodipodi:nodetypes="sssssssssssssssssssssss"
         inkscape:label="nose-mouth" /><path
         style="fill:#000000"
         d="m 1448.7497,322.61536 c -1.9933,-0.86782 -3.71,-3.02982 -6.2639,-7.88839 -1.3477,-2.56403 -3.7746,-6.53032 -5.393,-8.81398 -3.6779,-5.18968 -4.3245,-6.80408 -4.3172,-10.77913 0.01,-3.95459 0.8935,-6.5368 2.9782,-8.67749 3.1105,-3.19406 6.7538,-4.08016 10.2309,-2.48829 2.6732,1.22381 4.1617,2.76533 6.3152,6.54017 1.2465,2.18484 2.8921,4.22649 5.5723,6.9133 5.1771,5.18977 6.2039,6.59428 6.7536,9.23755 1.6119,7.75151 -4.9801,16.53156 -12.3761,16.48403 -1.2771,-0.008 -2.8521,-0.2457 -3.5,-0.52777 z m -2.5402,-21.37868 c 1.5718,-1.82731 0.9255,-4.72494 -1.3088,-5.86755 -3.2527,-1.66346 -6.7138,2.02609 -4.9262,5.25134 1.2031,2.17066 4.6085,2.50721 6.235,0.61621 z"
         id="path10"
         sodipodi:nodetypes="ssscsssssssssss"
         inkscape:label="right-eye" /><path
         style="fill:#000000"
         d="m 1385.1853,322.60751 c -7.901,-2.81822 -11.9168,-13.7998 -7.2717,-19.88516 0.7287,-0.95472 1.9597,-2.26927 2.7354,-2.92122 3.3696,-2.83179 6.056,-5.99955 7.6562,-9.02811 0.9187,-1.73868 2.1703,-3.73063 2.7813,-4.42654 1.5483,-1.76336 4.629,-3.22497 6.7757,-3.21462 3.3319,0.0161 7.1859,2.50563 9.03,5.83304 0.9897,1.78586 1.0945,2.32152 1.0945,5.59704 0,4.63108 -0.5563,6.08545 -4.2614,11.14099 -1.58,2.1558 -3.9566,6.07829 -5.2813,8.71666 -1.3248,2.63837 -2.8549,5.32733 -3.4003,5.97548 -2.1127,2.51081 -6.3537,3.46257 -9.8584,2.21244 z m 13.9509,-20.45243 c 1.1343,-0.51682 2.178,-2.2378 2.178,-3.59132 0,-1.59815 -2.2313,-3.62054 -3.9946,-3.62054 -3.7228,0 -5.0767,5.25867 -1.8103,7.03129 1.2515,0.67915 2.4065,0.73666 3.6269,0.18057 z"
         id="path11"
         sodipodi:nodetypes="sssssssssssssssss"
         inkscape:label="left-eye" /></g><path
       style="fill:#000000;stroke:none;stroke-width:5;stroke-linecap:square;stroke-dasharray:none;paint-order:fill markers stroke"
       d="m 1294.8175,367.78059 c -9.0172,0 -16.0884,4.86475 -16.0884,23.90089 0,17.55448 6.4714,22.28661 16.2134,22.28661 4.2927,0 7.8073,-3.23282 10.5076,-6.35225 4.4947,-5.19229 2.3674,-10.27275 2.3674,-10.27275 0,0 2.3125,-2.58244 2.3125,-7.3125 0,-3.41417 -2.5,-6 -2.5,-6 0,0 1.9587,-4.92452 -0.9406,-9.25 -2.5086,-3.7425 -6.7642,-7 -11.8719,-7 z"
       id="path13"
       sodipodi:nodetypes="sssscscss" /></g></g></svg>
