<?xml version="1.0" encoding="UTF-8" standalone="no"?>
<svg
   xml:space="preserve"
   id="flag_of_iran"
   width="900"
   height="600"
   data-name="Flag of Iran"
   version="1.1"
   viewBox="0 0 900 600"
   sodipodi:docname="China-panda-0.svg"
   inkscape:version="1.4.3 (0d15f75042, 2025-12-25)"
   inkscape:export-filename="China-panda-0.png"
   inkscape:export-xdpi="213.33333"
   inkscape:export-ydpi="213.33333"
   xmlns:inkscape="http://www.inkscape.org/namespaces/inkscape"
   xmlns:sodipodi="http://sodipodi.sourceforge.net/DTD/sodipodi-0.dtd"
   xmlns="http://www.w3.org/2000/svg"
   xmlns:svg="http://www.w3.org/2000/svg"><defs
   id="defs1">
	

		
		
		
		
		
	
			
			
			
			
			
			
			
			
			
			
			
			
			
			
			
			
			
			
			
			
		
			
			
			
			
			
			
			
			
			
			
			
			
			
			
			
			
			
			
			
			
		
			
			
			
			
			
			
			
			
			
			
			
			
			
			
			
			
			
			
			
			
		
			
			
			
			
			
			
			
			
			
			
			
			
			
			
			
			
			
			
			
			
		
	
	
	
	
	
	
	
	
	
	
	
	
	
	
	
	
	
	
	
	
</defs><sodipodi:namedview
   id="namedview1"
   pagecolor="#ffffff"
   bordercolor="#000000"
   borderopacity="0.25"
   inkscape:showpageshadow="2"
   inkscape:pageopacity="0.0"
   inkscape:pagecheckerboard="0"
   inkscape:deskcolor="#d1d1d1"
   inkscape:zoom="4"
   inkscape:cx="379.125"
   inkscape:cy="428"
   inkscape:window-width="1800"
   inkscape:window-height="1049"
   inkscape:window-x="0"
   inkscape:window-y="0"
   inkscape:window-maximized="1"
   inkscape:current-layer="g27" />
  <path
   id="green_band"
   d="M 0,0 H 900 V 600 H 0 Z"
   style="fill:#ffff00;fill-opacity:1;stroke-width:0.92582" />
  <path
   id="white_band"
   d="M 0,0 H 900 V 600 H 0 Z"
   style="fill:#ee1c25;fill-opacity:1;stroke-width:1.1339" />
  <path
   id="red_band"
   d="m 0,500 h 900 v 20 H 0 Z"
   style="fill:#ffff00;fill-opacity:1;stroke-width:0.29277" />
  
<g
   id="g1"
   transform="matrix(0.25248663,0,0,0.25248663,172.0805,157.98891)"
   style="display:inline;fill:#ffff00;fill-opacity:1;stroke:none;stroke-opacity:1"><path
     id="polygon2557"
     style="fill:#ffff00;fill-opacity:1;stroke:none;stroke-linecap:round;stroke-linejoin:round;stroke-opacity:1"
     d="m 989.10937,145.06055 -56.16992,65.77929 -79.91015,-33.09961 45.1914,73.74024 -56.16992,65.7793 84.09961,-20.19922 45.18945,73.75 6.79102,-86.23047 84.10934,-20.18945 -79.91012,-33.10157 z" /><path
     id="polygon2577"
     style="fill:#ffff00;fill-opacity:1;stroke:none;stroke-linecap:round;stroke-linejoin:round;stroke-opacity:1"
     d="m 1212.3496,145.06055 6.7812,86.22851 -79.9101,33.10157 84.1093,20.18945 6.7891,86.23047 45.1914,-73.75 84.0996,20.19922 -56.1699,-65.7793 45.1894,-73.74024 -79.9101,33.09961 z" /><path
     id="polygon2597"
     style="fill:#ffff00;fill-opacity:1;stroke:none;stroke-linecap:round;stroke-linejoin:round;stroke-opacity:1"
     d="M 1489.5292,-85.91016 1456.4296,-6 l -86.2304,-6.79102 65.7716,56.18165 -33.1016,79.9082 73.75,-45.19922 65.7715,56.17969 -20.1914,-84.10938 73.75,-45.18945 -86.2285,-6.79102 z" /><path
     id="polygon2617"
     style="fill:#ffff00;fill-opacity:1;stroke:none;stroke-linecap:round;stroke-linejoin:round;stroke-opacity:1"
     d="m 711.92969,-85.91016 -20.18946,84.09961 -86.23046,6.79102 73.75,45.18945 -20.18946,84.10938 65.76953,-56.17969 73.75,45.19922 -33.09961,-79.9082 65.76954,-56.18165 L 745.0293,-6 Z" /><path
     id="polygon3189"
     style="display:inline;fill:#ffff00;fill-opacity:1;stroke:none;stroke-linecap:round;stroke-linejoin:round;stroke-opacity:1"
     d="m 1100.7305,-362.5 -53.461,164.51953 H 874.2793 L 1014.2402,-96.30078 960.7793,68.2207 1100.7305,-33.46094 1240.6796,68.2207 1187.2208,-96.30078 1327.1796,-197.98047 h -172.9902 z" /></g><g
   id="g27"
   transform="matrix(1.490883,0,0,1.490883,-332.7136,-96.353232)"><path
     style="display:inline;fill:#ffffff;fill-opacity:1;stroke:none;stroke-width:2;stroke-linecap:round;stroke-linejoin:round;stroke-dasharray:none;stroke-opacity:1;paint-order:fill markers stroke"
     d="m 467.61855,256.06104 12.10921,-0.17677 14.53988,4.94974 7.91076,15.42377 2.47487,5.25911 10.16466,8.79464 -0.13258,10.51821 c -29.75757,68.06469 -48.11271,63.8213 -58.55728,9.41336 -20.66786,-20.00595 -9.73207,-28.08601 -7.07107,-39.28862 3.0766,-7.22672 10.34915,-11.40185 18.56155,-14.89344 z"
     id="path25-6"
     sodipodi:nodetypes="cccccccccc" /><path
     style="display:inline;fill:#ffffff;fill-opacity:1;stroke:none;stroke-width:2;stroke-linecap:round;stroke-linejoin:round;stroke-dasharray:none;stroke-opacity:1;paint-order:fill markers stroke"
     d="m 442.07432,201.21607 -4.41942,6.62913 -2.07712,5.74524 -17.32412,92.41002 -2.05503,0.35355 -1.03856,-2.34229 -4.04377,-0.83969 -0.90598,4.28684 4.5741,3.7786 3.18198,1.14905 -3.15989,24.48357 -2.85052,3.24827 0.53033,2.58536 2.69585,4.5299 2.58535,0.41985 4.94975,-4.19845 -1.03856,-5.41378 4.28683,-24.54987 3.97748,0.41985 5.21491,-1.96664 0.0221,-4.35313 -3.91119,-0.22097 -1.87825,1.5247 -1.4805,-0.70711 2.32019,-14.67246 14.14214,-79.37274 -1.03857,-10.23095 z"
     id="path26" /><path
     style="display:inline;fill:#ffffff;fill-opacity:1;stroke:none;stroke-width:2;stroke-linecap:round;stroke-linejoin:round;stroke-dasharray:none;stroke-opacity:1;paint-order:fill markers stroke"
     d="m 519.72348,293.80287 -15.55635,60.98796 58.86664,11.66726 42.07286,-10.6066 14.31891,-14.31892 -2.12132,-20.50609 -9.19239,-12.02082 -12.28598,-9.28077 -16.44023,-4.94975 -15.11441,0.0884 -18.56155,1.76776 -11.13693,-0.26516 z"
     id="path27" /><path
     style="display:inline;fill:#000000;stroke-width:0.379178"
     d="m 456.45483,399.89989 c -3.44623,-0.33276 -5.23103,-1.13896 -5.95696,-2.69081 -0.69363,-1.48278 -0.58253,-2.91265 0.38422,-4.94503 1.05848,-2.22515 3.34405,-3.99648 6.09522,-4.72378 0.94806,-0.25063 1.96554,-0.3481 4.57861,-0.43858 3.84237,-0.13307 4.54995,-0.3082 5.99178,-1.48304 1.16571,-0.94985 1.86597,-1.93816 2.99888,-4.23238 2.57967,-5.22394 4.50585,-13.97019 4.4911,-20.39258 -0.004,-1.07433 -0.15368,-3.07842 -0.33595,-4.45356 -0.18231,-1.37513 -0.33159,-2.58021 -0.33178,-2.67794 -1.5e-4,-0.0977 -0.68589,-0.73849 -1.52388,-1.42389 -0.83795,-0.68541 -2.39015,-2.14293 -3.44927,-3.23893 l -1.92566,-1.99273 -1.04335,0.48026 c -0.57384,0.26415 -1.64108,0.62432 -2.37161,0.80038 -5.81287,1.40097 -11.71312,-0.3466 -28.36211,-8.40047 -4.82236,-2.33281 -8.75899,-3.99582 -11.37407,-4.80497 -0.75524,-0.23368 -1.4182,-0.37979 -1.4733,-0.32471 -0.0551,0.0551 -0.22345,0.86356 -0.37413,1.79661 l -0.27396,1.69644 0.70209,1.45559 c 0.85125,1.76487 0.9266,2.1014 0.69063,3.08492 -0.24961,1.04054 -0.96902,1.86661 -2.05624,2.36108 -0.68889,0.31332 -1.01203,0.58353 -1.41456,1.18285 -0.30206,0.44971 -0.84588,0.97607 -1.29152,1.25012 -0.68085,0.41866 -0.90794,0.47335 -1.9657,0.47335 -1.05825,0 -1.2839,-0.0544 -1.96001,-0.47249 -0.94958,-0.58717 -1.57416,-1.46099 -1.82851,-2.55807 -0.14811,-0.63886 -0.34172,-0.97923 -0.80003,-1.40638 -0.71456,-0.66598 -1.18456,-1.59975 -1.18812,-2.36059 -0.005,-1.14614 0.29178,-1.71251 1.62865,-3.10451 1.27502,-1.32762 1.29849,-1.36641 1.47891,-2.44289 0.10078,-0.60162 0.21863,-1.21219 0.26182,-1.35682 0.0574,-0.19212 -0.10234,-0.34482 -0.59277,-0.56675 -1.6045,-0.72606 -2.58429,-2.11241 -3.27898,-4.63957 -0.29239,-1.06369 -0.34316,-1.64628 -0.34035,-3.90663 0.004,-2.36396 0.0482,-2.82383 0.41083,-4.176 0.22414,-0.83572 0.69837,-2.07854 1.05386,-2.76181 1.09055,-2.09622 3.3423,-4.01856 4.91475,-4.1958 0.69295,-0.0781 0.69682,-0.082 0.80469,-0.80117 0.0596,-0.39747 0.10163,-0.75784 0.0934,-0.80081 -0.008,-0.0429 -0.78414,-0.22247 -1.72428,-0.39888 l -1.70933,-0.32075 -2.19321,-1.94509 c -1.58489,-1.40556 -2.19677,-2.0456 -2.20595,-2.3074 -0.0227,-0.64486 0.80326,-4.94529 0.98401,-5.12387 0.12835,-0.12681 0.78168,-0.0611 2.44111,0.24534 3.39752,0.62752 3.12531,0.50488 3.12531,1.40797 0,0.42404 0.0823,0.95178 0.18303,1.17275 0.18932,0.41551 0.83946,0.69395 1.05805,0.45315 0.12862,-0.1417 0.28575,-0.96952 3.92594,-20.68586 1.19805,-6.4889 2.49511,-13.48568 2.8824,-15.54837 0.38729,-2.0627 1.44452,-7.79372 2.34943,-12.7356 0.90491,-4.94188 1.88732,-10.25098 2.18319,-11.79801 0.29584,-1.54702 0.99303,-5.3091 1.54929,-8.36017 3.45113,-18.92919 4.33439,-23.45542 4.94198,-25.3244 0.617,-1.89785 2.21641,-5.15896 3.38914,-6.91017 1.36489,-2.03812 3.50436,-4.67964 3.66233,-4.52168 0.20388,0.20391 1.16407,2.96015 1.52869,4.38822 0.49305,1.9311 0.74846,3.40889 0.9528,5.51272 0.32605,3.35747 0.10913,5.28916 -1.72594,15.36984 -0.4224,2.32053 -1.40748,7.91091 -2.189,12.42306 -2.04264,11.79341 -3.24307,18.60124 -3.59586,20.39258 -0.16923,0.85946 -0.58504,3.17999 -0.92402,5.15674 -0.84883,4.95053 -5.20369,30.0096 -5.94719,34.22204 -1.58629,8.98746 -1.81501,10.55057 -1.56657,10.70761 0.12877,0.0814 0.32746,0.1491 0.44151,0.15041 0.34172,0.004 1.11782,-0.88071 1.21974,-1.39034 0.0523,-0.26149 0.1745,-0.53932 0.27157,-0.6174 0.1957,-0.15741 5.21481,0.68829 5.50264,0.92717 0.12354,0.10253 0.0683,0.79034 -0.19653,2.44888 -0.20259,1.26847 -0.42278,2.47295 -0.48937,2.67662 -0.10044,0.3074 -0.58818,0.55015 -2.87072,1.4289 l -2.74969,1.0586 -1.68457,-0.30218 c -1.91027,-0.34266 -1.86268,-0.36298 -2.03202,0.86835 -0.08,0.58151 -0.0551,0.7999 0.0968,0.85053 0.11239,0.0375 1.58015,0.7695 3.26165,1.62673 1.68151,0.85724 3.66412,1.7941 4.40579,2.08192 1.77364,0.6883 4.66863,1.26392 7.51274,1.49381 3.873,0.31304 6.60517,-0.14114 11.51155,-1.9136 l 2.68166,-0.96878 -0.0805,-0.48452 c -0.1574,-0.94726 -0.53434,-4.88836 -0.64119,-6.70428 l -0.10852,-1.84433 -1.56597,-1.04587 c -5.3386,-3.56559 -8.64454,-8.3998 -10.12027,-14.79859 -0.42221,-1.83083 -0.57795,-5.77435 -0.30733,-7.78378 0.43894,-3.25938 1.77775,-7.78021 3.59955,-12.15482 0.51124,-1.22772 0.91363,-2.24254 0.89413,-2.25517 -0.0197,-0.0126 -0.45035,-0.25659 -0.95746,-0.54215 -2.01696,-1.13585 -3.61379,-3.08342 -4.21983,-5.14668 -0.67509,-2.29829 -0.004,-5.89381 1.60403,-8.57927 1.83329,-3.06391 4.51041,-5.15129 7.36357,-5.74152 3.45196,-0.71411 6.14781,1.01181 8.31732,5.32485 0.34585,0.68756 0.64483,1.26844 0.66439,1.29083 0.0197,0.0224 0.70797,-0.2778 1.52976,-0.66708 4.76927,-2.25923 10.9694,-3.32367 15.90414,-2.73039 2.89935,0.34856 7.4509,1.69049 9.89565,2.91751 0.58894,0.2956 1.09013,0.51535 1.11372,0.48835 0.0235,-0.027 0.20111,-0.36554 0.39446,-0.75229 1.39257,-2.78573 2.99968,-4.69131 4.53911,-5.38217 4.5752,-2.05323 10.20247,1.3632 12.60855,7.65489 1.84702,4.82985 0.38013,9.04559 -3.9824,11.44518 l -0.77098,0.42408 0.77337,1.79705 c 0.42532,0.98838 1.10637,2.61444 1.51338,3.61348 0.90248,2.2151 1.59323,3.1608 4.2231,5.78158 3.20387,3.19279 5.48485,4.75808 10.64759,7.3068 1.57996,0.77999 3.60113,1.80045 4.49148,2.26769 4.27918,2.24561 9.52693,3.22569 17.25827,3.22319 5.65775,-0.002 10.24358,-0.34246 18.93904,-1.4068 2.0627,-0.25247 4.52387,-0.54833 5.46927,-0.65744 2.58862,-0.29878 10.36681,-0.24603 13.27295,0.09 8.60166,0.99463 16.84868,4.0059 23.87774,8.71853 2.26305,1.51729 4.45728,3.35591 6.65101,5.57321 l 2.079,2.10127 1.35886,0.45633 c 3.04442,1.02237 5.8012,2.90453 7.71241,5.26554 2.93875,3.63038 3.91513,8.03902 2.26214,10.21396 -0.49634,0.65311 -1.8047,1.50959 -2.31681,1.51666 -0.43682,0.006 -0.45187,0.21902 -0.12703,1.79772 0.60233,2.9274 0.94836,6.2146 1.09419,10.39461 0.0826,2.3659 0.24958,4.7439 0.38961,5.54741 0.55827,3.20378 1.5036,6.46688 2.49519,8.61302 1.55447,3.36449 4.72486,6.3472 9.69479,9.12092 2.71386,1.51461 5.13248,3.70472 5.91279,5.35416 1.57571,3.33074 1.58175,9.66955 0.0152,15.92228 -2.75003,10.97648 -9.34315,15.79767 -21.63262,15.8188 -1.59001,0.002 -3.4016,-0.0804 -4.02577,-0.18465 -3.69127,-0.61675 -5.45736,-2.12894 -5.63012,-4.82063 -0.13711,-2.13653 0.69852,-4.10476 2.42219,-5.70497 1.52514,-1.41593 2.80437,-1.8557 6.95747,-2.39186 3.29009,-0.42475 4.1525,-0.70633 4.64691,-1.51727 0.78015,-1.27961 0.13923,-4.1634 -1.46121,-6.57453 -1.43056,-2.15523 -3.25706,-3.35666 -6.99512,-4.60123 -2.60828,-0.86843 -5.14146,-1.95076 -7.3217,-3.1283 -2.03217,-1.0976 -8.8763,-5.01752 -9.84468,-5.63848 -0.47269,-0.30312 -2.35811,-1.44933 -4.18981,-2.54715 l -3.3304,-1.99603 -0.70198,0.3009 c -0.38607,0.16549 -1.39909,0.51749 -2.25114,0.7822 -1.4259,0.44299 -1.60753,0.54574 -2.28246,1.29108 -1.04217,1.15092 -2.46474,3.09218 -3.10524,4.23747 -0.93859,1.67835 -1.22456,3.07883 -1.16681,5.71383 0.10404,4.74507 0.0807,5.14398 -0.36921,6.30498 -0.6344,1.63711 -2.60685,4.78252 -6.5803,10.4935 -2.39341,3.43997 -2.95577,3.93136 -5.52102,4.82428 -4.33197,1.50786 -11.40626,2.42187 -17.30301,2.23557 -3.05121,-0.0964 -4.39612,-0.32116 -5.86426,-0.98003 -2.07369,-0.9306 -2.77566,-2.69933 -2.10035,-5.29199 0.52479,-2.01485 1.72071,-3.66048 3.53831,-4.86881 1.77258,-1.17842 3.26374,-1.61061 6.1866,-1.79308 3.07263,-0.19183 4.43069,-0.47059 5.34978,-1.09814 1.87015,-1.27696 3.07052,-4.26163 2.64891,-6.58662 -0.0957,-0.5276 -0.62534,-2.1356 -1.17701,-3.57334 -0.92883,-2.42061 -1.94071,-5.83908 -1.94071,-6.55641 0,-0.42486 -0.4411,-0.54965 -2.34397,-0.66312 -1.84356,-0.10993 -6.42977,-0.69537 -9.37655,-1.19695 -2.58903,-0.44068 -4.88654,-0.928 -9.68778,-2.05487 -2.19161,-0.51437 -5.63724,-1.31546 -7.65697,-1.78019 -4.87677,-1.12211 -19.09129,-3.70517 -19.27319,-3.50232 -0.32286,0.36008 -18.21292,27.41104 -22.346,33.78864 -1.98515,3.06324 -3.21437,4.14739 -6.44156,5.68139 -3.22874,1.53473 -6.69591,2.52756 -10.85117,3.10724 -2.11252,0.2947 -9.48097,0.43862 -11.66421,0.22781 z m 108.74988,-36.72243 c 7.14542,-0.42562 12.58929,-1.36839 17.92269,-3.10388 l 2.73195,-0.88897 -1.24742,-0.91511 c -1.71852,-1.26068 -4.85785,-4.44252 -5.8558,-5.93506 -1.08469,-1.62225 -2.11654,-3.82207 -2.50914,-5.34925 -1.60692,-6.25065 1.2776,-12.48854 7.12938,-15.4175 2.61937,-1.31105 6.34453,-2.28674 9.98908,-2.61633 6.42828,-0.58133 12.67563,1.2851 18.368,5.48754 1.78051,1.31447 4.41413,3.99962 5.464,5.57093 0.47181,0.70615 0.91697,1.28628 0.9892,1.28918 0.14359,0.006 0.0239,-3.09149 -0.2291,-5.93278 -0.41102,-4.61456 -1.96706,-10.76558 -3.82117,-15.10505 -2.04715,-4.79126 -5.71293,-9.64879 -9.98001,-13.22445 -6.44698,-5.40234 -15.21161,-9.34503 -23.84361,-10.72584 -3.56837,-0.57081 -5.35457,-0.70628 -9.29321,-0.70482 -4.06335,0.002 -4.62078,0.0447 -11.95427,0.926 -14.57747,1.7519 -22.6263,1.85415 -29.84616,0.37915 -1.32253,-0.27019 -3.76069,-0.91375 -4.41935,-1.1665 -0.1753,-0.0673 -0.0664,0.31681 0.38679,1.36373 2.0746,4.79286 3.0963,10.13698 3.093,16.17859 -0.004,7.95382 -1.94519,15.75308 -5.33178,21.42526 -1.81323,3.03693 -2.75159,4.21009 -6.46006,8.07652 -3.90792,4.07435 -4.27395,4.51289 -5.28499,6.33186 -0.49335,0.88761 -1.61466,3.95901 -1.89123,5.18029 -0.1089,0.48094 -0.30535,0.41483 2.71803,0.91461 8.27143,1.36732 15.03601,2.76778 25.15864,5.20857 6.42024,1.54807 11.36624,2.33407 17.65795,2.80615 1.67737,0.12585 7.89071,0.0942 10.35859,-0.0528 z m -90.59607,-18.81853 c 0.8816,-7.59979 4.31676,-14.67044 9.50214,-19.55829 2.54565,-2.3996 4.67561,-3.86977 11.15266,-7.69791 4.19371,-2.47861 6.03333,-3.83855 8.11237,-5.99707 3.95862,-4.10996 6.35693,-9.44429 7.24132,-16.10617 0.18462,-1.39067 0.21662,-6.34456 0.0427,-6.60954 -0.0632,-0.0962 -0.67737,-0.6177 -1.36493,-1.15889 -0.68757,-0.5412 -1.73144,-1.43443 -2.31974,-1.98496 -0.58829,-0.55053 -1.09089,-0.97834 -1.11691,-0.95068 -0.0261,0.0276 0.0289,0.4722 0.12146,0.98788 0.0928,0.51567 0.16657,2.16817 0.16391,3.67222 -0.004,2.21115 -0.0711,3.04873 -0.35089,4.37542 -0.95799,4.54269 -3.07142,8.59231 -6.18625,11.85362 -2.98865,3.12919 -5.70398,4.8283 -11.64074,7.28416 -3.2618,1.34933 -3.21892,1.32794 -4.38706,2.18787 -1.23111,0.90629 -3.24796,1.86507 -4.83547,2.29871 -1.16241,0.31753 -1.67407,0.36174 -4.13915,0.3577 -2.37464,-0.004 -3.02698,-0.0585 -4.1881,-0.35057 -1.49336,-0.37564 -3.32645,-1.16231 -4.37166,-1.87608 -0.36291,-0.24785 -0.97707,-0.66709 -1.36474,-0.93163 -0.57438,-0.39196 -5.7381,-2.65688 -6.75677,-2.96367 -0.34331,-0.10338 -0.34562,0.0657 -0.0435,3.15753 0.94984,9.72046 2.52312,15.89806 5.63641,22.13183 2.50144,5.00868 5.18045,8.62323 9.30841,12.559 l 1.31116,1.25013 0.11023,-1.87519 c 0.0606,-1.03134 0.22402,-2.85629 0.36314,-4.05542 z m -56.75113,2.51219 c 0.60415,-0.25242 1.43637,-1.20747 1.67055,-1.91708 0.14064,-0.42607 0.26159,-0.51574 0.82104,-0.60868 1.29731,-0.2155 1.98431,-0.87737 1.98431,-1.91172 0,-0.39798 -1.28951,-3.31705 -1.46534,-3.31705 -0.0381,0 -1.35897,-0.24594 -2.93514,-0.54653 l -2.86583,-0.54652 -1.28917,1.30611 c -1.17052,1.18585 -1.28913,1.36206 -1.2886,1.91384 0,0.80116 0.44853,1.50379 1.19297,1.87194 0.5343,0.26423 0.59797,0.35536 0.55535,0.79503 -0.20646,2.13059 1.75904,3.73817 3.61986,2.96066 z m 3.06953,-9.24097 c 0,-0.044 0.31642,-1.86001 0.70318,-4.03552 0.38677,-2.1755 0.69974,-4.05568 0.69553,-4.17817 -0.004,-0.12249 -0.25852,0.26953 -0.56509,0.87114 -1.26156,2.47584 -2.814,3.82201 -4.8385,4.19566 l -1.06072,0.19577 -0.17635,0.97518 c -0.097,0.53635 -0.11687,1.01196 -0.0442,1.0569 0.14792,0.0914 4.58469,0.96342 5.01263,0.98519 0.15042,0.008 0.27346,-0.0221 0.27346,-0.0661 z m 3.26976,-18.35922 c 0.35643,-2.01973 0.71733,-4.01651 0.80197,-4.43729 0.0847,-0.42078 0.13487,-0.7839 0.11159,-0.80691 -0.10606,-0.10491 -6.08066,-1.09693 -6.12934,-1.01771 -0.0303,0.0492 -0.10272,0.40834 -0.16104,0.7981 l -0.10605,0.70866 0.7885,0.35636 c 2.3997,1.08454 3.76857,3.65562 3.76857,7.07832 0,0.75915 0.0572,1.22854 0.13886,1.14115 0.0764,-0.0817 0.43052,-1.80096 0.78694,-3.82068 z m 54.31389,-4.60558 c 1.50932,-0.44322 2.89268,-1.134 4.19053,-2.09251 1.06405,-0.78588 1.32856,-0.91636 4.45641,-2.19845 5.01926,-2.05739 7.57227,-3.56018 10.04371,-5.91208 0.77383,-0.7364 1.86059,-1.94244 2.41503,-2.68011 1.00008,-1.33054 2.80163,-4.72431 3.2607,-6.14252 1.74551,-5.39234 1.51372,-9.70781 -0.91704,-17.07578 -2.16878,-6.57388 -4.97531,-11.35547 -8.71435,-14.84701 -6.69417,-6.2511 -16.29147,-8.79062 -25.09607,-6.64062 -5.15217,1.25811 -9.42103,3.60749 -12.9224,7.11186 -2.51452,2.51667 -3.65266,4.16045 -5.62575,8.12516 -2.95404,5.9359 -4.6479,11.94395 -4.6479,16.48596 0,5.63046 2.24136,11.08104 6.18194,15.03337 2.66346,2.6714 5.27357,4.25671 10.84564,6.58728 2.18323,0.91316 3.47478,1.55632 4.34834,2.16536 2.88141,2.0089 5.12053,2.65601 8.8215,2.54936 1.53348,-0.0442 2.25558,-0.14505 3.35971,-0.46927 z m -9.96697,-7.74374 c -0.79494,-0.20054 -1.50696,-0.57244 -2.02636,-1.05841 -0.48903,-0.45752 -0.57654,-0.87792 -0.15626,-0.75059 1.95652,0.5928 3.54471,0.52798 5.93967,-0.24244 1.03307,-0.33234 1.28758,-0.59889 1.28758,-1.34862 0,-0.88461 -0.58026,-1.45375 -2.50341,-2.45549 -2.76478,-1.44014 -2.9659,-1.63573 -2.9659,-2.88437 0,-0.48766 0.0963,-0.68489 0.50086,-1.02526 0.48789,-0.41053 0.53946,-0.4191 1.99239,-0.33109 4.68726,0.28393 4.93941,0.28519 6.61685,0.0329 1.99134,-0.29941 2.68356,-0.184 3.30159,0.55046 0.44713,0.53139 0.47731,0.70315 0.23585,1.3422 -0.29565,0.78248 -0.97138,1.31942 -2.72471,2.16506 -2.11907,1.02205 -2.63304,1.51 -2.64666,2.51278 -0.0121,0.90058 0.34172,1.20903 1.8841,1.6419 1.52695,0.42851 3.20148,0.52428 4.47389,0.25585 1.22084,-0.25756 1.3327,-0.13202 0.54692,0.61369 -0.68043,0.64571 -1.31616,0.94747 -2.25993,1.07266 -0.85847,0.11387 -3.01068,-0.12497 -4.5192,-0.50152 -0.89949,-0.22454 -1.05749,-0.21889 -2.57834,0.0921 -1.95808,0.40044 -3.60147,0.51928 -4.39893,0.31809 z m -9.68781,-12.33445 c -2.84937,-1.1135 -4.7422,-4.47944 -4.19353,-7.45716 0.29884,-1.62174 0.82616,-2.50934 2.52916,-4.25694 1.23214,-1.26444 1.64726,-1.81383 2.10497,-2.78584 0.31354,-0.66593 0.6804,-1.44008 0.81524,-1.72033 0.40287,-0.83757 1.20195,-1.65942 2.09132,-2.15089 1.57738,-0.8717 3.57163,-0.56791 5.23854,0.79798 1.32401,1.08493 1.9208,2.66863 1.92512,5.10886 0.004,1.82019 -0.3212,2.69833 -1.73356,4.69208 -0.62095,0.87653 -1.7049,2.40234 -2.40885,3.39072 -0.70391,0.98838 -1.47367,2.1838 -1.71059,2.6565 -0.53786,1.0731 -0.79217,1.36314 -1.52183,1.73555 -0.74865,0.38208 -2.14334,0.3774 -3.13599,-0.0106 z m 6.96558,-12.36023 c -1.38131,-1.6416 -4.57809,-1.00021 -4.57809,0.91854 0,1.23609 0.85179,2.2549 2.32558,2.78155 2.36571,0.84539 4.02041,-0.86566 2.25251,-3.70009 z m 21.18071,12.46471 c -0.68047,-0.31568 -1.07701,-0.76047 -1.56138,-1.75136 -0.25208,-0.51567 -1.00031,-1.68603 -1.66277,-2.60079 -3.92897,-5.42534 -4.12982,-5.79987 -4.21992,-7.86896 -0.11735,-2.69521 0.66573,-4.60094 2.37412,-5.77755 2.93666,-2.02257 5.84287,-0.94797 7.35162,2.71833 0.56281,1.36773 0.72753,1.59948 2.3156,3.25796 1.88775,1.97141 2.37559,2.801 2.63784,4.48555 0.58488,3.75685 -2.26059,7.58043 -5.72567,7.69381 -0.61731,0.0202 -1.27492,-0.0482 -1.50944,-0.15699 z m -1.10701,-9.05442 c 0.80561,-0.37685 1.3771,-1.0238 1.59384,-1.80423 0.21382,-0.76982 0.20631,-0.90385 -0.0816,-1.46064 -0.50487,-0.97628 -2.44339,-1.38292 -3.65236,-0.76614 -2.08057,1.1903 -1.56707,3.42834 -0.96357,3.97449 0.68055,0.61588 1.86237,0.63743 3.10403,0.0566 z m -53.91385,27.04419 c 1.18254,-0.44424 2.21311,-0.86237 2.29012,-0.92918 0.1828,-0.15856 0.72203,-3.31234 0.58792,-3.43845 -0.11103,-0.10438 -3.01603,-0.64965 -3.05804,-0.574 -0.37531,0.67523 -1.00107,1.39349 -1.40231,1.60957 -0.96194,0.51805 -2.4636,0.10413 -6.17507,-1.70213 l -1.12544,-0.54772 -3.2929,0.0946 c -4.18943,0.12032 -4.37276,0.0488 -4.87005,-1.90062 l -0.19589,-0.76791 -1.46829,-0.28006 c -0.80754,-0.15403 -1.50037,-0.24796 -1.53958,-0.20873 -0.0392,0.0392 -0.20801,0.79325 -0.37512,1.67562 l -0.3038,1.6043 1.61644,1.52835 c 0.88906,0.8406 1.79226,1.62368 2.00711,1.74018 0.21487,0.11651 3.37923,0.74996 7.03194,1.40769 3.6527,0.65772 6.92254,1.25592 7.2663,1.32932 0.3438,0.0734 0.67714,0.14099 0.7408,0.15019 0.0637,0.009 1.08328,-0.34674 2.26586,-0.79098 z m -2.92362,-15.13132 c 0.86392,-5.02782 1.95148,-11.28623 2.41677,-13.90758 0.46525,-2.62134 1.16526,-6.62954 1.5555,-8.9071 0.68738,-4.01158 0.93703,-5.43935 2.58206,-14.76705 0.81937,-4.64595 1.71935,-9.77399 2.87963,-16.40782 1.86256,-10.649 2.69721,-15.35694 3.80919,-21.48644 l 1.20487,-6.64126 -0.004,-3.20343 c -0.004,-2.36957 -0.0739,-3.58987 -0.27593,-4.68796 -0.33223,-1.8053 -1.19687,-5.00048 -1.35317,-5.00048 -0.12854,0 -1.55258,1.95875 -2.43159,3.3447 -0.9511,1.49952 -2.5336,4.91295 -2.94857,6.35988 -0.38081,1.3279 -1.75203,8.33341 -3.14718,16.07915 -0.39476,2.19162 -1.23574,6.76237 -1.86882,10.15722 -0.63308,3.39486 -1.68768,9.09072 -2.34363,12.65747 -0.6559,3.56674 -1.53589,8.3133 -1.95553,10.54789 -1.12771,6.00531 -2.5546,13.69716 -3.36255,18.12674 -1.04782,5.74444 -3.43559,18.57861 -4.14643,22.28666 -0.33975,1.77228 -0.61772,3.3605 -0.61772,3.52938 0,0.29053 0.0905,0.30329 1.67987,0.23715 0.92391,-0.0384 1.72208,-0.1148 1.77372,-0.16969 0.0516,-0.0549 0.70796,-3.43994 1.45859,-7.52237 2.48631,-13.52268 5.83191,-31.11659 7.35447,-38.67559 0.38084,-1.8908 0.80393,-4.10586 0.9402,-4.92234 0.13624,-0.81649 0.6272,-3.4183 1.09101,-5.78181 1.00108,-5.10141 1.64052,-8.47608 2.19109,-11.56361 0.22223,-1.24621 0.43597,-2.33616 0.47503,-2.4221 0.14356,-0.31613 -0.0742,1.18325 -0.69218,4.76608 -0.34836,2.01973 -0.9913,5.7818 -1.42875,8.36018 -0.78096,4.60294 -1.19881,7.08414 -4.68445,27.81517 -1.94056,11.54168 -3.01917,17.83989 -4.29294,25.06729 -0.47583,2.70001 -0.86517,4.99294 -0.86517,5.09541 0,0.10247 0.72078,0.50498 1.60173,0.89448 l 1.60172,0.70818 0.11557,-0.41245 c 0.0636,-0.22685 0.82244,-4.52612 1.68636,-9.55395 z"
     id="path21-9"
     sodipodi:nodetypes="ssssssscsssscsssssscssssssssssssssscsssssscscsssssssssssssssssssssssssssscssssssscsscsssscsscsscsssssssscssssssssssscsssssssssssssssssssssscssssssssssssssssssssssssssssscssssssssssssssssscssssssssssssssssscsssssssssssssscsssssssscscsssssssscssssssssscsssssssssssssssssssssssssssssssssssssssssssssssssscssssssssssssssssssssssssscsssssscsscssscsssssscsssssccssssssssssssssssssssssssscsccscss" /><circle
     style="fill:#000000;fill-opacity:1;stroke:none;stroke-width:3.34993;stroke-linecap:round;stroke-linejoin:round;stroke-dasharray:none;stroke-opacity:1;paint-order:fill markers stroke"
     id="path24-0-2"
     cx="484.75354"
     cy="283.62854"
     r="1.6285218" /><circle
     style="fill:#000000;fill-opacity:1;stroke:none;stroke-width:3.34993;stroke-linecap:round;stroke-linejoin:round;stroke-dasharray:none;stroke-opacity:1;paint-order:fill markers stroke"
     id="path24-2"
     cx="463.89896"
     cy="283.61356"
     r="1.6285218" /></g><path
   id="path1"
   d="m 0,540 h 900 v 20 H 0 Z"
   style="fill:#ffff00;fill-opacity:1;stroke-width:0.29277" /><path
   id="path2"
   d="m 0,580 h 900 v 20 H 0 Z"
   style="fill:#ffff00;fill-opacity:1;stroke-width:0.29277" /></svg>
